<?xml version="1.0" encoding="UTF-8" standalone="no"?>
<svg
   id="svg"
   version="1.1"
   width="400"
   height="400"
   viewBox="0, 0, 400,400"
   sodipodi:docname="filament-color-mask-1.svg"
   inkscape:version="1.3 (0e150ed6c4, 2023-07-21)"
   xmlns:inkscape="http://www.inkscape.org/namespaces/inkscape"
   xmlns:sodipodi="http://sodipodi.sourceforge.net/DTD/sodipodi-0.dtd"
   xmlns="http://www.w3.org/2000/svg"
   xmlns:svg="http://www.w3.org/2000/svg">
  <defs
     id="defs1" />
  <sodipodi:namedview
     id="namedview1"
     pagecolor="#505050"
     bordercolor="#eeeeee"
     borderopacity="1"
     inkscape:showpageshadow="0"
     inkscape:pageopacity="0"
     inkscape:pagecheckerboard="0"
     inkscape:deskcolor="#505050"
     inkscape:zoom="2.9325"
     inkscape:cx="200"
     inkscape:cy="200.34101"
     inkscape:window-width="2560"
     inkscape:window-height="1369"
     inkscape:window-x="1912"
     inkscape:window-y="-8"
     inkscape:window-maximized="1"
     inkscape:current-layer="svg" />
  <g
     id="svgg"
     inkscape:label="svgg">
    <path
       id="path0"
       d="m 74.929688,267.86523 c 0.08612,0.0434 0.192511,0.098 0.265624,0.13477 0.265066,0.13344 0.551766,0.16931 0.84961,0.24219 v -0.0469 c -0.370665,-0.11372 -0.745309,-0.21397 -1.115234,-0.33008 z m -22.949219,0.6836 c -0.24425,10e-4 -0.38086,0.096 -0.38086,0.29297 0,0.217 -0.311406,0.33939 -0.691406,0.27539 -0.379977,-0.065 -0.710375,0.0632 -0.734375,0.2832 -0.095,0.88 -0.677625,1.78322 -1.015625,1.57422 -0.197,-0.122 -0.357422,0.0698 -0.357422,0.42578 0,0.357 -0.192734,0.52881 -0.427734,0.38281 -0.234,-0.145 -0.378359,-0.0197 -0.318359,0.27735 0.059,0.297 -0.23811,1.16945 -0.66211,1.93945 -0.897977,1.632 -1.16068,4.423 -0.470703,5 0.636977,0.533 0.61189,2.71591 -0.03711,3.12891 -0.738,0.471 -0.489118,3.47718 0.380859,4.61718 0.398,0.521 0.625859,1.10679 0.505859,1.30079 -0.12,0.19377 -0.04026,0.35351 0.177735,0.35351 0.397977,0 1.078687,1.53661 0.929687,2.09961 -0.043,0.165 0.0557,0.27991 0.220703,0.25391 1.034977,-0.164 1.493368,0.0623 0.900391,0.44531 -0.507977,0.328 -0.488071,0.38953 0.128906,0.39453 0.809977,0.007 1.871094,0.9098 1.871094,1.5918 0,0.662 2.757688,3.28834 3.179688,3.02734 0.200977,-0.124 0.495319,-0.0148 0.654296,0.24219 0.181,0.293 0.116125,0.36159 -0.171875,0.18359 -0.253977,-0.157 -0.46289,-0.0829 -0.46289,0.16406 0,0.246 0.405413,0.39127 0.90039,0.32227 0.555,-0.077 0.862782,0.066 0.800782,0.375 -0.055,0.275 0.180437,0.5 0.523437,0.5 0.37,0 0.507891,0.18789 0.337891,0.46289 -0.195,0.315 -0.02013,0.39214 0.546875,0.24414 0.614977,-0.161 0.773399,-0.0648 0.607422,0.36719 -0.136,0.354 -0.0059,0.55381 0.330078,0.50781 0.930977,-0.13 1.556812,0.002 1.507812,0.31836 -0.14,0.884 0.129726,1.29883 0.845703,1.29883 0.44,0 0.800782,0.18039 0.800782,0.40039 0,0.22 0.583828,0.40325 1.298828,0.40625 0.985977,0.005 1.156149,0.10053 0.701172,0.39453 -0.483,0.312 -0.418759,0.38953 0.324218,0.39453 0.595,0.004 0.820719,0.1688 0.636719,0.4668 -0.181,0.292 -0.108687,0.35401 0.195313,0.16601 0.262977,-0.163 0.774741,-0.0557 1.136718,0.23829 0.459,0.371 0.570259,0.38218 0.363282,0.0391 -0.202,-0.337 -0.09969,-0.42077 0.320312,-0.25977 0.34,0.131 0.518462,0.40066 0.396485,0.59766 -0.122,0.197 0.05934,0.35742 0.402343,0.35742 0.343,0 0.625,0.15952 0.625,0.35352 0,0.393 1.433867,0.94517 2.464844,0.95117 0.433,0.002 0.584618,0.21823 0.431641,0.61523 -0.157,0.409 -0.07405,0.51255 0.251953,0.31055 0.266977,-0.165 0.739781,-0.0881 1.050781,0.16992 0.311,0.258 0.781922,0.33488 1.044922,0.17188 0.304,-0.188 0.374359,-0.12599 0.193359,0.16601 -0.254977,0.413 0.223523,0.64081 1.0625,0.50781 0.165,-0.026 0.298828,0.13352 0.298828,0.35352 0,0.22 0.282023,0.40039 0.625,0.40039 0.343,0 0.512884,-0.17753 0.378907,-0.39453 -0.318,-0.514 1.034757,-0.01 1.677734,0.625 0.264,0.261 0.368422,0.5847 0.232422,0.7207 -0.136,0.137 0.513382,0.24805 1.443359,0.24805 0.929977,0 1.604,0.13764 1.5,0.30664 -0.104,0.168 0.245367,0.51267 0.777344,0.76367 0.728977,0.344 0.898453,0.34537 0.689453,-0.008 -0.153,-0.255 0.02553,-0.21731 0.394531,0.082 0.37,0.299 0.963313,0.43192 1.320313,0.29492 0.466977,-0.179 0.584946,-0.0785 0.417969,0.35547 -0.174,0.454 0.05764,0.60547 0.93164,0.60547 0.64,0 1.27611,0.18039 1.41211,0.40039 0.135977,0.22 0.787288,0.40039 1.447265,0.40039 0.66,0 1.100516,0.16042 0.978516,0.35742 -0.122,0.197 0.451413,0.45713 1.27539,0.57813 2.989954,0.437 4.097516,0.76398 4.103516,1.20898 0.003,0.25 0.181554,0.18547 0.394531,-0.14453 0.303,-0.468 0.389532,-0.48147 0.394532,-0.0547 0.004,0.354 0.296078,0.47103 0.830078,0.33203 0.519977,-0.13577 0.911663,0.007 1.05664,0.38672 0.188,0.49 0.293219,0.50148 0.574219,0.0684 0.219,-0.34 0.453554,-0.38781 0.644531,-0.13281 0.165,0.22 0.659588,0.46111 1.099611,0.53711 0.44,0.075 0.86059,0.3 0.93359,0.5 0.074,0.199 0.83822,0.36328 1.69922,0.36328 0.862,0 1.56836,0.18606 1.56836,0.41406 0,0.227 0.4927,0.34563 1.0957,0.26563 0.602,-0.081 1.33396,0.0937 1.62696,0.38672 0.293,0.293 1.24047,0.5332 2.10547,0.5332 0.86377,0 1.57226,0.18039 1.57226,0.40039 0,0.22 0.80883,0.39844 1.79883,0.39844 0.99,0 1.80078,0.14336 1.80078,0.31836 0,0.175 0.66547,0.36297 1.48047,0.41797 0.814,0.055 1.67511,0.26198 1.91211,0.45898 0.237,0.197 1.37153,0.40013 2.51953,0.45313 1.149,0.052 2.08789,0.20865 2.08789,0.34765 0,0.138 0.88861,0.23103 1.97461,0.20703 1.097,-0.025 1.875,0.11636 1.75,0.31836 -0.127,0.205 0.147,0.24793 0.625,0.0957 0.471,-0.15 0.84961,-0.0959 0.84961,0.12109 0,0.215 0.82789,0.37828 1.83789,0.36328 1.01,-0.015 1.967,0.1805 2.125,0.4375 0.184,0.298 1.17746,0.4218 2.74023,0.3418 1.348,-0.07 2.37039,-7e-4 2.27539,0.1543 -0.096,0.15477 0.10532,0.38853 0.44532,0.51953 0.42,0.161 0.52231,0.0772 0.32031,-0.25977 -0.23,-0.382 -0.1657,-0.3873 0.2793,-0.0293 0.32,0.257 1.60095,0.42591 2.87695,0.37891 1.756,-0.064 2.30078,0.0485 2.30078,0.48047 0,0.448 0.57783,0.5342 2.79883,0.4082 1.54,-0.087 2.80078,-0.0291 2.80078,0.12891 0,0.268 1.42062,0.37402 12.90039,0.96679 2.365,0.122 4.29883,0.39166 4.29883,0.59766 0,0.219 2.97678,0.375 7.17578,0.375 4.353,0 7.27383,0.15544 7.42383,0.39844 0.159,0.258 7.19701,0.40039 19.80078,0.40039 12.60377,0 19.64178,-0.14239 19.80078,-0.40039 0.15,-0.243 3.07083,-0.39844 7.42383,-0.39844 4.51677,0 7.17578,-0.14839 7.17578,-0.40039 0,-0.242 1.72219,-0.40039 4.36719,-0.40039 2.401,0 4.426,-0.17186 4.5,-0.38086 0.073,-0.209 1.8882,-0.41022 4.0332,-0.44922 2.145,-0.039 3.89844,-0.20895 3.89844,-0.37695 0,-0.167 1.47058,-0.2107 3.26758,-0.0957 2.49677,0.159 3.37017,0.0782 3.70117,-0.34375 0.288,-0.368 1.291,-0.55274 3,-0.55274 1.428,0 2.62708,-0.18497 2.70508,-0.41797 0.082,-0.246 1.03803,-0.36034 2.33203,-0.27734 1.652,0.105 2.19531,0.006 2.19531,-0.4043 0,-0.421 0.64433,-0.51144 2.86133,-0.39844 1.977,0.101 2.95501,-0.006 3.16601,-0.34765 0.168,-0.272 1.02721,-0.53403 1.90821,-0.58203 0.881,-0.048 1.84081,-0.23602 2.13281,-0.41602 0.293,-0.181 1.03439,-0.27594 1.65039,-0.21094 0.616,0.065 1.37645,-0.0935 1.68945,-0.35351 0.313,-0.259 1.24908,-0.47266 2.08008,-0.47266 0.831,0.001 1.60571,-0.15094 1.72071,-0.33594 0.11477,-0.185 1.14882,-0.37864 2.29882,-0.43164 1.15,-0.052 2.0918,-0.24382 2.0918,-0.42382 0,-0.181 0.55161,-0.32813 1.22461,-0.32813 0.704,0 1.11951,-0.16753 0.97851,-0.39453 -0.13977,-0.227 0.019,-0.2942 0.375,-0.1582 0.342,0.131 0.6211,0.0712 0.6211,-0.13477 0,-0.205 0.54117,-0.29404 1.20117,-0.19727 0.72,0.105 1.19922,-0.003 1.19922,-0.27148 0,-0.251 0.68336,-0.44336 1.56836,-0.44336 0.874,0 1.63751,-0.21628 1.72851,-0.48828 0.097,-0.291 0.75468,-0.44572 1.63868,-0.38672 0.942,0.064 1.55554,-0.0945 1.68554,-0.43555 0.119,-0.31 0.70458,-0.50012 1.39258,-0.45312 0.653,0.045 1.28911,-0.0793 1.41211,-0.27734 0.122,-0.198 0.64034,-0.35938 1.15234,-0.35938 0.512,0 1.42362,-0.25636 2.02539,-0.56836 0.603,-0.313 1.37294,-0.46203 1.71094,-0.33203 0.404,0.155 0.51813,0.0746 0.32813,-0.23242 -0.2,-0.324 0.14976,-0.4668 1.13476,-0.4668 0.783,0 1.42383,-0.18039 1.42383,-0.40039 0,-0.22 0.58383,-0.40325 1.29883,-0.40625 0.986,-0.005 1.15617,-0.10053 0.70117,-0.39453 -0.623,-0.402 -0.31194,-0.54397 0.91406,-0.41797 0.842,0.087 3.08594,-0.8433 3.08594,-1.2793 0,-0.166 0.6598,-0.30273 1.4668,-0.30273 0.806,0 1.34617,-0.11867 1.20117,-0.26367 -0.433,-0.433 1.21178,-1.35603 1.92578,-1.08203 0.924,0.355 2.79428,-0.67316 2.11328,-1.16016 -0.344,-0.246 -0.21642,-0.30002 0.39258,-0.16602 0.495,0.108 0.90039,0.0434 0.90039,-0.14257 0,-0.187 0.35883,-0.27055 0.79883,-0.18555 0.495,0.095 0.80078,-0.0612 0.80078,-0.41016 0,-0.338 0.24061,-0.47098 0.59961,-0.33398 0.33,0.127 0.59961,0.0111 0.59961,-0.25586 0,-0.267 0.25827,-0.38758 0.57227,-0.26758 0.31377,0.121 0.78582,-0.0385 1.04882,-0.35547 0.263,-0.317 0.72821,-0.57617 1.03321,-0.57617 0.954,0 4.22774,-1.70266 3.79297,-1.97266 -0.244,-0.151 -0.0768,-0.46748 0.41015,-0.77148 0.454,-0.284 0.70655,-0.32282 0.56055,-0.0859 -0.146,0.237 -0.0748,0.42969 0.1582,0.42969 0.233,0 0.42383,-0.18039 0.42383,-0.40039 0,-0.22 0.37122,-0.40039 0.82422,-0.40039 0.453,0 0.71217,-0.17844 0.57617,-0.39844 -0.136,-0.22 -0.0391,-0.40039 0.21289,-0.40039 0.253,0 0.81691,-0.40539 1.25391,-0.90039 0.437,-0.495 0.68101,-0.67539 0.54101,-0.40039 -0.14,0.275 -0.065,0.5 0.16797,0.5 0.233,0 0.42383,-0.15089 0.42383,-0.33789 0,-0.724 1.53809,-2.0625 2.37109,-2.0625 0.482,0 0.76491,-0.17844 0.62891,-0.39844 -0.136,-0.22 0.0786,-0.40325 0.47656,-0.40625 0.457,-0.004 0.55558,-0.11578 0.26758,-0.30078 -0.333,-0.215 -0.31447,-0.42525 0.0703,-0.78125 0.414,-0.385 0.56861,-0.385 0.72461,0 0.109,0.269 0.21152,0.16367 0.22852,-0.23633 0.018,-0.398 0.21359,-0.61256 0.43359,-0.47656 0.22,0.136 0.39844,-0.12789 0.39844,-0.58789 0,-0.46 0.31617,-0.95275 0.70117,-1.09375 0.385,-0.142 0.84353,-0.49511 1.01953,-0.78711 0.176,-0.291 0.59183,-0.53125 0.92383,-0.53125 0.333,0 0.49147,-0.18039 0.35547,-0.40039 -0.136,-0.22 0.0786,-0.41364 0.47656,-0.43164 0.4,-0.017 0.50533,-0.11952 0.23633,-0.22852 -0.516,-0.209 -0.39965,-0.41864 1.20312,-2.18164 0.393,-0.433 0.61991,-0.93995 0.50391,-1.12695 -0.116,-0.187 0.0559,-0.56008 0.38086,-0.83008 0.325,-0.27 0.50539,-0.63078 0.40039,-0.80078 -0.105,-0.17 0.0773,-0.53096 0.4043,-0.80273 0.74,-0.614 0.81785,-3.59766 0.0937,-3.59766 -0.364,0 -0.4836,-0.80144 -0.4336,-2.89844 0.059,-2.469 -0.0608,-3.04323 -0.79882,-3.86523 -0.486,-0.541 -0.60263,-0.8347 -0.26563,-0.66993 0.371,0.182 0.33415,0.0766 -0.0937,-0.27539 -0.381,-0.313 -0.57659,-0.68607 -0.43359,-0.83007 0.143,-0.143 0.0509,-0.25977 -0.20508,-0.25977 -0.257,0 -0.44788,-0.13578 -0.42188,-0.30078 0.155,-0.982 -0.13509,-1.75919 -0.74609,-1.99219 -0.385,-0.147 -1.05052,-0.59323 -1.47852,-0.99023 -0.79177,-0.736 -2.15145,-0.63002 -2.68945,0.20898 -0.237,0.369 -0.6466,0.48614 -2.60937,0.74414 -0.263,0.035 -0.44339,0.22864 -0.40039,0.43164 0.115,0.544 -1.82946,1.926 -2.81446,2 -0.468,0.035 -0.77659,0.18885 -0.68359,0.33985 0.246,0.397 -1.01649,0.81004 -1.52149,0.49804 -0.251,-0.155 -0.30862,-0.0747 -0.14062,0.19727 0.187,0.303 -0.0673,0.46289 -0.73828,0.46289 -0.651,0 -1.02344,0.22138 -1.02344,0.60938 0,0.35777 -0.49717,0.71056 -1.20117,0.85156 -0.66,0.132 -1.19922,0.3864 -1.19922,0.5664 0,0.18 -0.34558,0.25874 -0.76758,0.17774 -0.423,-0.081 -0.86733,0.10601 -0.98633,0.41601 -0.121,0.314 -0.48903,0.46013 -0.83203,0.32813 -0.413,-0.158 -0.62448,0.01 -0.64648,0.50781 -0.022,0.518 -0.097,0.57264 -0.25196,0.18164 -0.16177,-0.41 -0.3649,-0.30161 -0.7539,0.40039 -0.484,0.873 -0.53555,0.88716 -0.56055,0.16016 -0.025,-0.747 -0.0607,-0.75347 -0.55273,-0.10547 -0.29,0.381 -0.62133,0.59937 -0.73633,0.48437 -0.294,-0.29377 -2.3125,0.67338 -2.3125,1.10938 0,0.197 -0.18039,0.24928 -0.40039,0.11328 -0.22,-0.136 -0.39844,-0.0819 -0.39844,0.1211 0,0.20177 -0.42912,0.28554 -0.95312,0.18554 -0.524,-0.1 -1.07561,0.0139 -1.22461,0.25391 -0.148,0.241 -0.71953,0.43945 -1.26953,0.43945 -0.565,0 -0.89391,0.17244 -0.75391,0.39844 0.262,0.424 -0.17383,0.52873 -1.79883,0.42773 -0.724,-0.045 -0.85003,0.0387 -0.45703,0.30469 0.717,0.486 0.19175,0.69616 -1.65625,0.66016 -1.041,-0.021 -1.45227,0.12193 -1.32227,0.46093 0.123,0.321 -0.1062,0.43608 -0.6582,0.33008 -0.466,-0.09 -1.10973,0.0514 -1.42773,0.31641 -0.319,0.264 -1.09652,0.42833 -1.72852,0.36133 -0.633,-0.066 -1.15039,0.0716 -1.15039,0.30859 0,0.236 -0.55161,0.43164 -1.22461,0.43164 -0.713,0 -1.12056,0.16544 -0.97656,0.39844 0.211,0.341 -1.48203,0.60178 -1.95703,0.30078 -0.087,-0.055 -0.50283,0.2108 -0.92383,0.5918 -0.424,0.384 -1.15739,0.61648 -1.65039,0.52148 -0.489,-0.094 -0.79569,-0.019 -0.67969,0.16797 0.116,0.188 -0.6425,0.43478 -1.6875,0.55078 -2.879,0.318 -4.5,0.72028 -4.5,1.11328 0,0.195 -0.64373,0.35547 -1.42773,0.35547 -0.785,0 -1.74482,0.16895 -2.13282,0.37695 -0.389,0.208 -1.53578,0.42161 -2.55078,0.47461 -1.015,0.052 -1.75453,0.24188 -1.64453,0.42188 0.111,0.179 -0.4377,0.32617 -1.2207,0.32617 -0.869,0 -1.42569,0.195 -1.42969,0.5 -0.004,0.333 -0.13653,0.30017 -0.39453,-0.0996 -0.258,-0.4 -0.39053,-0.43456 -0.39453,-0.10156 -0.004,0.325 -0.63469,0.5 -1.80469,0.5 -0.99,0 -1.80078,0.14903 -1.80078,0.33203 0,0.182 -1.02457,0.37383 -2.27734,0.42383 -1.253,0.051 -2.54419,0.24087 -2.86719,0.42187 -0.324,0.181 -1.27624,0.238 -2.11524,0.125 -1.09177,-0.146 -1.58814,-0.0437 -1.74414,0.36133 -0.151,0.395 -0.85064,0.5552 -2.30664,0.5332 -2.25677,-0.035 -3.17778,0.13693 -2.92578,0.54493 0.088,0.142 -0.71706,0.24832 -1.78906,0.23632 -1.214,-0.014 -2.02258,0.16747 -2.14258,0.48047 -0.141,0.369 -0.98969,0.44602 -3.17969,0.29102 -1.99277,-0.141 -3.29701,-0.0458 -3.91601,0.28516 -0.568,0.30377 -2.2249,0.46496 -4.26367,0.41796 -2.207,-0.052 -3.24808,0.062 -3.08008,0.33399 0.283,0.458 0.0222,0.50408 -2.5918,0.45508 -2.262,-0.043 -4.478,0.30973 -4.25,0.67773 0.095,0.154 -2.35722,0.23564 -5.44922,0.18164 -3.83377,-0.068 -5.79959,0.0501 -6.18359,0.36914 -0.389,0.323 -2.60713,0.43873 -7.20313,0.37696 -4.63877,-0.063 -6.72387,0.0452 -6.92187,0.36523 -0.204,0.33 -4.60112,0.45798 -15.83789,0.45898 -18.95342,0.003 -18.26008,0.0223 -17.95508,-0.4707 C 183.1611,298.14049 180.81109,298 176.24609,298 172.01132,298 169.15,297.84161 169,297.59961 c -0.136,-0.22 -0.42648,-0.40039 -0.64648,-0.40039 -0.22,0 -0.26483,0.225 -0.0996,0.5 0.235,0.392 0.17293,0.39817 -0.28907,0.0254 -0.386,-0.312 -2.20353,-0.46727 -5.26953,-0.44727 -3.07877,0.021 -4.87786,-0.13131 -5.25586,-0.44531 -0.379,-0.314 -1.68122,-0.42331 -3.82422,-0.32031 -2.98877,0.145 -4.34718,-0.1403 -3.11718,-0.6543 0.276,-0.115 -1.06357,-0.18901 -2.97657,-0.16601 -2.27077,0.028 -3.68893,-0.13289 -4.08593,-0.46289 -0.413,-0.342 -1.43687,-0.43969 -3.18164,-0.30469 -1.649,0.127 -2.75227,0.0313 -3.07227,-0.26367 -0.38,-0.351 -0.43175,-0.34075 -0.21875,0.0351 0.188,0.333 0.0742,0.41681 -0.3418,0.25781 C 136.27894,294.82295 136,294.58383 136,294.42383 c 0,-0.16 -0.99017,-0.26538 -2.20117,-0.23438 -1.21,0.032 -2.00463,-0.062 -1.76563,-0.20898 0.688,-0.425 -0.37811,-0.63431 -2.91211,-0.57031 -1.44777,0.037 -2.24921,-0.10096 -2.19921,-0.37696 0.045,-0.249 -0.60249,-0.44493 -1.52149,-0.46093 -0.88,-0.016 -1.96039,-0.14702 -2.40039,-0.29102 -0.44,-0.144 -1.82894,-0.29498 -3.08594,-0.33398 -1.292,-0.04 -2.18468,-0.23041 -2.05468,-0.44141 0.13177,-0.214 -0.48073,-0.32095 -1.4375,-0.25195 -0.917,0.066 -1.79232,-0.0602 -1.94532,-0.28125 -0.152,-0.221 -0.99695,-0.45454 -1.87695,-0.51954 -0.88,-0.065 -1.77147,-0.28432 -1.98047,-0.48632 -0.209,-0.202 -1.06244,-0.36719 -1.89844,-0.36719 -0.836,0 -1.52148,-0.18039 -1.52148,-0.40039 0,-0.22 -0.73005,-0.39844 -1.62305,-0.39844 -1.192,0 -1.54226,-0.133 -1.32226,-0.5 0.175,-0.291 -0.0141,-0.25017 -0.45313,0.0996 -0.439,0.35 -0.62812,0.39083 -0.45312,0.0996 0.223,-0.371 -0.17588,-0.5 -1.54688,-0.5 -1.093,0 -1.74942,-0.15967 -1.60742,-0.38867 0.14,-0.228 -0.363914,-0.36599 -1.212891,-0.33399 -0.798977,0.03 -1.570797,-0.11807 -1.716797,-0.33007 -0.145,-0.212 -0.710813,-0.41522 -1.257813,-0.44922 -0.546977,-0.035 -1.056812,-0.25047 -1.132812,-0.48047 -0.077,-0.23 -0.844101,-0.41797 -1.705078,-0.41797 -0.886977,0 -1.56836,-0.19427 -1.56836,-0.44727 0,-0.249 -0.351828,-0.35332 -0.798828,-0.23632 C 90.280734,285.05274 90,284.9275 90,284.5625 90,284.1875 89.539024,284 88.623047,284 87.86607,284 87.136,283.81961 87,283.59961 c -0.136,-0.22 -0.675219,-0.40039 -1.199219,-0.40039 -0.523977,0 -1.075609,-0.1965 -1.224609,-0.4375 -0.149,-0.242 -0.789851,-0.36253 -1.423828,-0.26953 C 82.353367,282.61019 82,282.49147 82,282.10547 c 0,-0.387 -0.396804,-0.51864 -1.300781,-0.43164 -0.934977,0.091 -1.266594,-0.0279 -1.183594,-0.42188 0.084,-0.399 -0.21821,-0.49723 -1.117187,-0.36523 -0.678,0.099 -1.342563,0.002 -1.476563,-0.21484 -0.147,-0.238 -0.03766,-0.26661 0.277344,-0.0723 0.345977,0.214 0.427281,0.16828 0.238281,-0.13672 C 77.2805,280.20955 76.738446,280 76.230469,280 c -0.507,0 -1.380476,-0.36078 -1.939453,-0.80078 -1.245977,-0.98 -1.78104,-1.04019 -1.039063,-0.11719 0.302,0.375 -0.126195,0.17474 -0.951172,-0.44726 -0.824977,-0.621 -1.5,-0.99604 -1.5,-0.83204 0,0.163 -0.242109,0.0946 -0.537109,-0.15039 -0.295,-0.245 -0.655804,-0.32664 -0.800781,-0.18164 -0.145,0.145 -0.263672,0.0405 -0.263672,-0.23047 0,-0.312 -0.293851,-0.40023 -0.798828,-0.24023 -0.531,0.169 -0.800782,0.0729 -0.800782,-0.28711 0,-0.298 -0.402578,-0.57237 -0.892578,-0.60937 -0.490977,-0.037 -1.09575,-0.34555 -1.34375,-0.68555 -0.249,-0.34 -0.731219,-0.61719 -1.074219,-0.61719 -0.341977,0 -0.713218,-0.225 -0.824218,-0.5 -0.161,-0.4 -0.207422,-0.4 -0.232422,0 -0.018,0.275 -0.224054,0.5 -0.457031,0.5 -0.233,0 -0.311759,-0.18039 -0.175782,-0.40039 0.136,-0.22 -0.032,-0.40039 -0.375,-0.40039 -0.342977,0 -0.625,-0.18039 -0.625,-0.40039 0,-0.22 -0.133828,-0.35669 -0.298828,-0.30469 -0.488977,0.155 -2.90039,-0.96175 -2.90039,-1.34375 0,-0.193 -0.196523,-0.35156 -0.4375,-0.35156 -0.241,0 -1.004336,-0.40539 -1.695313,-0.90039 -1.855454,-1.32975 -3.554382,-2.15391 -4.287109,-2.15039 z" />
    <path
       id="path1"
       d="m 348.75391,268.40039 c -0.279,0 -0.10252,0.37484 0.39648,0.83984 0.496,0.462 1.00105,0.74106 1.12305,0.61915 0.304,-0.304 -0.89853,-1.45899 -1.51953,-1.45899 z m -293.023441,1.57422 c -0.08216,0.0134 -0.13086,0.0719 -0.13086,0.17969 0,0.085 0.49461,0.47241 1.09961,0.86132 l 1.101562,0.70899 -0.763672,-0.86328 c -0.505491,-0.57225 -1.060172,-0.92703 -1.30664,-0.88672 z M 343.92383,270 c -0.11,0 -0.52583,0.36078 -0.92383,0.80078 -0.398,0.44 -0.96572,0.79883 -1.26172,0.79883 -0.296,0 -0.53906,0.18606 -0.53906,0.41406 0,0.271 0.24408,0.28419 0.70508,0.0371 0.736,-0.393 2.36753,-2.05078 2.01953,-2.05078 z m -7.74805,4.85938 c -0.24587,0.007 -0.79725,0.13481 -1.65625,0.38281 -1.38,0.399 -2.05156,1.02539 -1.10156,1.02539 0.32,0 0.58203,-0.14999 0.58203,-0.33399 0,-0.183 0.31422,-0.33684 0.69922,-0.33984 0.385,-0.003 0.97078,-0.18153 1.30078,-0.39453 0.3625,-0.234 0.42166,-0.34684 0.17578,-0.33984 z M 65.546875,275.2207 c -0.24825,-0.0453 -0.346734,0.058 -0.177734,0.33203 0.12,0.193 0.626,0.45408 1.125,0.58008 0.873991,0.22 0.877897,0.20649 0.128906,-0.35351 -0.43,-0.321 -0.827922,-0.51335 -1.076172,-0.5586 z m -19.134766,10.81836 c -0.027,0.49 1.226688,2.69578 1.804688,3.17578 0.499991,0.415 0.559609,0.3868 0.349609,-0.1582 -0.138,-0.362 -0.423812,-0.65625 -0.632812,-0.65625 -0.21,0 -0.282156,-0.16042 -0.160156,-0.35742 0.121991,-0.197 -0.130509,-0.78278 -0.5625,-1.30078 -0.431,-0.518 -0.790829,-0.83513 -0.798829,-0.70313 z M 352.41406,288 c -0.212,0 -0.59742,0.40539 -0.85742,0.90039 -0.47,0.895 -0.46923,0.89472 0.38477,0.13672 0.953,-0.847 1.04065,-1.03711 0.47265,-1.03711 z m -301.935544,3.62891 c -0.05127,0.032 -0.07813,0.098 -0.07813,0.19921 0,0.424 1.235797,1.46829 1.466797,1.23829 0.124991,-0.126 -0.04963,-0.50666 -0.390626,-0.84766 -0.476241,-0.47625 -0.844258,-0.68594 -0.998046,-0.58984 z M 263.63281,294 c -0.238,0 -0.43359,0.16709 -0.43359,0.37109 0,0.204 -0.31422,0.46222 -0.69922,0.57422 -0.421,0.122 -0.31347,0.17291 0.26953,0.12891 0.935,-0.071 1.74228,-1.07422 0.86328,-1.07422 z m -112.76758,1.83398 c -0.145,0.0179 -0.31456,0.0792 -0.47656,0.18164 -0.323,0.204 -0.49867,0.38821 -0.38867,0.40821 1.75,0.313 2.13578,0.32894 1.80078,0.0723 -0.22,-0.168 -0.49628,-0.42712 -0.61328,-0.57812 -0.058,-0.075 -0.17727,-0.10178 -0.32227,-0.084 z m -91.109371,3.55079 c -0.09663,0.0242 -0.15625,0.0862 -0.15625,0.17968 0,0.186 0.240212,0.53725 0.533203,0.78125 0.403,0.334 0.535157,0.30024 0.535157,-0.13476 0,-0.317 -0.241157,-0.66925 -0.535157,-0.78125 -0.146491,-0.0565 -0.280328,-0.0692 -0.376953,-0.0449 z m 7.251953,4.04492 c -0.089,0.0445 -0.130515,0.13989 -0.103515,0.27539 0.22,1.1 1.896484,2.0687 1.896484,1.0957 0,-0.22 -0.282,-0.40039 -0.625,-0.40039 -0.342991,0 -0.524343,-0.16042 -0.402343,-0.35742 0.121991,-0.197 -0.0451,-0.46289 -0.371094,-0.58789 -0.169,-0.0645 -0.305532,-0.0699 -0.394532,-0.0254 z m 9.697266,4.43945 c -0.0985,0.0485 -0.119126,0.15255 -0.05859,0.31055 0.103,0.268 0.451485,0.48828 0.771485,0.48828 0.844991,0 0.714491,-0.53939 -0.1875,-0.77539 -0.2495,-0.065 -0.426891,-0.0719 -0.525391,-0.0234 z" />
  </g>
</svg>
