<?xml version="1.0" encoding="UTF-8" standalone="no"?>
<svg
   id="svg"
   version="1.1"
   width="400"
   height="400"
   viewBox="0, 0, 400,400"
   sodipodi:docname="filament-color-mask-3.svg"
   inkscape:version="1.3 (0e150ed6c4, 2023-07-21)"
   xmlns:inkscape="http://www.inkscape.org/namespaces/inkscape"
   xmlns:sodipodi="http://sodipodi.sourceforge.net/DTD/sodipodi-0.dtd"
   xmlns="http://www.w3.org/2000/svg"
   xmlns:svg="http://www.w3.org/2000/svg">
  <defs
     id="defs1" />
  <sodipodi:namedview
     id="namedview1"
     pagecolor="#505050"
     bordercolor="#eeeeee"
     borderopacity="1"
     inkscape:showpageshadow="0"
     inkscape:pageopacity="0"
     inkscape:pagecheckerboard="0"
     inkscape:deskcolor="#505050"
     inkscape:zoom="2.9325"
     inkscape:cx="200"
     inkscape:cy="200.34101"
     inkscape:window-width="2560"
     inkscape:window-height="1369"
     inkscape:window-x="1912"
     inkscape:window-y="-8"
     inkscape:window-maximized="1"
     inkscape:current-layer="svg" />
  <g
     id="svgg"
     inkscape:label="svgg">
    <path
       id="path0"
       d="m 345.98828,188.08789 c -0.22212,0.0455 -0.207,0.14102 0.0117,0.29102 0.485,0.331 0.40761,0.41192 -0.40039,0.41992 -0.625,0.006 -1.35436,0.45712 -1.94336,1.20312 -0.518,0.656 -1.08291,1.106 -1.25391,1 -0.172,-0.106 -0.53273,0.0734 -0.80273,0.39844 -0.27,0.325 -0.64875,0.49209 -0.84375,0.37109 -0.195,-0.121 -0.35547,-0.0469 -0.35547,0.16211 0,0.468 -3.12803,1.75852 -3.58203,1.47852 -0.18,-0.112 -0.42588,0.17281 -0.54688,0.63281 -0.12,0.459 -0.39051,0.72866 -0.60351,0.59766 -0.453,-0.281 -3.4245,0.97364 -3.6875,1.55664 -0.099,0.22 -0.49586,0.37951 -0.88086,0.35351 -0.385,-0.026 -0.69922,0.12966 -0.69922,0.34766 0,0.218 -0.30478,0.14966 -0.67578,-0.15234 -0.59,-0.48 -0.64102,-0.46133 -0.41602,0.13867 0.141,0.378 0.0565,0.81189 -0.1875,0.96289 -0.269,0.166 -0.3312,0.0915 -0.1582,-0.1875 0.477,-0.773 -0.65394,-0.51648 -1.58594,0.35937 -0.481,0.452 -1.3544,0.87355 -1.9414,0.93555 -0.586,0.063 -1.262,0.30888 -1.5,0.54688 -0.239,0.239 -0.68138,0.33865 -0.98438,0.22265 -0.318,-0.122 -0.55078,0.0426 -0.55078,0.39258 0,0.408 -0.26078,0.53748 -0.80078,0.39648 -0.44,-0.11485 -0.79883,-0.0476 -0.79883,0.1504 0,0.198 -0.48703,0.40021 -1.08203,0.44921 -0.596,0.049 -1.26247,0.26833 -1.48047,0.48633 -0.219,0.219 -0.81236,0.39844 -1.31836,0.39844 -0.506,0 -0.91992,0.18039 -0.91992,0.40039 0,0.22 -0.45,0.40039 -1,0.40039 -0.55,0 -1,0.17844 -1,0.39844 0,0.22 -0.19083,0.40039 -0.42383,0.40039 -0.233,0 -0.29562,-0.225 -0.14062,-0.5 0.226,-0.4 0.17514,-0.4 -0.25586,0 -0.297,0.275 -0.93778,0.5 -1.42578,0.5 -0.487,0 -0.94749,0.17281 -1.02149,0.38281 -0.073,0.211 -0.79447,0.42647 -1.60547,0.48047 -0.811,0.053 -1.38534,0.24197 -1.27734,0.41797 0.177,0.286 -0.78149,0.47673 -2.14649,0.42773 -0.27185,-0.01 -0.39639,0.14094 -0.27539,0.33594 0.234,0.379 -0.27651,0.48809 -1.72851,0.37109 -0.495,-0.04 -0.89844,0.12047 -0.89844,0.35547 0,0.236 -0.61519,0.42969 -1.36719,0.42969 -0.751,0 -1.426,0.17372 -1.5,0.38672 -0.073,0.213 -0.7632,0.4247 -1.5332,0.4707 -0.77,0.046 -1.59312,0.22539 -1.82812,0.40039 -0.234,0.174 -0.99822,0.36107 -1.69922,0.41407 -0.7,0.054 -1.27344,0.22204 -1.27344,0.37304 0,0.151 -0.80883,0.24785 -1.79883,0.21485 -1.066,-0.035 -1.80178,0.11604 -1.80078,0.37304 0,0.239 -0.75378,0.46496 -1.67578,0.50196 -0.923,0.036 -1.77839,0.20876 -1.90039,0.38476 -0.123,0.177 -0.85305,0.31278 -1.62305,0.30078 -0.78,-0.012 -1.36817,0.1673 -1.32617,0.4043 0.046,0.26 -0.55769,0.37588 -1.55469,0.29688 -0.906,-0.072 -1.905,0.093 -2.25,0.37304 -0.492,0.398 -0.56026,0.39765 -0.32226,0.004 0.167,-0.278 0.10628,-0.5 -0.13672,-0.5 -0.24,0 -0.52196,0.225 -0.62696,0.5 -0.131,0.34 -0.89267,0.45628 -2.38867,0.36328 -2.016,-0.126 -2.99031,0.37033 -1.69531,0.86133 0.275,0.104 -0.72466,0.15142 -2.22266,0.10742 -1.49785,-0.044 -2.81382,0.0661 -2.92382,0.24414 -0.11,0.178 -1.01015,0.32422 -2,0.32422 -1.098,0 -1.70374,0.15639 -1.55274,0.40039 0.273,0.442 -0.34122,0.53355 -2.94922,0.43555 -0.962,-0.036 -2.40122,0.15483 -3.19922,0.42383 -0.799,0.26885 -2.57812,0.4522 -3.95312,0.4082 -1.796,-0.059 -2.5,0.0608 -2.5,0.42578 0,0.38 -0.86218,0.47395 -3.45703,0.37695 -2.477,-0.092 -3.54749,0.0159 -3.77149,0.37891 -0.216,0.349 -1.50462,0.5133 -4.14062,0.5293 -2.105,0.012 -3.82713,0.1259 -3.82813,0.2539 -0.001,0.294 -0.38142,0.31652 -5.98242,0.35352 -3.163,0.02 -4.67853,0.18148 -4.89453,0.52148 -0.231,0.363 -0.31522,0.33558 -0.32422,-0.10742 -0.01,-0.48 -0.0806,-0.4938 -0.34961,-0.0684 -0.268,0.422 -2.56312,0.52414 -11.16797,0.49414 -7.24185,-0.025 -10.91679,0.10272 -11.09179,0.38672 -0.319,0.517 -8.5918,0.45915 -8.5918,-0.0606 0,-0.194 -4.92915,-0.35156 -11,-0.35156 -7.09685,0 -11,-0.14334 -11,-0.40234 0,-0.25 -1.93625,-0.38261 -5.15625,-0.34961 -2.836,0.028 -5.37558,-0.083 -5.64258,-0.24805 -0.267,-0.165 -2.28342,-0.34062 -4.48242,-0.39062 -2.671,-0.061 -4.09869,-0.25504 -4.30469,-0.58789 -0.206,-0.333 -1.21855,-0.47102 -3.06055,-0.41602 -3.68885,0.111 -4.24065,0.059 -3.97265,-0.375 0.13,-0.21 -0.84835,-0.36342 -2.27735,-0.35742 -3.79385,0.015 -4.36867,-0.0431 -4.13867,-0.41406 0.116,-0.188 -1.34509,-0.36363 -3.24609,-0.39063 -1.902,-0.027 -3.64314,-0.23298 -3.86914,-0.45898 -0.225,-0.225 -0.90286,-0.41016 -1.50586,-0.41016 -0.603,0 -1.1935,-0.15756 -1.3125,-0.35156 -0.12,-0.193 -0.99817,-0.26325 -1.95117,-0.15625 -1.292,0.146 -1.90802,0.0217 -2.41602,-0.48633 -0.506,-0.506 -1.19583,-0.64497 -2.67383,-0.54297 -1.095,0.076 -1.99023,0.0219 -1.99023,-0.11914 0,-0.142 -0.29425,-0.37177 -0.65625,-0.50977 -0.573,-0.22 -0.58647,-0.16282 -0.10547,0.45703 0.518,0.669 0.50103,0.6711 -0.29297,-0.006 -0.573,-0.487 -1.29848,-0.6656 -2.27148,-0.5586 -0.995,0.11 -1.50125,-0.0188 -1.65625,-0.42383 -0.161,-0.421 -0.71357,-0.5424 -1.98242,-0.4414 -0.967,0.077 -1.67427,0.005 -1.57227,-0.16016 0.171,-0.278 -1.4035,-0.48008 -2.5625,-0.33008 -0.275,0.036 -0.5,-0.16912 -0.5,-0.45312 0.001,-0.364 -0.59019,-0.49536 -1.99219,-0.44336 -1.097,0.04 -2.09761,-0.0958 -2.22461,-0.30078 -0.127,-0.206 -0.63395,-0.37305 -1.12695,-0.37305 -0.493,0 -1.13855,-0.225 -1.43555,-0.5 -0.431,-0.4 -0.48186,-0.4 -0.25586,0 0.155,0.275 0.0924,0.5 -0.14062,0.5 -0.233,0 -0.42383,-0.18039 -0.42383,-0.40039 0,-0.22 -0.64083,-0.40039 -1.42383,-0.40039 -0.847,0 -1.322779,-0.16239 -1.175779,-0.40039 0.147,-0.238 -0.330749,-0.39844 -1.177734,-0.39844 -0.782985,0 -1.423828,-0.18039 -1.423828,-0.40039 0,-0.22 -0.640843,-0.40039 -1.423828,-0.40039 -0.783,0 -1.323172,-0.16138 -1.201172,-0.35938 0.123,-0.19785 -0.321296,-0.32334 -0.988281,-0.27734 -0.667,0.046 -1.409438,-0.15145 -1.648438,-0.43945 -0.239,-0.288 -0.952938,-0.52344 -1.585938,-0.52344 -0.632985,0 -1.152343,-0.20127 -1.152343,-0.44727 0,-0.24885 -0.351843,-0.35332 -0.798828,-0.23632 -0.439,0.115 -0.894719,0.0533 -1.011719,-0.13672 -0.118,-0.19 -0.459766,-0.25077 -0.759766,-0.13477 -0.300985,0.115 -0.6675,0.0162 -0.8125,-0.21875 -0.145,-0.235 -0.6225,-0.42578 -1.0625,-0.42578 -0.439985,0 -0.690687,-0.18039 -0.554687,-0.40039 0.204,-0.33 -0.879703,-0.52419 -2.054688,-0.36719 -0.141,0.019 -0.366,-0.14042 -0.5,-0.35742 -0.135,-0.216 -0.694155,-0.45716 -1.24414,-0.53516 -0.55,-0.077 -1.093032,-0.26306 -1.207032,-0.41406 -0.115,-0.151 -0.679874,-0.33706 -1.255859,-0.41406 -0.576985,-0.077 -1.298516,-0.34856 -1.603516,-0.60156 -0.304985,-0.253 -1.089155,-0.53877 -1.74414,-0.63477 -0.654,-0.096 -1.144844,-0.377 -1.089844,-0.625 C 73.55528,198.20525 73.240781,198 72.800781,198 c -1.33397,0 -1.383702,-0.0228 -1.929687,-0.92578 -0.432,-0.716 -0.48225,-0.7327 -0.28125,-0.0957 0.231,0.73585 0.204079,0.7406 -0.503906,0.0996 -0.412,-0.37285 -1.149626,-0.67773 -1.640626,-0.67773 -0.578985,0 -0.791515,-0.16475 -0.603515,-0.46875 0.194,-0.315 0.072,-0.38389 -0.375,-0.21289 -0.367,0.141 -0.666016,0.0632 -0.666016,-0.17383 0,-0.237 -0.265858,-0.32812 -0.589843,-0.20312 -0.325,0.124 -0.742735,-0.045 -0.927735,-0.37696 -0.186,-0.331 -0.71003,-0.63201 -1.166015,-0.66601 -0.456,-0.035 -0.750297,-0.26663 -0.654297,-0.51563 0.103,-0.269 -0.200156,-0.41718 -0.744141,-0.36718 -0.504985,0.047 -1.189546,-0.24825 -1.519531,-0.65625 -0.33,-0.407 -0.958438,-0.80286 -1.398438,-0.88086 -0.995985,-0.176 -3.395437,-1.57352 -3.398437,-1.97852 -0.002,-0.165 -0.283968,-0.30078 -0.626953,-0.30078 -0.343,0 -0.511,-0.18039 -0.375,-0.40039 0.135985,-0.22 -0.13361,-0.39844 -0.59961,-0.39844 -0.465985,0 -0.764109,-0.13578 -0.662109,-0.30078 0.101,-0.165 -0.568296,-0.33019 -1.488281,-0.36719 -1.470985,-0.06 -1.766953,0.0817 -2.460938,1.17969 -0.433985,0.686 -1.068203,1.75781 -1.408203,2.38281 -0.339,0.625 -0.733906,1.01705 -0.878906,0.87305 -0.268,-0.268 -0.811688,1.37659 -0.679688,2.05859 0.209,1.087 -0.02689,1.58366 -0.46289,0.97266 -0.344,-0.481 -0.390469,-0.42036 -0.230469,0.30664 0.109,0.499 -0.02674,1.13416 -0.302735,1.41016 -0.636985,0.637 -0.62343,6.35145 0.01563,6.56445 0.242985,0.081 0.355953,0.59081 0.251953,1.13281 -0.109,0.572 7.8e-4,0.98633 0.259765,0.98633 0.246,0 0.445313,0.43103 0.445313,0.95703 0,0.527 0.289578,1.06713 0.642578,1.20313 0.366,0.14 0.543109,0.50375 0.412109,0.84375 -0.126,0.329 -0.0415,0.5957 0.1875,0.5957 0.587,0 1.572517,1.05342 1.269532,1.35742 -0.292,0.291 1.264609,1.84375 1.849609,1.84375 0.216,0 0.520734,0.20694 0.677734,0.46094 0.188,0.303 0.09361,0.36192 -0.27539,0.16992 -0.309,-0.16 -0.203672,-0.0128 0.236328,0.32617 1.56897,1.208 1.81489,1.49533 1.58789,1.86133 -0.125985,0.205 0.0098,0.27897 0.300782,0.16797 0.290985,-0.112 1.201499,0.43108 2.021484,1.20508 0.820985,0.775 1.851016,1.4082 2.291016,1.4082 0.438985,0 0.798828,0.25727 0.798828,0.57227 0,0.315 0.367406,0.62922 0.816406,0.69922 0.449,0.07 0.765172,0.23142 0.701172,0.35742 -0.146,0.288 0.845156,1.21709 1.994141,1.87109 1.07797,0.613 1.419312,0.63645 1.070312,0.0703 -0.146,-0.236 0.113172,-0.19315 0.576172,0.0957 0.462985,0.289 0.841797,0.68204 0.841797,0.87304 0,0.191 0.277234,0.24033 0.615234,0.11133 0.373,-0.143 0.716094,0.037 0.871094,0.45703 0.344,0.932 0.743498,1.16288 3.314453,1.92188 2.616955,0.773 3.832734,1.29486 5.261719,2.25586 0.583985,0.393 1.439405,0.71484 1.90039,0.71484 0.461,0 0.837891,0.18797 0.837891,0.41797 0,0.229 0.225,0.38756 0.5,0.35156 1.360985,-0.177 2.106985,0.0367 1.5,0.42969 -0.468,0.302 -0.356985,0.38953 0.5,0.39453 0.604985,0.003 1.099609,0.14922 1.099609,0.32422 0,0.175 0.675015,0.36297 1.5,0.41797 0.825,0.054 1.559813,0.27142 1.632813,0.48242 0.074,0.21 0.559125,0.38086 1.078125,0.38086 0.519985,0 1.587015,0.37975 2.375,0.84375 0.786985,0.465 1.787671,0.75267 2.222656,0.63867 0.553,-0.145 0.792875,-0.007 0.796875,0.45508 0.005,0.574 0.05853,0.5825 0.394531,0.0625 0.258,-0.4 0.390532,-0.43275 0.394532,-0.0996 0.003,0.275 0.366655,0.5 0.80664,0.5 0.44,0 0.798828,0.18039 0.798828,0.40039 0,0.22 0.439563,0.40039 0.976563,0.40039 0.536985,0 1.088609,0.17844 1.224609,0.39844 0.136,0.22 0.866062,0.40039 1.623047,0.40039 0.756985,0 1.376953,0.18039 1.376953,0.40039 0,0.22 0.808829,0.40039 1.798829,0.40039 0.99,0 1.80078,0.18039 1.80078,0.40039 0,0.22 0.70917,0.39844 1.57617,0.39844 0.867,0 1.69013,0.1842 1.82813,0.4082 0.138,0.223 0.39908,0.31317 0.58008,0.20117 0.181,-0.112 1.02504,0.0295 1.87304,0.31446 0.849,0.285 1.93983,0.48912 2.42383,0.45312 0.485,-0.036 0.84383,0.13391 0.79883,0.37891 -0.05,0.275 0.67992,0.45184 1.91992,0.46484 1.1,0.011 2.52597,0.27885 3.16797,0.5957 0.887,0.437 1.20708,0.45955 1.33008,0.0898 0.113,-0.337 0.49762,-0.23597 1.26562,0.33203 0.817,0.604 1.53386,0.77239 2.75586,0.65039 0.908,-0.091 1.55641,-0.0122 1.44141,0.17383 -0.115,0.187 0.78219,0.33789 1.99219,0.33789 1.20985,0 2.31126,0.18039 2.44726,0.40039 0.136,0.22 1.31605,0.40039 2.62305,0.40039 1.317,0 2.37695,0.17839 2.37695,0.40039 0,0.229 1.20627,0.39844 2.82227,0.39844 1.553,0 2.7359,0.14255 2.6289,0.3164 -0.108,0.174 1.1841,0.36865 2.8711,0.43165 1.687,0.063 3.25065,0.25378 3.47265,0.42578 0.222,0.172 1.66318,0.35239 3.20118,0.40039 1.53685,0.049 2.887,0.23315 3,0.41015 0.11185,0.177 2.27273,0.35263 4.80273,0.39063 2.53,0.037 4.65942,0.23926 4.73242,0.44726 0.075,0.212 2.40993,0.37891 5.30078,0.37891 3.178,0 5.16797,0.15439 5.16797,0.40039 0,0.22 0.19083,0.39844 0.42383,0.39844 0.233,0 0.29372,-0.20694 0.13672,-0.46094 -0.186,-0.301 -0.10739,-0.35244 0.22461,-0.14844 0.279,0.173 5.48169,0.3971 11.56054,0.4961 6.513,0.106 11.11136,0.3365 11.19336,0.5625 0.081,0.224 2.60876,0.36208 6.09961,0.33008 3.446,-0.031 5.86728,-0.20602 5.73828,-0.41602 -0.203,-0.328 10.87481,-0.62339 19.72266,-0.52539 1.815,0.02 3.29883,-0.10434 3.29883,-0.27734 0,-0.173 2.29656,-0.41416 5.10156,-0.53516 2.805,-0.121 7.43316,-0.32227 10.28516,-0.44727 3.40685,-0.149 4.98361,-0.3527 4.59961,-0.5957 -0.393,-0.248 0.36645,-0.38778 2.31445,-0.42578 3.48,-0.067 3.55359,-0.0751 3.93359,-0.45508 0.165,-0.165 1.33843,-0.30078 2.60743,-0.30078 1.26885,0 2.76517,-0.17467 3.32617,-0.38867 0.56,-0.213 2.09611,-0.41999 3.41211,-0.45899 1.317,-0.04 2.29959,-0.22511 2.18359,-0.41211 -0.253,-0.41 0.20358,-0.46446 2.89258,-0.35546 1.138,0.047 2.17522,-0.11157 2.32422,-0.35157 0.147,-0.239 1.25694,-0.43359 2.46679,-0.43359 1.21,0 2.10147,-0.15947 1.98047,-0.35547 -0.12,-0.195 0.39644,-0.27287 1.14844,-0.17187 0.753,0.102 1.78688,-0.0385 2.29688,-0.31446 0.511,-0.275 1.51361,-0.46301 2.23046,-0.41601 0.716,0.046 1.70718,-0.13439 2.20118,-0.40039 0.493,-0.267 1.48031,-0.44739 2.19531,-0.40039 0.723,0.047 1.30078,-0.10857 1.30078,-0.35157 0,-0.24 0.16709,-0.33403 0.37109,-0.20703 0.205,0.126 0.49458,0.0359 0.64258,-0.20312 0.147,-0.238 0.51917,-0.33675 0.82617,-0.21875 0.308,0.118 0.56341,-0.004 0.56641,-0.27344 0.004,-0.309 0.15039,-0.26772 0.40039,0.11328 0.305,0.464 0.46584,0.48656 0.71484,0.10156 0.178,-0.274 0.8084,-0.53889 1.4004,-0.58789 0.59285,-0.049 1.07812,-0.24078 1.07812,-0.42578 0,-0.185 0.18039,-0.22375 0.40039,-0.0879 0.22,0.136 0.40039,0.0534 0.40039,-0.18164 0,-0.278 0.58116,-0.33411 1.66016,-0.16211 1.206,0.193 1.58295,0.13969 1.37695,-0.19531 -0.197,-0.319 0.20845,-0.46094 1.31445,-0.46094 0.88,0 1.71166,-0.18039 1.84766,-0.40039 0.136,-0.22 0.82144,-0.40511 1.52344,-0.41211 0.702,-0.007 1.61815,-0.27189 2.03515,-0.58789 0.417,-0.316 0.93168,-0.46694 1.14453,-0.33594 0.212,0.131 0.51107,0.0361 0.66407,-0.21094 0.153,-0.24685 0.74917,-0.48715 1.32617,-0.53515 0.576,-0.048 0.96247,-0.22935 0.85547,-0.40235 -0.108,-0.17285 0.44356,-0.3164 1.22656,-0.3164 0.869,0 1.42569,-0.195 1.42969,-0.5 0.004,-0.333 0.13653,-0.29844 0.39453,0.10156 0.329,0.509 0.38953,0.489 0.39453,-0.125 0.003,-0.398 0.17867,-0.61633 0.38867,-0.48633 0.211,0.13 1.01983,-0.0314 1.79883,-0.35742 0.78,-0.326 1.42083,-0.4655 1.42383,-0.3125 0.003,0.154 0.13878,0.097 0.30078,-0.12695 0.426,-0.591 2.598,-1.54669 3.25,-1.42969 0.307,0.054 0.70953,-0.13964 0.89453,-0.43164 0.27,-0.426 0.33875,-0.41455 0.34375,0.0586 0.004,0.393 0.21291,0.29322 0.62891,-0.30078 0.424,-0.606 1.03215,-0.88867 1.91015,-0.88867 0.831,0 1.49619,-0.28578 1.86719,-0.80078 0.317,-0.44 0.97961,-0.79883 1.47461,-0.79883 0.495,0 1.54122,-0.36078 2.32422,-0.80078 0.783,-0.44 1.68495,-0.80078 2.00195,-0.80078 1.085,0 4.14013,-1.72822 4.32813,-2.44922 0.125,-0.479 0.46648,-0.66559 1.02148,-0.55859 0.495,0.095 0.99747,-0.11563 1.23047,-0.51563 0.217,-0.372 0.39925,-0.51817 0.40625,-0.32617 0.007,0.192 0.27942,0.12551 0.60742,-0.14649 0.327,-0.27185 0.49796,-0.65265 0.37696,-0.84765 -0.121,-0.195 0.066,-0.35547 0.41601,-0.35547 0.35,0 0.73166,-0.24683 0.84766,-0.54883 0.127,-0.333 0.68411,-0.50926 1.41211,-0.44726 0.884,0.075 1.14528,-0.0442 0.98828,-0.45118 -0.129,-0.337 0.0566,-0.55459 0.47656,-0.55859 0.59,-0.005 0.60275,-0.0615 0.0879,-0.39453 -0.593,-0.383 -0.13656,-0.61127 0.89844,-0.44727 0.165,0.026 0.31403,-0.26734 0.33203,-0.65234 0.018,-0.398 0.11747,-0.49089 0.23047,-0.21289 0.214,0.528 0.46395,0.38486 2.37695,-1.36914 0.529,-0.485 0.96094,-0.77649 0.96094,-0.64649 0,0.13 0.40062,-0.28311 0.89062,-0.91796 0.489,-0.635 1.12697,-1.33555 1.41797,-1.56055 0.29,-0.224 0.55871,-0.80978 0.59571,-1.30078 0.039,-0.515 0.33036,-0.89258 0.69336,-0.89258 0.386,0 0.65989,-0.39716 0.71289,-1.03516 0.047,-0.57 0.44767,-1.54311 0.88867,-2.16211 0.44,-0.619 0.80078,-1.42311 0.80078,-1.78711 0,-0.364 0.18039,-0.55201 0.40039,-0.41601 0.645,0.398 0.51519,-6.40441 -0.13281,-6.94141 -0.307,-0.255 -0.45838,-0.93451 -0.35938,-1.60351 0.098,-0.668 -0.0431,-1.29175 -0.33008,-1.46875 -0.313,-0.193 -0.40042,-0.146 -0.23242,0.125 0.147,0.238 0.1268,0.52095 -0.0449,0.62695 -0.172,0.106 -0.33528,-0.36011 -0.36328,-1.03711 -0.031,-0.765 -0.40519,-1.521 -0.99219,-2 -0.519,-0.423 -0.6757,-0.6338 -0.3457,-0.4668 0.404,0.205 0.35451,0.0243 -0.15234,-0.55468 -0.415,-0.472 -0.91338,-0.76163 -1.10938,-0.64063 -0.196,0.121 -0.33178,0.0736 -0.30078,-0.10742 0.032,-0.182 0.0149,-0.46586 -0.0391,-0.63086 -0.053,-0.165 -0.12044,-0.52197 -0.14844,-0.79297 -0.03,-0.299 -0.83383,-0.54023 -2.04883,-0.61523 -0.7305,-0.045 -1.18998,-0.048 -1.41211,-0.004 z M 52.896484,228.44922 c -0.06737,0.0386 -0.0303,0.16231 0.0957,0.38281 0.262985,0.46 0.223094,0.4728 -0.212891,0.0684 -0.721985,-0.67 -0.809108,-0.64164 -2.080078,0.69336 -0.605,0.635 -1.09961,1.27959 -1.09961,1.43359 0,0.153 -0.388328,0.61439 -0.861328,1.02539 -0.473985,0.411 -0.640093,0.74805 -0.371093,0.74805 0.327985,0 0.281313,0.20791 -0.138672,0.62891 -0.574,0.573 -0.69075,0.896 -0.59375,1.625 0.019,0.141 -0.206015,0.40408 -0.5,0.58593 -0.294,0.182 -0.543688,0.83232 -0.554688,1.44532 -0.011,0.613 -0.255969,1.54336 -0.542969,2.06836 -0.656985,1.199 -0.42064,5.96197 0.31836,6.41797 0.281985,0.175 0.520297,0.47587 0.529297,0.67187 0.009,0.195 0.07548,0.53586 0.146484,0.75586 0.072,0.22 0.186827,0.85039 0.257812,1.40039 0.071,0.55 0.350141,0.95539 0.619141,0.90039 0.27,-0.055 0.46372,0.0342 0.427735,0.19922 -0.166,0.771 0.881405,2.46853 1.40039,2.26953 0.308,-0.118 0.664016,0.0547 0.791016,0.38672 0.167,0.435 0.04373,0.53633 -0.447266,0.36133 -0.374,-0.133 -0.186984,0.15653 0.416016,0.64453 0.602985,0.489 1.290344,0.76905 1.527344,0.62305 0.260985,-0.161 0.378734,0.0266 0.302734,0.47461 -0.073,0.427 0.08405,0.69862 0.373047,0.64062 0.274985,-0.055 0.5,0.17 0.5,0.5 0,0.33 0.271577,0.59961 0.601562,0.59961 0.33,0 0.59961,0.19083 0.59961,0.42383 0,0.233 0.146186,0.3317 0.326171,0.2207 0.18,-0.111 0.580687,0.14817 0.888672,0.57617 0.309,0.429 0.791266,0.7793 1.072266,0.7793 0.282,0 0.511719,0.18039 0.511719,0.40039 0,0.22 0.360781,0.40039 0.800781,0.40039 0.444,0 0.800781,0.26661 0.800781,0.59961 0,0.33 0.26014,0.59961 0.578125,0.59961 0.319,0 1.061391,0.44619 1.650391,0.99219 0.588985,0.545 1.227922,0.89634 1.419922,0.77734 0.193,-0.119 0.351562,0.0737 0.351562,0.42969 0,0.356 0.164188,0.54492 0.367188,0.41992 0.202,-0.125 0.608358,0.0146 0.902343,0.30859 0.295,0.295 0.760204,0.4621 1.033204,0.3711 0.272985,-0.091 0.605281,0.11784 0.738281,0.46484 0.133,0.347 0.388359,0.54069 0.568359,0.42969 0.179,-0.111 0.595782,0.0704 0.925782,0.40039 0.453985,0.454 0.648781,0.47756 0.800781,0.10156 0.159,-0.392 0.205469,-0.39335 0.230469,0.004 0.018,0.275 0.31139,0.5 0.65039,0.5 0.339,0 1.00261,0.36078 1.47461,0.80078 0.471985,0.44 1.185905,0.80078 1.58789,0.80078 0.401,0 1.088391,0.17844 1.525391,0.39844 0.436985,0.22 1.152858,0.58078 1.589843,0.80078 0.437,0.22 1.067391,0.40039 1.400391,0.40039 0.333,0 0.603516,0.18039 0.603516,0.40039 0,0.22 0.282,0.39844 0.625,0.39844 0.346985,0 0.504454,0.19355 0.355469,0.43555 -0.169,0.272 0.08378,0.40546 0.675781,0.35546 1.72097,-0.143 2.21989,-0.0269 1.58789,0.37305 -0.366985,0.232 0.01691,0.34041 1.128907,0.31641 1.066985,-0.024 1.816828,0.17401 2.048828,0.54101 0.202,0.318 0.370047,0.42247 0.373047,0.23047 0.003,-0.192 0.247983,-0.1479 0.542968,0.0977 0.295,0.245 0.655782,0.32664 0.800782,0.18164 0.144985,-0.145 0.261718,-0.0529 0.261718,0.20312 0,0.257 0.324718,0.4668 0.720703,0.4668 0.396,0 0.935234,0.21647 1.199219,0.48047 0.373,0.373 0.480469,0.3605 0.480469,-0.0508 0,-0.425 0.117624,-0.4293 0.599609,-0.0293 0.484,0.401 0.603282,0.38985 0.613282,-0.0527 0.008,-0.368 0.146828,-0.31485 0.423828,0.16015 0.227,0.39 0.582062,0.60357 0.789062,0.47657 0.206,-0.128 0.375,-0.0216 0.375,0.23437 0,0.257 0.264891,0.36409 0.587891,0.24024 0.324,-0.124 0.833766,0.0203 1.134766,0.32031 0.675985,0.676 2.288077,0.91426 3.039062,0.44726 0.384,-0.239 0.470376,-0.20467 0.275391,0.11133 -0.195,0.316 0.164686,0.46094 1.138671,0.46094 0.783,0 1.423829,0.18039 1.423829,0.40039 0,0.22 0.630405,0.40039 1.40039,0.40039 0.769999,0 1.398439,0.18039 1.398439,0.40039 0,0.22 0.54117,0.40039 1.20117,0.40039 0.66,0 1.19922,0.14331 1.19922,0.32031 0,0.177 0.74906,0.36788 1.66406,0.42188 0.915,0.054 1.98305,0.26756 2.37305,0.47656 0.391,0.209 1.17133,0.38086 1.73633,0.38086 0.564,0 1.02734,0.18039 1.02734,0.40039 0,0.22 0.9,0.39844 2,0.39844 1.1,0 2,0.18039 2,0.40039 0,0.22 0.97878,0.40039 2.17578,0.40039 1.197,0 2.2641,0.14245 2.3711,0.31445 0.107,0.173 0.70321,0.28791 1.32421,0.25391 0.621,-0.033 1.48774,0.13595 1.92774,0.37695 0.44,0.24 1.50142,0.47072 2.35742,0.51172 0.855,0.041 1.66383,0.22806 1.79883,0.41406 0.134,0.186 0.78531,0.34833 1.44531,0.36133 0.66,0.013 2.09922,0.14969 3.19922,0.30469 1.1,0.155 2.9,0.38572 4,0.51172 1.1,0.126 2.13292,0.43545 2.29492,0.68945 0.2,0.315 0.29669,0.27033 0.30469,-0.13867 0.009,-0.452 0.092,-0.4741 0.33203,-0.0977 0.216,0.342 1.17219,0.46382 2.99219,0.38282 2.059,-0.091 2.67578,0.008 2.67578,0.42968 0,0.418 0.55984,0.51697 2.33984,0.41797 1.49,-0.083 2.56403,0.0549 2.95703,0.38086 0.427,0.355 1.88877,0.49041 4.75977,0.44141 2.422,-0.042 4.62378,0.12358 5.30078,0.39843 0.669,0.271 2.92661,0.44607 5.34961,0.41407 2.604,-0.034 4.29203,0.10704 4.45703,0.37304 0.178,0.288 3.57196,0.41005 10.38281,0.37305 8.368,-0.045 10.18147,0.0456 10.48047,0.51758 0.311,0.491 0.36219,0.488 0.36719,-0.0117 0.004,-0.366 0.14577,-0.43922 0.38477,-0.19922 0.23,0.23 4.171,0.30069 10,0.17969 6.27985,-0.131 9.6249,-0.0598 9.6289,0.20117 0.003,0.22 0.16724,0.14308 0.36524,-0.16992 0.299,-0.472 2.13086,-0.56163 10.63086,-0.51563 7.91085,0.044 10.22798,-0.0557 10.08398,-0.42968 -0.142,-0.369 1.10593,-0.46535 5.17578,-0.40235 3.339,0.052 5.27395,-0.0618 5.12695,-0.30078 -0.28685,-0.463 0.12287,-0.49678 5.13672,-0.42578 2.16,0.03 3.83752,-0.0896 3.72852,-0.26562 -0.108,-0.176 0.10466,-0.33261 0.47266,-0.34961 4.37685,-0.199 5.50684,-0.32568 5.71484,-0.63868 0.134,-0.202 1.38906,-0.36246 2.78906,-0.35546 1.554,0.007 2.66361,-0.1748 2.84961,-0.4668 0.218,-0.343 0.30936,-0.30986 0.31836,0.11914 0.009,0.463 0.0869,0.48375 0.33789,0.0879 0.205,-0.323 1.37225,-0.54561 3.15625,-0.59961 1.557,-0.047 2.74753,-0.22072 2.64453,-0.38672 -0.183,-0.295 1.90471,-0.50572 3.84571,-0.38672 0.541,0.033 1.10967,-0.14453 1.26367,-0.39453 0.154,-0.249 1.11481,-0.45312 2.13281,-0.45312 1.113,0 1.64398,-0.13113 1.33398,-0.32813 -0.54,-0.342 -0.44171,-0.3609 2.48829,-0.5039 0.77285,-0.038 1.59321,-0.18513 1.82421,-0.32813 0.23,-0.142 1.44232,-0.30056 2.69532,-0.35156 1.252,-0.05 2.27734,-0.24183 2.27734,-0.42383 0,-0.183 0.80883,-0.33203 1.79883,-0.33203 0.99,0 1.80078,-0.17844 1.80078,-0.39844 0,-0.22 0.50314,-0.40039 1.11914,-0.40039 0.616,0 1.29291,-0.17181 1.50391,-0.38281 0.211,-0.211 1.13001,-0.436 2.04101,-0.5 0.912,-0.064 1.57561,-0.25297 1.47461,-0.41797 -0.167,-0.27 0.81272,-0.41425 2.76172,-0.40625 0.385,0.002 0.69922,-0.1547 0.69922,-0.3457 0,-0.191 0.63039,-0.34766 1.40039,-0.34766 0.77,0 1.40039,-0.18039 1.40039,-0.40039 0,-0.22 0.70917,-0.40039 1.57617,-0.40039 0.867,0 1.67302,-0.1557 1.79102,-0.3457 0.118,-0.191 0.64578,-0.26311 1.17578,-0.16211 0.529,0.102 1.08347,-0.012 1.23047,-0.25 0.166,-0.269 0.0315,-0.34332 -0.35352,-0.19532 -0.342,0.131 -0.62109,0.0513 -0.62109,-0.17773 0,-0.229 0.45953,-0.33147 1.01953,-0.23047 0.588,0.107 1.26552,-0.0662 1.60937,-0.41016 0.327,-0.327 0.8596,-0.49118 1.1836,-0.36718 0.338,0.13 0.59075,-0.006 0.59375,-0.31836 0.005,-0.425 0.0869,-0.41455 0.37891,0.0469 0.32285,0.512 0.40423,0.50685 0.61523,-0.041 0.155,-0.406 0.57183,-0.56617 1.17383,-0.45117 0.513,0.098 1.07233,-0.0453 1.24218,-0.32032 0.212,-0.344 0.14616,-0.39878 -0.21484,-0.17578 -0.353,0.218 -0.42751,0.1677 -0.22851,-0.1543 0.162,-0.263 0.64145,-0.37032 1.06445,-0.23632 0.477,0.152 0.84933,0.0279 0.98633,-0.32813 0.157,-0.411 0.69358,-0.5243 1.89843,-0.4043 1.244,0.124 1.52313,0.058 1.07813,-0.25 -0.627,-0.435 -0.32092,-0.57545 0.95508,-0.43945 0.415,0.045 0.88311,-0.125 1.03711,-0.375 0.155,-0.25 0.67329,-0.48353 1.15429,-0.51953 0.55,-0.041 0.79797,-0.26456 0.66797,-0.60156 -0.112,-0.294 -0.0512,-0.43922 0.13477,-0.32422 0.36,0.223 2.44226,-0.61733 2.44726,-0.98633 0.002,-0.12 0.67605,-0.26336 1.49805,-0.31836 0.822,-0.056 1.64131,-0.36164 1.82031,-0.68164 0.178,-0.32 0.56543,-0.58203 0.85743,-0.58203 0.29185,0 0.75334,-0.26961 1.02734,-0.59961 0.274,-0.33 0.81517,-0.59961 1.20117,-0.59961 0.386,0 0.91588,-0.25822 1.17773,-0.57422 0.262,-0.316 1.0054,-0.69003 1.6504,-0.83203 0.64385,-0.142 1.17473,-0.46856 1.17773,-0.72656 0.004,-0.27 0.17053,-0.21319 0.39453,0.13281 0.229,0.355 0.38858,0.40695 0.39258,0.12695 0.003,-0.26 0.37994,-0.59132 0.83594,-0.73632 0.515,-0.164 0.74447,-0.48466 0.60547,-0.84766 -0.124,-0.321 -0.0623,-0.48533 0.13671,-0.36133 0.2,0.123 0.62822,-0.0384 0.94922,-0.35937 0.322,-0.322 0.70933,-0.45964 0.86133,-0.30664 0.153,0.152 0.45297,-0.0369 0.66797,-0.41993 0.214,-0.383 0.66019,-0.69531 0.99219,-0.69531 0.333,0 0.49342,-0.18039 0.35742,-0.40039 -0.136,-0.22 0.0843,-0.40039 0.48828,-0.40039 0.405,0 0.98788,-0.3503 1.29688,-0.7793 0.308,-0.428 0.69537,-0.69475 0.85937,-0.59375 0.164,0.102 0.41464,-0.18095 0.55664,-0.62695 0.142,-0.446 0.3935,-0.72609 0.5625,-0.62109 0.558,0.344 2.10138,-1.03507 1.85938,-1.66407 -0.158,-0.412 -0.0474,-0.5319 0.35156,-0.3789 0.36,0.138 0.6838,-0.0889 0.8418,-0.58789 0.141,-0.445 0.35275,-0.71366 0.46875,-0.59766 0.381,0.381 1.35637,-0.91577 1.23437,-1.64062 -0.066,-0.39 0.0926,-0.668 0.35156,-0.61915 0.259,0.05 0.70138,-0.43326 0.98438,-1.07226 0.282,-0.639 0.68176,-1.05764 0.88476,-0.93164 0.208,0.129 0.2876,-0.3183 0.1836,-1.0293 -0.101,-0.691 -0.0251,-1.25781 0.16992,-1.25781 0.195,0 0.25005,-0.16709 0.12305,-0.37109 -0.126,-0.205 -0.0481,-0.4841 0.17187,-0.6211 0.227,-0.14 0.35964,-1.61167 0.30664,-3.38867 -0.052,-1.727 -0.22953,-3.05608 -0.39453,-2.95508 -0.165,0.101 -0.30078,-0.36606 -0.30078,-1.03906 0,-0.673 -0.18039,-1.22461 -0.40039,-1.22461 -0.22,0 -0.39844,-0.30283 -0.39844,-0.67383 0,-0.371 -0.40539,-1.12101 -0.90039,-1.66601 -0.495,-0.544 -0.66309,-0.8516 -0.37109,-0.6836 0.439,0.255 0.439,0.14977 0,-0.61523 -0.73,-1.27 -1.92855,-2.59272 -1.93555,-2.13672 -0.003,0.206 -0.23272,-0.075 -0.51172,-0.625 -0.343,-0.678 -0.84641,-1.00558 -1.56641,-1.01758 -0.58385,-0.01 -0.98081,0.11149 -0.88281,0.27149 0.099,0.16 -0.004,0.40496 -0.22656,0.54296 -0.224,0.138 -0.40625,0.0772 -0.40625,-0.13476 0,-0.212 -0.37498,-0.28797 -0.83398,-0.16797 -0.634,0.166 -0.70679,0.29769 -0.30079,0.55469 0.388,0.246 0.28877,0.35548 -0.36523,0.39648 -1.743,0.109 -1.9007,0.18038 -1.8457,0.85938 0.03,0.378 -0.0896,0.59828 -0.26758,0.48828 -0.177,-0.11 -0.60708,0.0836 -0.95508,0.43164 -0.347,0.348 -0.63086,0.49322 -0.63086,0.32422 0,-0.17 -0.20222,-0.10638 -0.44922,0.14062 -0.247,0.247 -0.7274,0.34289 -1.0664,0.21289 -0.405,-0.156 -0.51813,-0.0765 -0.32813,0.23047 0.174,0.281 0.04,0.4668 -0.33398,0.4668 -0.343,0 -0.62305,0.19083 -0.62305,0.42383 0,0.233 -0.18039,0.31373 -0.40039,0.17773 -0.22,-0.136 -0.40039,-0.0733 -0.40039,0.13867 0,0.212 -0.35883,0.29078 -0.79883,0.17578 -0.44,-0.115 -0.80078,-0.0229 -0.80078,0.20508 0,0.228 -0.9,0.82136 -2,1.31836 -1.1,0.497 -2,1.01249 -2,1.14649 0,0.134 -0.38828,0.27454 -0.86328,0.31054 -0.475,0.036 -0.99335,0.2733 -1.15235,0.5293 -0.209,0.339 -0.3459,0.3182 -0.5039,-0.0801 -0.154,-0.387 -0.22605,-0.4002 -0.24805,-0.0449 -0.018,0.275 -0.35119,0.5 -0.74219,0.5 -0.391,0 -1.01948,0.36078 -1.39648,0.80078 -0.377,0.44 -1.10138,0.79883 -1.60938,0.79883 -0.508,0 -1.09754,0.17372 -1.31054,0.38672 -0.212,0.212 -0.96769,0.43133 -1.67969,0.48633 -0.711,0.054 -1.29297,0.23911 -1.29297,0.41211 0,0.173 -0.36078,0.31445 -0.80078,0.31445 -0.44,0 -0.80078,0.18039 -0.80078,0.40039 0,0.22 -0.35883,0.40039 -0.79883,0.40039 -0.44,0 -0.80078,0.17567 -0.80078,0.38867 0,0.213 -0.85539,0.34683 -1.90039,0.29883 -1.436,-0.067 -1.86925,0.0469 -1.78125,0.46289 0.08,0.376 -0.14317,0.48289 -0.70117,0.33789 -0.579,-0.152 -0.81827,-0.0198 -0.82227,0.44922 -0.005,0.578 -0.0616,0.5855 -0.43164,0.0625 -0.287,-0.407 -0.48528,-0.45358 -0.61328,-0.14258 -0.103,0.251 -0.51883,0.37163 -0.92383,0.26563 -0.405,-0.106 -0.85705,0.003 -1.0039,0.24218 -0.148,0.239 -0.61793,0.43555 -1.04493,0.43555 -0.427,0 -0.77734,0.19083 -0.77734,0.42383 0,0.233 -0.18039,0.31178 -0.40039,0.17578 -0.22,-0.136 -0.4013,0.0786 -0.4043,0.47656 -0.004,0.489 -0.1065,0.56524 -0.3125,0.24024 -0.436,-0.684 -2.08089,-0.47342 -2.08789,0.26758 -0.005,0.498 -0.0716,0.5107 -0.34961,0.0723 -0.256,-0.403 -0.41976,-0.4207 -0.63476,-0.0723 -0.16,0.258 -0.53689,0.37476 -0.83789,0.25976 -0.301,-0.116 -1.04816,0.0492 -1.66016,0.36719 -0.611,0.318 -1.44933,0.47084 -1.86133,0.33984 -0.49,-0.155 -0.65556,-0.0839 -0.47656,0.20508 0.267,0.433 -0.70083,0.62694 -2.29883,0.46094 -0.398,-0.042 -1.01795,0.16212 -1.37695,0.45312 -0.555,0.45 -0.59983,0.44055 -0.29883,-0.0703 0.288,-0.489 0.24467,-0.513 -0.23633,-0.125 -0.324,0.262 -1.09394,0.56769 -1.71094,0.67969 -0.617,0.112 -1.33189,0.36364 -1.58789,0.55664 -0.256,0.193 -1.04867,0.29361 -1.76367,0.22461 -0.715,-0.069 -1.30078,0.0525 -1.30078,0.26953 0,0.217 -0.70917,0.39453 -1.57617,0.39453 -0.867,0 -1.68822,0.18039 -1.82422,0.40039 -0.136,0.22 -1.12522,0.39844 -2.19922,0.39844 -1.074,0 -2.06517,0.18039 -2.20117,0.40039 -0.136,0.22 -1.1216,0.40039 -2.18945,0.40039 -1.069,0 -2.00218,0.16705 -2.07618,0.37305 -0.073,0.206 -1.1847,0.431 -2.4707,0.5 -1.286,0.069 -2.42339,0.26273 -2.52539,0.42773 -0.102,0.165 -1.08359,0.29883 -2.18359,0.29883 -1.494,0 -1.92518,0.127 -1.70118,0.5 0.175,0.291 -0.0141,0.25025 -0.45312,-0.0996 -0.439,-0.35 -0.62813,-0.39075 -0.45313,-0.0996 0.225,0.374 -0.216,0.5 -1.75,0.5 -1.12685,0 -2.37162,0.17181 -2.76562,0.38281 -0.393,0.211 -2.18166,0.41513 -3.97266,0.45313 -1.792,0.038 -3.25781,0.22501 -3.25781,0.41601 0,0.191 -1.53039,0.34766 -3.40039,0.34766 -2,0 -3.40039,0.16539 -3.40039,0.40039 0,0.232 -1.30614,0.40039 -3.11914,0.40039 -1.716,0 -3.29481,0.17372 -3.50781,0.38672 -0.212,0.212 -3.12943,0.40759 -6.48243,0.43359 -3.35185,0.027 -5.99976,0.20168 -5.88476,0.38868 0.216,0.349 -11.47063,0.71668 -29.48633,0.92968 -5.72385,0.067 -10.18445,-0.0336 -10.06445,-0.22656 0.117,-0.19 -2.90771,-0.3315 -6.72071,-0.3125 -10.6927,0.051 -11.2024,0.0343 -10.9414,-0.38867 0.152,-0.246 -2.0018,-0.38967 -5.8418,-0.38867 -3.656,0.002 -6.24905,-0.16116 -6.49805,-0.41016 -0.227,-0.227 -1.72603,-0.41211 -3.33203,-0.41211 -2.06585,0 -2.92178,-0.146 -2.92578,-0.5 -0.004,-0.333 -0.13653,-0.30025 -0.39453,0.0996 -0.258,0.4 -0.39053,0.43275 -0.39453,0.0996 -0.004,-0.361 -0.96069,-0.5 -3.42969,-0.5 -2.18,0 -3.33278,-0.14539 -3.17578,-0.40039 0.158,-0.255 -1.00517,-0.40039 -3.20117,-0.40039 -1.896,0 -3.35233,-0.15299 -3.23633,-0.33984 0.115,-0.187 -1.08988,-0.37588 -2.67773,-0.42188 -1.587,-0.045 -2.94458,-0.25098 -3.01758,-0.45898 -0.074,-0.208 -1.01861,-0.37891 -2.09961,-0.37891 -1.082,0 -1.96875,-0.18039 -1.96875,-0.40039 0,-0.222 -1.06544,-0.39844 -2.39844,-0.39844 -1.444,0 -2.40039,-0.17264 -2.40039,-0.43164 0,-0.263 -0.77691,-0.38726 -2.00391,-0.32226 -1.15685,0.061 -2.20351,-0.0941 -2.47851,-0.36915 -0.262,-0.262 -1.24083,-0.47851 -2.17383,-0.47851 -0.933,0 -1.81212,-0.18606 -1.95312,-0.41406 -0.141,-0.228 -0.94602,-0.37227 -1.79102,-0.32227 -0.844,0.05 -1.77341,-0.0924 -2.06641,-0.31445 -0.293,-0.222 -1.05536,-0.43671 -1.69336,-0.47656 -0.63685,-0.04 -1.35661,-0.22135 -1.59961,-0.40235 -0.24185,-0.181 -0.80023,-0.35758 -1.24023,-0.39258 -1.26,-0.102 -1.95977,-0.27318 -2.50977,-0.61718 -0.27985,-0.175 -1.18,-0.26999 -2,-0.20899 -0.98085,0.072 -1.45853,-0.0513 -1.39453,-0.36133 0.063,-0.303 -0.32975,-0.42298 -1.09375,-0.33398 -0.67594,0.079 -1.389481,-0.0982 -1.646481,-0.4082 -0.249985,-0.301 -0.656297,-0.54402 -0.904297,-0.54102 -0.247985,0.003 -0.181562,0.18153 0.148438,0.39453 0.33,0.213 0.415453,0.38958 0.189453,0.39258 -0.226,0.003 -0.788047,-0.25808 -1.248047,-0.58008 -0.460985,-0.322 -0.949905,-0.47103 -1.08789,-0.33203 -0.139,0.139 -0.253907,0.0184 -0.253907,-0.26758 0,-0.371 -0.403951,-0.45211 -1.419921,-0.28711 -1.057985,0.172 -1.482265,0.0731 -1.65625,-0.38086 -0.136,-0.355 -0.539859,-0.52897 -0.964844,-0.41797 -0.418,0.109 -0.694517,-0.008 -0.644532,-0.26953 0.052,-0.278 -0.426905,-0.43443 -1.21289,-0.39843 -0.713985,0.032 -1.197172,-0.10379 -1.076172,-0.30079 0.222,-0.358 -0.588609,-0.5169 -1.933594,-0.3789 -0.389985,0.04 -0.659609,-0.15464 -0.599609,-0.43164 0.07,-0.324 -0.392031,-0.52174 -1.291016,-0.55274 -2.09297,-0.071 -4.4225,-0.63853 -4.1875,-1.01953 0.114,-0.184 -0.146125,-0.26659 -0.578125,-0.18359 -0.430985,0.083 -0.996827,-0.10492 -1.257812,-0.41992 -0.261,-0.315 -0.892359,-0.57227 -1.402344,-0.57227 -0.509985,0 -1.039781,-0.18039 -1.175781,-0.40039 -0.136,-0.22 -0.580296,-0.40039 -0.988281,-0.40039 -0.409,0 -0.834313,-0.225 -0.945313,-0.5 -0.14,-0.347 -0.212375,-0.3186 -0.234375,0.0898 -0.022,0.406 -0.225297,0.31122 -0.654297,-0.30078 -0.361,-0.516 -1.042047,-0.88867 -1.623047,-0.88867 -0.550985,0 -0.91364,-0.14145 -0.80664,-0.31445 0.107,-0.173 -0.153187,-0.34863 -0.576172,-0.39063 -1.730985,-0.171 -1.970703,-0.24351 -1.970703,-0.60351 0,-0.207 -0.265844,-0.27539 -0.589844,-0.15039 -0.325,0.124 -0.730391,-0.0212 -0.900391,-0.32422 -0.171,-0.303 -0.580156,-0.61255 -0.910156,-0.68555 -0.33,-0.072 -0.915796,-0.47458 -1.300781,-0.89258 C 64.314275,234.21715 64,234.09152 64,234.35352 c 0,0.263 -0.401546,0.10353 -0.894531,-0.35547 -0.592,-0.551 -0.947735,-0.67047 -1.052735,-0.35547 -0.098,0.292 -0.463406,0.10358 -0.941406,-0.48242 -0.429985,-0.528 -0.645454,-0.70458 -0.480469,-0.39258 0.193,0.365 -0.07495,0.29478 -0.751953,-0.19922 -0.578985,-0.422 -1.060406,-1.01255 -1.066406,-1.31055 -0.009,-0.387 -0.330296,-0.47106 -1.113281,-0.28906 -0.717,0.166 -0.910641,0.12858 -0.556641,-0.10742 0.657985,-0.439 0.137266,-0.83127 -1.261719,-0.94727 -0.544985,-0.045 -0.913359,-0.28325 -0.818359,-0.53125 0.095,-0.247 -0.0607,-0.45775 -0.345703,-0.46875 -0.284,-0.01 -0.862218,-0.16098 -1.283203,-0.33398 -0.2975,-0.123 -0.469735,-0.16949 -0.53711,-0.13086 z m -0.916015,40.09961 c -0.24425,10e-4 -0.38086,0.096 -0.38086,0.29297 0,0.217 -0.311406,0.33939 -0.691406,0.27539 -0.379985,-0.065 -0.710375,0.0632 -0.734375,0.2832 -0.095,0.88 -0.677625,1.78322 -1.015625,1.57422 -0.197,-0.122 -0.357422,0.0698 -0.357422,0.42578 0,0.357 -0.192734,0.52881 -0.427734,0.38281 -0.234,-0.145 -0.378359,-0.0197 -0.318359,0.27735 0.059,0.297 -0.23811,1.16945 -0.66211,1.93945 -0.897985,1.632 -1.160688,4.423 -0.470703,5 0.636985,0.533 0.61189,2.71591 -0.03711,3.12891 -0.738,0.471 -0.489126,3.47718 0.380859,4.61718 0.398,0.521 0.625859,1.10679 0.505859,1.30079 -0.12,0.19385 -0.04026,0.35351 0.177735,0.35351 0.397985,0 1.078687,1.53661 0.929687,2.09961 -0.043,0.165 0.0557,0.27991 0.220703,0.25391 1.034985,-0.164 1.493376,0.0623 0.900391,0.44531 -0.507985,0.328 -0.488079,0.38953 0.128906,0.39453 0.809985,0.007 1.871094,0.9098 1.871094,1.5918 0,0.662 2.757688,3.28834 3.179688,3.02734 0.200985,-0.124 0.495311,-0.0148 0.654296,0.24219 0.181,0.293 0.116125,0.36159 -0.171875,0.18359 -0.253985,-0.157 -0.46289,-0.0829 -0.46289,0.16406 0,0.246 0.405405,0.39127 0.90039,0.32227 0.555,-0.077 0.862782,0.066 0.800782,0.375 -0.055,0.275 0.180437,0.5 0.523437,0.5 0.37,0 0.507891,0.18789 0.337891,0.46289 -0.195,0.315 -0.02013,0.39214 0.546875,0.24414 0.614985,-0.161 0.773407,-0.0648 0.607422,0.36719 -0.136,0.354 -0.0059,0.55381 0.330078,0.50781 0.930985,-0.13 1.556812,0.002 1.507812,0.31836 -0.14,0.884 0.129718,1.29883 0.845703,1.29883 0.44,0 0.800782,0.18039 0.800782,0.40039 0,0.22 0.583828,0.40325 1.298828,0.40625 0.985985,0.005 1.156157,0.10053 0.701172,0.39453 -0.483,0.312 -0.418767,0.38953 0.324218,0.39453 0.595,0.004 0.820719,0.1688 0.636719,0.4668 -0.181,0.292 -0.108687,0.35401 0.195313,0.16601 0.262985,-0.163 0.774733,-0.0557 1.136718,0.23829 0.459,0.371 0.570267,0.3825 0.363282,0.0391 -0.202,-0.337 -0.09969,-0.42077 0.320312,-0.25977 0.34,0.131 0.51847,0.40066 0.396485,0.59766 -0.122,0.197 0.05934,0.35742 0.402343,0.35742 0.343,0 0.625,0.15952 0.625,0.35352 0,0.393 1.433859,0.94517 2.464844,0.95117 0.433,0.002 0.584626,0.21823 0.431641,0.61523 -0.157,0.409 -0.07405,0.51255 0.251953,0.31055 0.266985,-0.165 0.739781,-0.0881 1.050781,0.16992 0.311,0.258 0.781922,0.33488 1.044922,0.17188 0.304,-0.188 0.374359,-0.12599 0.193359,0.16601 -0.254985,0.413 0.223515,0.64081 1.0625,0.50781 0.165,-0.026 0.298828,0.13352 0.298828,0.35352 0,0.22 0.282015,0.40039 0.625,0.40039 0.343,0 0.512892,-0.17753 0.378907,-0.39453 -0.318,-0.514 1.034749,-0.01 1.677734,0.625 0.264,0.261 0.368422,0.5847 0.232422,0.7207 -0.136,0.137 0.513374,0.24805 1.443359,0.24805 0.929985,0 1.604,0.13764 1.5,0.30664 -0.104,0.168 0.245359,0.51267 0.777344,0.76367 0.728985,0.344 0.898453,0.34385 0.689453,-0.008 -0.153,-0.255 0.02553,-0.21755 0.394531,0.082 0.37,0.299 0.963313,0.43192 1.320313,0.29492 0.466985,-0.179 0.584954,-0.0785 0.417969,0.35547 -0.174,0.454 0.05764,0.60547 0.93164,0.60547 0.64,0 1.27611,0.18039 1.41211,0.40039 0.135985,0.22 0.78728,0.40039 1.447265,0.40039 0.66,0 1.100516,0.16042 0.978516,0.35742 -0.122,0.197 0.451405,0.45713 1.27539,0.57813 2.98997,0.437 4.097516,0.76398 4.103516,1.20898 0.003,0.25 0.181546,0.18547 0.394531,-0.14453 0.303,-0.468 0.389532,-0.48155 0.394532,-0.0547 0.004,0.354 0.296078,0.47103 0.830078,0.33203 0.519985,-0.13585 0.911655,0.007 1.05664,0.38672 0.188,0.49 0.293219,0.5018 0.574219,0.0684 0.219,-0.34 0.453546,-0.38781 0.644531,-0.13281 0.165,0.22 0.659596,0.46111 1.099611,0.53711 0.44,0.075 0.86059,0.3 0.93359,0.5 0.074,0.199 0.83822,0.36328 1.69922,0.36328 0.862,0 1.56836,0.18606 1.56836,0.41406 0,0.227 0.4927,0.34563 1.0957,0.26563 0.602,-0.081 1.33396,0.0937 1.62696,0.38672 0.293,0.293 1.24047,0.5332 2.10547,0.5332 0.86385,0 1.57226,0.18039 1.57226,0.40039 0,0.22 0.80883,0.39844 1.79883,0.39844 0.99,0 1.80078,0.14336 1.80078,0.31836 0,0.175 0.66547,0.36297 1.48047,0.41797 0.814,0.055 1.67511,0.26198 1.91211,0.45898 0.237,0.197 1.37153,0.40013 2.51953,0.45313 1.149,0.052 2.08789,0.20865 2.08789,0.34765 0,0.138 0.88861,0.23103 1.97461,0.20703 1.097,-0.025 1.875,0.11636 1.75,0.31836 -0.127,0.205 0.147,0.24785 0.625,0.0957 0.471,-0.15 0.84961,-0.0959 0.84961,0.12109 0,0.215 0.82789,0.37828 1.83789,0.36328 1.01,-0.015 1.967,0.1805 2.125,0.4375 0.184,0.298 1.17738,0.4218 2.74023,0.3418 1.348,-0.07 2.37039,-7e-4 2.27539,0.1543 -0.096,0.15485 0.10532,0.38853 0.44532,0.51953 0.42,0.161 0.52231,0.0772 0.32031,-0.25977 -0.23,-0.382 -0.1657,-0.3873 0.2793,-0.0293 0.32,0.257 1.60095,0.42591 2.87695,0.37891 1.756,-0.064 2.30078,0.0485 2.30078,0.48047 0,0.448 0.57783,0.5342 2.79883,0.4082 1.54,-0.087 2.80078,-0.0291 2.80078,0.12891 0,0.268 1.42054,0.37394 12.90039,0.96679 2.365,0.122 4.29883,0.39166 4.29883,0.59766 0,0.219 2.97678,0.375 7.17578,0.375 4.353,0 7.27383,0.15544 7.42383,0.39844 0.159,0.258 7.19693,0.40039 19.80078,0.40039 12.60385,0 19.64178,-0.14239 19.80078,-0.40039 0.15,-0.243 3.07083,-0.39844 7.42383,-0.39844 4.51685,0 7.17578,-0.14839 7.17578,-0.40039 0,-0.242 1.72219,-0.40039 4.36719,-0.40039 2.401,0 4.426,-0.17186 4.5,-0.38086 0.073,-0.209 1.8882,-0.41022 4.0332,-0.44922 2.145,-0.039 3.89844,-0.20895 3.89844,-0.37695 0,-0.167 1.47058,-0.2107 3.26758,-0.0957 2.49685,0.159 3.37017,0.0782 3.70117,-0.34375 0.288,-0.368 1.291,-0.55274 3,-0.55274 1.428,0 2.62708,-0.18497 2.70508,-0.41797 0.082,-0.246 1.03803,-0.36034 2.33203,-0.27734 1.652,0.105 2.19531,0.006 2.19531,-0.4043 0,-0.421 0.64433,-0.51144 2.86133,-0.39844 1.977,0.101 2.95501,-0.006 3.16601,-0.34765 0.168,-0.272 1.02721,-0.53403 1.90821,-0.58203 0.881,-0.048 1.84081,-0.23602 2.13281,-0.41602 0.293,-0.181 1.03439,-0.27594 1.65039,-0.21094 0.616,0.065 1.37645,-0.0935 1.68945,-0.35351 0.313,-0.259 1.24908,-0.47266 2.08008,-0.47266 0.831,0.001 1.60571,-0.15094 1.72071,-0.33594 0.11485,-0.185 1.14882,-0.37864 2.29882,-0.43164 1.15,-0.052 2.0918,-0.24382 2.0918,-0.42382 0,-0.181 0.55161,-0.32813 1.22461,-0.32813 0.704,0 1.11951,-0.16753 0.97851,-0.39453 -0.13985,-0.227 0.019,-0.2942 0.375,-0.1582 0.342,0.131 0.6211,0.0712 0.6211,-0.13477 0,-0.205 0.54117,-0.29412 1.20117,-0.19727 0.72,0.105 1.19922,-0.003 1.19922,-0.27148 0,-0.251 0.68336,-0.44336 1.56836,-0.44336 0.874,0 1.63751,-0.21628 1.72851,-0.48828 0.097,-0.291 0.75468,-0.44572 1.63868,-0.38672 0.942,0.064 1.55554,-0.0945 1.68554,-0.43555 0.119,-0.31 0.70458,-0.50012 1.39258,-0.45312 0.653,0.045 1.28911,-0.0793 1.41211,-0.27734 0.122,-0.198 0.64034,-0.35938 1.15234,-0.35938 0.512,0 1.42354,-0.25636 2.02539,-0.56836 0.603,-0.313 1.37294,-0.46203 1.71094,-0.33203 0.404,0.155 0.51813,0.0746 0.32813,-0.23242 -0.2,-0.324 0.14976,-0.4668 1.13476,-0.4668 0.783,0 1.42383,-0.18039 1.42383,-0.40039 0,-0.22 0.58383,-0.40325 1.29883,-0.40625 0.986,-0.005 1.15617,-0.10053 0.70117,-0.39453 -0.623,-0.402 -0.31194,-0.54397 0.91406,-0.41797 0.842,0.087 3.08594,-0.8433 3.08594,-1.2793 0,-0.166 0.6598,-0.30273 1.4668,-0.30273 0.806,0 1.34617,-0.11867 1.20117,-0.26367 -0.433,-0.433 1.21178,-1.35603 1.92578,-1.08203 0.924,0.355 2.79428,-0.67316 2.11328,-1.16016 -0.344,-0.246 -0.21642,-0.30002 0.39258,-0.16602 0.495,0.108 0.90039,0.0434 0.90039,-0.14257 0,-0.187 0.35883,-0.27055 0.79883,-0.18555 0.495,0.095 0.80078,-0.0612 0.80078,-0.41016 0,-0.338 0.24061,-0.47098 0.59961,-0.33398 0.33,0.127 0.59961,0.0111 0.59961,-0.25586 0,-0.267 0.25827,-0.38758 0.57227,-0.26758 0.31385,0.121 0.78582,-0.0385 1.04882,-0.35547 0.263,-0.317 0.72821,-0.57617 1.03321,-0.57617 0.954,0 4.22782,-1.70266 3.79297,-1.97266 -0.244,-0.151 -0.0768,-0.46748 0.41015,-0.77148 0.454,-0.284 0.70655,-0.3225 0.56055,-0.0859 -0.146,0.237 -0.0748,0.42969 0.1582,0.42969 0.233,0 0.42383,-0.18039 0.42383,-0.40039 0,-0.22 0.37122,-0.40039 0.82422,-0.40039 0.453,0 0.71217,-0.17844 0.57617,-0.39844 -0.136,-0.22 -0.0391,-0.40039 0.21289,-0.40039 0.253,0 0.81691,-0.40539 1.25391,-0.90039 0.437,-0.495 0.68101,-0.67539 0.54101,-0.40039 -0.14,0.275 -0.065,0.5 0.16797,0.5 0.233,0 0.42383,-0.15089 0.42383,-0.33789 0,-0.724 1.53809,-2.0625 2.37109,-2.0625 0.482,0 0.76491,-0.17844 0.62891,-0.39844 -0.136,-0.22 0.0786,-0.40325 0.47656,-0.40625 0.457,-0.004 0.55558,-0.11578 0.26758,-0.30078 -0.333,-0.215 -0.31455,-0.42525 0.0703,-0.78125 0.414,-0.385 0.56861,-0.385 0.72461,0 0.109,0.269 0.21152,0.16367 0.22852,-0.23633 0.018,-0.398 0.21359,-0.61256 0.43359,-0.47656 0.22,0.136 0.39844,-0.12789 0.39844,-0.58789 0,-0.46 0.31617,-0.95275 0.70117,-1.09375 0.385,-0.142 0.84353,-0.49511 1.01953,-0.78711 0.176,-0.291 0.59183,-0.53125 0.92383,-0.53125 0.333,0 0.49147,-0.18039 0.35547,-0.40039 -0.136,-0.22 0.0786,-0.41364 0.47656,-0.43164 0.4,-0.017 0.50533,-0.11952 0.23633,-0.22852 -0.516,-0.209 -0.39973,-0.41864 1.20312,-2.18164 0.393,-0.433 0.61991,-0.93995 0.50391,-1.12695 -0.116,-0.187 0.0559,-0.56008 0.38086,-0.83008 0.325,-0.27 0.50539,-0.63078 0.40039,-0.80078 -0.105,-0.17 0.0773,-0.53088 0.4043,-0.80273 0.74,-0.614 0.81745,-3.59766 0.0937,-3.59766 -0.364,0 -0.4836,-0.80144 -0.4336,-2.89844 0.059,-2.469 -0.0608,-3.04323 -0.79882,-3.86523 -0.486,-0.541 -0.60263,-0.83478 -0.26563,-0.66993 0.371,0.182 0.33455,0.0766 -0.0937,-0.27539 -0.381,-0.313 -0.57659,-0.68607 -0.43359,-0.83007 0.143,-0.143 0.0509,-0.25977 -0.20508,-0.25977 -0.257,0 -0.44788,-0.13578 -0.42188,-0.30078 0.155,-0.982 -0.13509,-1.75919 -0.74609,-1.99219 -0.385,-0.147 -1.05052,-0.59323 -1.47852,-0.99023 -0.79185,-0.736 -2.15145,-0.63002 -2.68945,0.20898 -0.237,0.369 -0.64652,0.48614 -2.60937,0.74414 -0.263,0.035 -0.44339,0.22864 -0.40039,0.43164 0.115,0.544 -1.82946,1.926 -2.81446,2 -0.468,0.035 -0.77659,0.18885 -0.68359,0.33985 0.246,0.397 -1.01649,0.81004 -1.52149,0.49804 -0.251,-0.155 -0.30862,-0.0747 -0.14062,0.19727 0.187,0.303 -0.0673,0.46289 -0.73828,0.46289 -0.651,0 -1.02344,0.22138 -1.02344,0.60938 0,0.35785 -0.49717,0.71056 -1.20117,0.85156 -0.66,0.132 -1.19922,0.3864 -1.19922,0.5664 0,0.18 -0.34558,0.25874 -0.76758,0.17774 -0.423,-0.081 -0.86733,0.10601 -0.98633,0.41601 -0.121,0.314 -0.48903,0.46013 -0.83203,0.32813 -0.413,-0.158 -0.62448,0.01 -0.64648,0.50781 -0.022,0.518 -0.097,0.57264 -0.25196,0.18164 -0.16185,-0.41 -0.3649,-0.30161 -0.7539,0.40039 -0.484,0.873 -0.53555,0.88716 -0.56055,0.16016 -0.025,-0.747 -0.0607,-0.75347 -0.55273,-0.10547 -0.29,0.381 -0.62133,0.59937 -0.73633,0.48437 -0.294,-0.29385 -2.3125,0.67338 -2.3125,1.10938 0,0.197 -0.18039,0.24928 -0.40039,0.11328 -0.22,-0.136 -0.39844,-0.0819 -0.39844,0.1211 0,0.20185 -0.42912,0.28554 -0.95312,0.18554 -0.524,-0.1 -1.07561,0.0139 -1.22461,0.25391 -0.148,0.241 -0.71953,0.43945 -1.26953,0.43945 -0.565,0 -0.89391,0.17244 -0.75391,0.39844 0.262,0.424 -0.17383,0.52873 -1.79883,0.42773 -0.724,-0.045 -0.85003,0.0387 -0.45703,0.30469 0.717,0.486 0.19175,0.69616 -1.65625,0.66016 -1.041,-0.021 -1.45227,0.12193 -1.32227,0.46093 0.123,0.321 -0.1062,0.43608 -0.6582,0.33008 -0.466,-0.09 -1.10973,0.0514 -1.42773,0.31641 -0.319,0.264 -1.09652,0.42833 -1.72852,0.36133 -0.633,-0.066 -1.15039,0.0716 -1.15039,0.30859 0,0.236 -0.55161,0.43164 -1.22461,0.43164 -0.713,0 -1.12056,0.16544 -0.97656,0.39844 0.211,0.341 -1.48203,0.60178 -1.95703,0.30078 -0.087,-0.055 -0.50283,0.2108 -0.92383,0.5918 -0.424,0.384 -1.15739,0.61648 -1.65039,0.52148 -0.489,-0.094 -0.79569,-0.019 -0.67969,0.16797 0.116,0.188 -0.6425,0.43478 -1.6875,0.55078 -2.879,0.318 -4.5,0.72028 -4.5,1.11328 0,0.195 -0.64373,0.35547 -1.42773,0.35547 -0.785,0 -1.74482,0.16895 -2.13282,0.37695 -0.389,0.208 -1.53578,0.42161 -2.55078,0.47461 -1.015,0.052 -1.75453,0.24188 -1.64453,0.42188 0.111,0.179 -0.4377,0.32617 -1.2207,0.32617 -0.869,0 -1.42569,0.195 -1.42969,0.5 -0.004,0.333 -0.13653,0.30025 -0.39453,-0.0996 -0.258,-0.4 -0.39053,-0.43456 -0.39453,-0.10156 -0.004,0.325 -0.63469,0.5 -1.80469,0.5 -0.99,0 -1.80078,0.14903 -1.80078,0.33203 0,0.182 -1.02449,0.37383 -2.27734,0.42383 -1.253,0.051 -2.54419,0.24087 -2.86719,0.42187 -0.324,0.181 -1.27624,0.238 -2.11524,0.125 -1.09185,-0.146 -1.58814,-0.0437 -1.74414,0.36133 -0.151,0.395 -0.85064,0.5552 -2.30664,0.5332 -2.25685,-0.035 -3.17778,0.13693 -2.92578,0.54493 0.088,0.142 -0.71706,0.24832 -1.78906,0.23632 -1.214,-0.014 -2.02258,0.16747 -2.14258,0.48047 -0.141,0.369 -0.98969,0.44602 -3.17969,0.29102 -1.99285,-0.141 -3.29701,-0.0458 -3.91601,0.28516 -0.568,0.30385 -2.22482,0.46496 -4.26367,0.41796 -2.207,-0.052 -3.24808,0.062 -3.08008,0.33399 0.283,0.458 0.0222,0.50408 -2.5918,0.45508 -2.262,-0.043 -4.478,0.30973 -4.25,0.67773 0.095,0.154 -2.35722,0.23564 -5.44922,0.18164 -3.83385,-0.068 -5.79959,0.0501 -6.18359,0.36914 -0.389,0.323 -2.60713,0.43881 -7.20313,0.37696 -4.63885,-0.063 -6.72387,0.0452 -6.92187,0.36523 -0.204,0.33 -4.60104,0.45798 -15.83789,0.45898 -18.95362,0.003 -18.26008,0.0223 -17.95508,-0.4707 C 183.16106,298.14005 180.81109,298 176.24609,298 172.01124,298 169.15,297.84161 169,297.59961 c -0.136,-0.22 -0.42648,-0.40039 -0.64648,-0.40039 -0.22,0 -0.26475,0.225 -0.0996,0.5 0.235,0.392 0.17293,0.39825 -0.28907,0.0254 -0.386,-0.312 -2.20353,-0.46727 -5.26953,-0.44727 -3.07885,0.021 -4.87786,-0.13131 -5.25586,-0.44531 -0.379,-0.314 -1.68122,-0.42331 -3.82422,-0.32031 -2.98885,0.145 -4.34718,-0.1403 -3.11718,-0.6543 0.276,-0.115 -1.06357,-0.18901 -2.97657,-0.16601 -2.27085,0.028 -3.68893,-0.13289 -4.08593,-0.46289 -0.413,-0.342 -1.43679,-0.43969 -3.18164,-0.30469 -1.649,0.127 -2.75227,0.0313 -3.07227,-0.26367 -0.38,-0.351 -0.43175,-0.34115 -0.21875,0.0351 0.188,0.333 0.0742,0.41681 -0.3418,0.25781 C 136.27902,294.82255 136,294.58383 136,294.42383 c 0,-0.16 -0.99017,-0.26538 -2.20117,-0.23438 -1.21,0.032 -2.00463,-0.062 -1.76563,-0.20898 0.688,-0.425 -0.37811,-0.63431 -2.91211,-0.57031 -1.44785,0.037 -2.24921,-0.10096 -2.19921,-0.37696 0.045,-0.249 -0.60249,-0.44493 -1.52149,-0.46093 -0.88,-0.016 -1.96039,-0.14702 -2.40039,-0.29102 -0.44,-0.144 -1.82894,-0.29498 -3.08594,-0.33398 -1.292,-0.04 -2.18468,-0.23041 -2.05468,-0.44141 0.13185,-0.214 -0.48065,-0.32095 -1.4375,-0.25195 -0.917,0.066 -1.79232,-0.0602 -1.94532,-0.28125 -0.152,-0.221 -0.99695,-0.45454 -1.87695,-0.51954 -0.88,-0.065 -1.77147,-0.28432 -1.98047,-0.48632 -0.209,-0.202 -1.06244,-0.36719 -1.89844,-0.36719 -0.836,0 -1.52148,-0.18039 -1.52148,-0.40039 0,-0.22 -0.73005,-0.39844 -1.62305,-0.39844 -1.192,0 -1.54226,-0.133 -1.32226,-0.5 0.175,-0.291 -0.0141,-0.25025 -0.45313,0.0996 -0.439,0.35 -0.62812,0.39075 -0.45312,0.0996 0.223,-0.371 -0.17588,-0.5 -1.54688,-0.5 -1.093,0 -1.74942,-0.15967 -1.60742,-0.38867 0.14,-0.228 -0.363906,-0.36599 -1.212891,-0.33399 -0.798985,0.03 -1.570797,-0.11807 -1.716797,-0.33007 -0.145,-0.212 -0.710813,-0.41522 -1.257813,-0.44922 -0.546985,-0.035 -1.056812,-0.25047 -1.132812,-0.48047 -0.077,-0.23 -0.844093,-0.41797 -1.705078,-0.41797 -0.886985,0 -1.56836,-0.19427 -1.56836,-0.44727 0,-0.249 -0.351828,-0.35332 -0.798828,-0.23632 C 90.280726,285.05258 90,284.9275 90,284.5625 90,284.1875 89.539032,284 88.623047,284 87.866062,284 87.136,283.81961 87,283.59961 c -0.136,-0.22 -0.675219,-0.40039 -1.199219,-0.40039 -0.523985,0 -1.075609,-0.1965 -1.224609,-0.4375 -0.149,-0.242 -0.789843,-0.36253 -1.423828,-0.26953 C 82.353359,282.61019 82,282.49147 82,282.10547 c 0,-0.387 -0.396796,-0.51864 -1.300781,-0.43164 -0.934985,0.091 -1.266594,-0.0279 -1.183594,-0.42188 0.084,-0.399 -0.218202,-0.49723 -1.117187,-0.36523 -0.678,0.099 -1.342563,0.002 -1.476563,-0.21484 -0.147,-0.238 -0.03766,-0.26685 0.277344,-0.0723 0.345985,0.214 0.427281,0.16828 0.238281,-0.13672 C 77.2805,280.20931 76.738454,280 76.230469,280 c -0.507,0 -1.380468,-0.36078 -1.939453,-0.80078 -1.245985,-0.98 -1.781048,-1.04019 -1.039063,-0.11719 0.302,0.375 -0.126187,0.17474 -0.951172,-0.44726 -0.824985,-0.621 -1.5,-0.99604 -1.5,-0.83204 0,0.163 -0.242109,0.0946 -0.537109,-0.15039 -0.295,-0.245 -0.655796,-0.32664 -0.800781,-0.18164 -0.145,0.145 -0.263672,0.0405 -0.263672,-0.23047 0,-0.312 -0.293843,-0.40023 -0.798828,-0.24023 -0.531,0.169 -0.800782,0.0729 -0.800782,-0.28711 0,-0.298 -0.402578,-0.57237 -0.892578,-0.60937 -0.490985,-0.037 -1.09575,-0.34555 -1.34375,-0.68555 -0.249,-0.34 -0.731219,-0.61719 -1.074219,-0.61719 -0.341985,0 -0.713218,-0.225 -0.824218,-0.5 -0.161,-0.4 -0.207422,-0.4 -0.232422,0 -0.018,0.275 -0.224046,0.5 -0.457031,0.5 -0.233,0 -0.311767,-0.18039 -0.175782,-0.40039 0.136,-0.22 -0.032,-0.40039 -0.375,-0.40039 -0.342985,0 -0.625,-0.18039 -0.625,-0.40039 0,-0.22 -0.133828,-0.35669 -0.298828,-0.30469 -0.488985,0.155 -2.90039,-0.96175 -2.90039,-1.34375 0,-0.193 -0.196515,-0.35156 -0.4375,-0.35156 -0.241,0 -1.004328,-0.40539 -1.695313,-0.90039 -1.85547,-1.32975 -3.554374,-2.15391 -4.287109,-2.15039 z" />
    <path
       id="path1"
       d="m 343.28125,189.68555 c -0.05,0.0345 -0.082,0.12004 -0.082,0.24804 0,0.257 -0.28005,0.4668 -0.62305,0.4668 -0.35,0 -0.50356,0.1915 -0.35156,0.4375 0.184,0.299 0.46944,0.23955 0.89844,-0.18945 0.345,-0.346 0.50551,-0.75425 0.35351,-0.90625 -0.076,-0.076 -0.14531,-0.0911 -0.19531,-0.0566 z m -285.935547,0.74804 c -0.08763,0.034 0.150485,0.27652 0.708985,0.72852 0.517996,0.42 1.090437,0.67159 1.273437,0.55859 0.182,-0.113 -0.152141,-0.45667 -0.744141,-0.76367 -0.737996,-0.383 -1.150656,-0.55744 -1.238281,-0.52344 z m 282.839847,1.62696 c -0.12563,-0.043 -0.59525,0.0735 -1.34375,0.37304 -0.527,0.211 -0.85738,0.48247 -0.73438,0.60547 0.122,0.122 0.73242,-0.0536 1.35742,-0.39258 0.628,-0.3405 0.84633,-0.54293 0.72071,-0.58593 z m -279.244144,0.19336 c -0.150718,0.009 -0.284844,0.0773 -0.371094,0.22656 -0.163996,0.285 -0.152606,0.38661 0.02539,0.22461 0.179,-0.161 0.561563,0.0194 0.851563,0.40039 0.288996,0.382 0.532062,0.49214 0.539062,0.24414 0.01725,-0.5955 -0.592769,-1.12163 -1.044922,-1.0957 z m 25.458985,10.54687 c -0.747,0 -0.853469,0.10552 -0.480469,0.47852 0.373,0.373 0.587941,0.373 0.960937,0 0.373,-0.373 0.266528,-0.47852 -0.480468,-0.47852 z m 267.060549,2.9707 c -0.0399,-0.1605 -0.32064,0.0593 -0.80664,0.80079 -0.36,0.55 -0.65235,1.23067 -0.65235,1.51367 10e-4,0.283 0.36932,-0.0901 0.82032,-0.83008 0.4765,-0.7815 0.67854,-1.32388 0.63867,-1.48438 z m -245.06055,3.1211 c -0.77,0 -1.08617,0.0826 -0.70117,0.18359 0.385,0.1 1.01539,0.1 1.40039,0 0.385,-0.101 0.0708,-0.18359 -0.69922,-0.18359 z m 183.19922,0 c -0.77,0 -1.08422,0.0826 -0.69922,0.18359 0.385,0.1 1.01539,0.1 1.40039,0 0.385,-0.101 0.0688,-0.18359 -0.70117,-0.18359 z m -179.52344,0.76758 -1.07617,0.0605 1.10742,0.16602 c 0.667,0.101 0.99989,0.33956 0.83789,0.60156 -0.162,0.262 -0.0828,0.32049 0.19922,0.14649 0.744,-0.46 0.10864,-1.04061 -1.06836,-0.97461 z m 14.52344,3.21289 1.80078,0.31836 c 0.99,0.174 1.92608,0.2015 2.08008,0.0625 0.154,-0.14 -0.65678,-0.28141 -1.80078,-0.31641 z M 52.310547,214 c -0.205,0 0.16241,0.45 0.816406,1 0.653996,0.55 1.307172,1 1.451172,1 0.145,0 -0.22241,-0.45 -0.816406,-1 -0.593,-0.55 -1.246172,-1 -1.451172,-1 z M 159,216.92383 c -1.32,0.002 -1.81275,0.077 -1.09375,0.16601 0.719,0.089 1.79939,0.0874 2.40039,-0.004 0.601,-0.091 0.0134,-0.16411 -1.30664,-0.16211 z m 82,0 c -1.32,0.002 -1.81275,0.077 -1.09375,0.16601 0.719,0.089 1.79939,0.0874 2.40039,-0.004 0.601,-0.091 0.0134,-0.16411 -1.30664,-0.16211 z m 99.59766,2.02148 c -0.31475,0.046 -0.65658,0.23249 -0.76758,0.52149 -0.113,0.293 -0.51177,0.5332 -0.88477,0.5332 -0.374,0 -0.56101,0.11867 -0.41601,0.26367 0.145,0.145 0.0406,0.54653 -0.23242,0.89453 -0.274,0.348 0.10198,0.13911 0.83398,-0.46289 0.732,-0.603 1.49622,-1.0957 1.69922,-1.0957 0.203,0 0.36914,-0.14903 0.36914,-0.33203 0,-0.273 -0.28681,-0.36827 -0.60156,-0.32227 z m -280.720707,0.6836 c -0.844996,0.027 -0.847174,0.0401 -0.07617,0.37109 1.100996,0.473 1.491219,0.473 1.199219,0 -0.136,-0.22 -0.641047,-0.38609 -1.123047,-0.37109 z m 286.968747,8.8789 c -0.465,0.035 -0.8457,0.31696 -0.8457,0.62696 0,0.475 0.11022,0.47846 0.69922,0.0273 0.385,-0.295 0.7657,-0.57695 0.8457,-0.62695 0.08,-0.051 -0.23422,-0.0623 -0.69922,-0.0273 z m -232.04492,10.75196 c -0.42,0.024 -0.39036,0.0888 0.0996,0.21679 0.385,0.1 0.69922,0.34874 0.69922,0.55274 0,0.204 0.30378,0.37109 0.67578,0.37109 0.59,0 0.57836,-0.0759 -0.0996,-0.58789 -0.427,-0.323 -1.045,-0.57073 -1.375,-0.55273 z m 202.49024,2.76367 c -0.203,0 -0.50263,0.12645 -0.89063,0.37695 -0.485,0.314 -0.42917,0.38953 0.29883,0.39453 0.495,0.003 0.90039,-0.17453 0.90039,-0.39453 0,-0.2505 -0.10559,-0.37695 -0.30859,-0.37695 z M 225,246.93164 c -1.54,-0.002 -2.21973,0.0692 -1.50977,0.1582 0.71,0.088 1.97079,0.089 2.80079,0.002 0.82996,-0.087 0.24898,-0.15816 -1.29102,-0.16016 z m -49.80078,0.002 c -1.65,0 -2.325,0.0722 -1.5,0.15821 0.825,0.087 2.175,0.087 3,0 0.825,-0.086 0.15,-0.15821 -1.5,-0.15821 z m 19.40039,12.01172 c -2.2,10e-4 -3.04872,0.0694 -1.88672,0.15039 1.163,0.081 2.963,0.0811 4,-0.002 1.038,-0.082 0.0867,-0.14944 -2.11328,-0.14844 z m 10.80078,0 c -2.2,10e-4 -3.04872,0.0694 -1.88672,0.15039 1.163,0.081 2.963,0.0811 4,-0.002 1.038,-0.082 0.0867,-0.14944 -2.11328,-0.14844 z M 335.5,262.82422 c -0.055,0.014 -0.48698,0.18305 -0.95898,0.37305 -0.963,0.389 -1.61585,1.20312 -0.96485,1.20312 0.233,0 0.42383,-0.18039 0.42383,-0.40039 0,-0.22 0.36078,-0.40039 0.80078,-0.40039 0.44,0 0.79883,-0.18039 0.79883,-0.40039 0,-0.22 -0.0446,-0.389 -0.0996,-0.375 z m 13.25391,5.57617 c -0.279,0 -0.10252,0.37484 0.39648,0.83984 0.496,0.462 1.00105,0.74111 1.12305,0.61915 0.304,-0.304 -0.89853,-1.45899 -1.51953,-1.45899 z m -293.023441,1.57422 c -0.08216,0.0134 -0.13086,0.0719 -0.13086,0.17969 0,0.085 0.49461,0.47236 1.09961,0.86132 l 1.101562,0.70899 -0.763672,-0.86328 c -0.505496,-0.57225 -1.060172,-0.92703 -1.30664,-0.88672 z M 343.92383,270 c -0.11,0 -0.52583,0.36078 -0.92383,0.80078 -0.398,0.44 -0.96572,0.79883 -1.26172,0.79883 -0.296,0 -0.53906,0.18606 -0.53906,0.41406 0,0.271 0.24408,0.28414 0.70508,0.0371 0.736,-0.393 2.36753,-2.05078 2.01953,-2.05078 z m -26.54492,0.5332 c -0.299,0 -0.63605,0.23921 -0.74805,0.53321 -0.113,0.293 0.0398,0.5332 0.33984,0.5332 0.299,0 0.63605,-0.2402 0.74805,-0.5332 0.113,-0.294 -0.0398,-0.53321 -0.33984,-0.53321 z m -235.085941,0.13672 c -0.0905,0.0573 -0.09453,0.1805 -0.01953,0.375 0.116996,0.305 0.462531,0.55469 0.769531,0.55469 0.830996,0 0.673105,-0.6762 -0.212891,-0.9082 -0.27,-0.0705 -0.446609,-0.0787 -0.537109,-0.0215 z m 7.048828,1.86133 c -0.077,-0.0523 -0.125406,-0.0276 -0.128906,0.0879 -0.014,0.49 0.802578,1.38086 1.267578,1.38086 0.176,0 0.320312,-0.19083 0.320312,-0.42383 0,-0.233 -0.169,-0.3194 -0.375,-0.1914 -0.207,0.127 -0.562062,-0.0866 -0.789062,-0.47657 -0.1135,-0.1945 -0.217922,-0.3247 -0.294922,-0.37695 z m 246.833983,2.32813 c -0.24587,0.007 -0.79725,0.13481 -1.65625,0.38281 -1.38,0.399 -2.05156,1.02539 -1.10156,1.02539 0.32,0 0.58203,-0.14999 0.58203,-0.33399 0,-0.183 0.31422,-0.33684 0.69922,-0.33984 0.385,-0.003 0.97078,-0.18153 1.30078,-0.39453 0.3625,-0.234 0.42166,-0.34684 0.17578,-0.33984 z M 65.546875,275.2207 c -0.24825,-0.0453 -0.346734,0.058 -0.177734,0.33203 0.12,0.193 0.626,0.45408 1.125,0.58008 0.873996,0.22 0.877902,0.20649 0.128906,-0.35351 -0.43,-0.321 -0.827922,-0.51335 -1.076172,-0.5586 z m 67.187505,7.49414 c -0.66275,-0.0414 -1.38504,-0.002 -1.625,0.15039 -0.305,0.193 0.1714,0.32413 1.1914,0.32813 0.935,0.003 1.69922,-0.0634 1.69922,-0.14844 0,-0.167 -0.60291,-0.2887 -1.26562,-0.33008 z m -86.322271,3.32422 c -0.027,0.49 1.226688,2.69578 1.804688,3.17578 0.499996,0.415 0.559609,0.3868 0.349609,-0.1582 -0.138,-0.362 -0.423812,-0.65625 -0.632812,-0.65625 -0.21,0 -0.282156,-0.16042 -0.160156,-0.35742 0.121996,-0.197 -0.130504,-0.78278 -0.5625,-1.30078 -0.431,-0.518 -0.790829,-0.83513 -0.798829,-0.70313 z m 163.488281,1.25 c -0.055,0.049 -4.33,0.18855 -9.5,0.31055 L 191,287.82227 l 9.5,0.0879 c 6.12596,0.057 9.5,-0.0525 9.5,-0.31055 0,-0.22 -0.0446,-0.35955 -0.0996,-0.31055 z M 352.41406,288 c -0.212,0 -0.59742,0.40539 -0.85742,0.90039 -0.47,0.895 -0.46923,0.89472 0.38477,0.13672 0.953,-0.847 1.04065,-1.03711 0.47265,-1.03711 z m -301.935544,3.62891 c -0.05127,0.032 -0.07813,0.098 -0.07813,0.19921 0,0.424 1.235797,1.46829 1.466797,1.23829 0.124996,-0.126 -0.04963,-0.50666 -0.390626,-0.84766 -0.476246,-0.47625 -0.844253,-0.68594 -0.998046,-0.58984 z M 263.63281,294 c -0.238,0 -0.43359,0.16709 -0.43359,0.37109 0,0.204 -0.31422,0.46222 -0.69922,0.57422 -0.421,0.122 -0.31347,0.17291 0.26953,0.12891 0.935,-0.071 1.74228,-1.07422 0.86328,-1.07422 z m -112.76758,1.83398 c -0.145,0.0179 -0.31456,0.0792 -0.47656,0.18164 -0.323,0.204 -0.49867,0.38821 -0.38867,0.40821 1.75,0.313 2.13578,0.32914 1.80078,0.0723 -0.22,-0.168 -0.49628,-0.42712 -0.61328,-0.57812 -0.058,-0.075 -0.17727,-0.10183 -0.32227,-0.084 z m -91.109371,3.55079 c -0.09663,0.0242 -0.15625,0.0862 -0.15625,0.17968 0,0.186 0.240207,0.53725 0.533203,0.78125 0.403,0.334 0.535157,0.30024 0.535157,-0.13476 0,-0.317 -0.241157,-0.66925 -0.535157,-0.78125 -0.146496,-0.0565 -0.280328,-0.0692 -0.376953,-0.0449 z m 7.251953,4.04492 c -0.089,0.0445 -0.130515,0.13989 -0.103515,0.27539 0.22,1.1 1.896484,2.0687 1.896484,1.0957 0,-0.22 -0.282,-0.40039 -0.625,-0.40039 -0.342996,0 -0.524343,-0.16042 -0.402343,-0.35742 0.121996,-0.197 -0.0451,-0.46289 -0.371094,-0.58789 -0.169,-0.0645 -0.305532,-0.0699 -0.394532,-0.0254 z m 9.697266,4.43945 c -0.0985,0.0485 -0.119106,0.15255 -0.05859,0.31055 0.103,0.268 0.451485,0.48828 0.771485,0.48828 0.844996,0 0.714496,-0.53939 -0.1875,-0.77539 -0.2495,-0.065 -0.426891,-0.0719 -0.525391,-0.0234 z" />
  </g>
</svg>
