<?xml version="1.0" encoding="UTF-8" standalone="no"?>
<svg
   id="svg"
   version="1.1"
   width="400"
   height="400"
   viewBox="0, 0, 400,400"
   sodipodi:docname="filament-color-mask-4.svg"
   inkscape:version="1.3 (0e150ed6c4, 2023-07-21)"
   xmlns:inkscape="http://www.inkscape.org/namespaces/inkscape"
   xmlns:sodipodi="http://sodipodi.sourceforge.net/DTD/sodipodi-0.dtd"
   xmlns="http://www.w3.org/2000/svg"
   xmlns:svg="http://www.w3.org/2000/svg">
  <defs
     id="defs1" />
  <sodipodi:namedview
     id="namedview1"
     pagecolor="#505050"
     bordercolor="#eeeeee"
     borderopacity="1"
     inkscape:showpageshadow="0"
     inkscape:pageopacity="0"
     inkscape:pagecheckerboard="0"
     inkscape:deskcolor="#505050"
     inkscape:zoom="2.9325"
     inkscape:cx="200"
     inkscape:cy="200.34101"
     inkscape:window-width="2560"
     inkscape:window-height="1369"
     inkscape:window-x="1912"
     inkscape:window-y="-8"
     inkscape:window-maximized="1"
     inkscape:current-layer="svg" />
  <g
     id="svgg"
     inkscape:label="svgg">
    <path
       id="path0"
       d="m 347.78125,147.21289 c -0.32612,0.009 -0.68395,0.18684 -0.81445,0.52734 -0.128,0.335 -0.61711,0.47606 -1.28711,0.36915 -0.847,-0.134 -0.95047,-0.0801 -0.48047,0.2539 0.521,0.369 0.51107,0.42664 -0.0762,0.43164 -0.372,0.003 -0.80394,0.2128 -0.96094,0.4668 -0.192,0.31 -0.10161,0.35567 0.27539,0.13867 0.309,-0.177 0.20172,0.0423 -0.23828,0.48828 -0.583,0.591 -0.94127,0.69658 -1.32227,0.39258 -0.383,-0.306 -0.48939,-0.26742 -0.40039,0.14258 0.071,0.323 -0.2592,0.61531 -0.7832,0.69531 -0.498,0.076 -0.80278,0.30477 -0.67578,0.50977 0.126,0.204 -0.22149,0.37109 -0.77149,0.37109 -0.55,0 -1.11009,0.18039 -1.24609,0.40039 -0.136,0.22 -0.60688,0.40039 -1.04688,0.40039 -0.43991,0 -0.68873,0.17844 -0.55273,0.39844 0.21,0.34 -0.087,0.43758 -1.20898,0.39258 -0.114,-0.005 -0.59722,0.35578 -1.07422,0.80078 -0.756,0.703 -1.119,0.83883 -2.125,0.79883 -0.414,-0.017 -1.30396,1.01659 -1.12696,1.30859 0.163,0.27 -0.77912,0.47575 -1.57812,0.34375 -0.172,-0.028 -0.70078,0.30995 -1.17578,0.75195 -0.474,0.442 -1.28474,0.80469 -1.80274,0.80469 -0.518,0 -1.31262,0.34558 -1.76562,0.76758 -0.495,0.461 -1.24977,0.71762 -1.88477,0.64062 -0.709,-0.085 -1.287,0.15743 -1.75,0.73243 -0.38,0.473 -0.69422,0.63437 -0.69922,0.35937 -0.01,-0.582 -0.91906,-0.65144 -1.91406,-0.14844 -1.681,0.85 -3.76859,1.64844 -4.30859,1.64844 -0.322,0 -0.58594,0.15375 -0.58594,0.34375 0,0.189 -0.45,0.2593 -1,0.1543 -0.693,-0.133 -1,-0.0152 -1,0.38476 0,0.414 -0.34117,0.52935 -1.20117,0.40235 -0.925,-0.135 -1.19922,-0.0238 -1.19922,0.49218 0,0.368 -0.18797,0.55411 -0.41797,0.41211 -0.229,-0.142 -0.71417,-0.0186 -1.07617,0.27539 -0.47,0.381 -0.57338,0.39184 -0.35938,0.0352 0.165,-0.275 0.13017,-0.5 -0.0801,-0.5 -0.209,0 -0.47957,0.25917 -0.60157,0.57617 -0.144,0.377 -0.58839,0.51072 -1.27539,0.38672 -0.663,-0.121 -0.95787,-0.0373 -0.79687,0.22266 0.271,0.44 -0.1961,0.55383 -1.7461,0.42383 -0.525,-0.044 -1.06998,0.10312 -1.20898,0.32812 -0.139,0.226 -0.69914,0.47188 -1.24414,0.54688 -0.546,0.075 -1.24569,0.29332 -1.55469,0.48632 -0.416,0.26 -0.47919,0.20702 -0.24219,-0.20898 0.259,-0.455 0.21821,-0.4665 -0.21679,-0.0625 -0.297,0.275 -0.84194,0.5 -1.21094,0.5 -0.369,0 -0.88358,0.25636 -1.14258,0.56836 -0.285,0.342 -0.95826,0.50511 -1.69726,0.41211 -0.676,-0.086 -1.61013,0.0546 -2.07813,0.30859 -0.467,0.254 -1.44392,0.41252 -2.16992,0.35352 -0.726,-0.059 -1.54631,0.0806 -1.82031,0.30859 -0.275,0.228 -1.15313,0.45772 -1.95313,0.51172 -0.801,0.054 -1.36581,0.24197 -1.25781,0.41797 0.172,0.278 -1.14283,0.43478 -3.54883,0.42578 -0.385,-0.002 -0.70117,0.1547 -0.70117,0.3457 0,0.191 -0.68353,0.34766 -1.51953,0.34766 -0.836,0 -1.69139,0.16995 -1.90039,0.37695 -0.209,0.207 -1.40711,0.41875 -2.66211,0.46875 -1.255,0.05 -2.18917,0.23888 -2.07617,0.42188 0.113,0.182 -0.87532,0.33203 -2.19532,0.33203 -1.31991,0 -2.51048,0.18039 -2.64648,0.40039 -0.136,0.22 -1.04644,0.40039 -2.02344,0.40039 -1.151,0 -1.77725,0.176 -1.78125,0.5 -0.004,0.333 -0.13653,0.30031 -0.39453,-0.0996 -0.258,-0.4 -0.39053,-0.43269 -0.39453,-0.0996 -0.004,0.355 -0.8803,0.5 -3.0293,0.5 -1.663,0 -2.93989,0.13383 -2.83789,0.29883 0.102,0.165 -1.18919,0.35678 -2.86719,0.42578 -1.67891,0.069 -3.31567,0.34056 -3.63867,0.60156 -0.478,0.386 -0.52042,0.36205 -0.23242,-0.12695 0.283,-0.481 0.23934,-0.50944 -0.22266,-0.14844 -0.317,0.249 -1.29773,0.37335 -2.17773,0.27735 -1.808,-0.198 -4.31083,0.16779 -4.04883,0.59179 0.095,0.154 -1.98132,0.25371 -4.61523,0.22071 -3.624,-0.044 -4.74452,0.0597 -4.60352,0.42968 0.144,0.373 -1.07182,0.45466 -5.17773,0.34766 -3.475,-0.091 -5.66399,0.0186 -6.20899,0.31055 -1.2,0.642 -47.50312,0.63726 -48.70312,-0.006 -0.553,-0.296 -2.62863,-0.40927 -5.89063,-0.32227 -3.53791,0.095 -5.09279,-0.002 -5.21679,-0.32422 -0.242,-0.631 -6.93599,-0.67008 -7.70899,-0.0449 -0.463,0.373 -0.51314,0.35484 -0.24414,-0.0898 0.263,-0.436 0.10806,-0.51342 -0.71094,-0.35742 -0.576,0.11 -0.95665,0.0549 -0.84765,-0.12305 0.285,-0.461 -2.1611,-0.84834 -4.1211,-0.65234 -0.916,0.091 -1.88057,-0.0305 -2.14257,-0.27149 -0.359,-0.329 -0.39458,-0.28889 -0.14258,0.16211 0.269,0.481 0.22176,0.50858 -0.24024,0.14258 -0.536,-0.425 -2.65982,-0.70403 -9.17773,-1.20703 -1.43,-0.11 -2.76952,-0.36636 -2.97852,-0.56836 -0.209,-0.203 -1.334,-0.36719 -2.5,-0.36719 -1.166,0 -2.12109,-0.14998 -2.12109,-0.33398 0,-0.184 -1.11075,-0.37483 -2.46875,-0.42383 -1.359,-0.049 -2.78878,-0.2588 -3.17578,-0.4668 -0.387,-0.207 -1.61352,-0.375 -2.72852,-0.375 -1.114,0 -2.02734,-0.18039 -2.02734,-0.40039 0,-0.22 -0.80883,-0.40039 -1.79883,-0.40039 -0.99,0 -1.80078,-0.18039 -1.80078,-0.40039 0,-0.22 -0.71961,-0.39844 -1.59961,-0.39844 -0.88,0 -1.59961,-0.16047 -1.59961,-0.35547 0,-0.194 -0.82598,-0.32401 -1.83398,-0.29101 -1.008,0.034 -1.93455,-0.1046 -2.06055,-0.3086 -0.126,-0.203 -0.0216,-0.24082 0.23242,-0.084 0.254,0.157 0.46094,0.0943 0.46094,-0.13867 0,-0.242 -0.859,-0.42383 -2,-0.42383 -1.1,0 -2,-0.17844 -2,-0.39844 0,-0.22 -0.71961,-0.40039 -1.59961,-0.40039 -0.88,0 -1.60056,-0.13578 -1.60156,-0.30078 0,-0.165 -0.65885,-0.3463 -1.46485,-0.4043 -0.805,-0.058 -1.68603,-0.28867 -1.95703,-0.51367 -0.271,-0.225 -0.645991,-0.38261 -0.833982,-0.34961 -1.103991,0.199 -2.160391,-0.079 -1.900391,-0.5 0.184,-0.298 0.08461,-0.39082 -0.275391,-0.25391 -0.310991,0.119 -1.016415,0.0326 -1.566406,-0.19335 -0.549991,-0.226 -1.514587,-0.44819 -2.142578,-0.49219 -0.627991,-0.045 -1.258391,-0.2415 -1.400391,-0.4375 -0.142,-0.195 -0.707821,-0.41619 -1.257812,-0.49219 -0.55,-0.076 -1.059813,-0.301 -1.132813,-0.5 -0.074,-0.199 -0.657837,-0.36328 -1.298828,-0.36328 -0.641991,0 -1.167969,-0.16047 -1.167969,-0.35547 0,-0.388 -1.872111,-0.86052 -3.871093,-0.97852 -0.699,-0.042 -1.413891,-0.21957 -1.587891,-0.39257 -0.173,-0.174 0.0377,-0.19996 0.470703,-0.0566 0.643991,0.211 0.679453,0.17926 0.189453,-0.17774 -0.329991,-0.24 -1.14079,-0.33589 -1.800781,-0.21289 -0.810991,0.151 -1.02325,0.10066 -0.65625,-0.15234 0.692991,-0.478 0.04145,-0.90146 -1.060547,-0.68946 -0.456991,0.088 -1.03711,-0.0877 -1.287109,-0.38867 -0.251,-0.302 -0.711391,-0.44912 -1.025391,-0.32812 -0.335,0.128 -0.570312,-0.0241 -0.570312,-0.36914 0,-0.411 -0.301009,-0.53049 -1,-0.39649 -0.584,0.112 -1,0.006 -1,-0.2539 0,-0.246 -0.360782,-0.44727 -0.800782,-0.44727 -0.439991,0 -0.798828,-0.18039 -0.798828,-0.40039 0,-0.22 -0.324703,-0.40039 -0.720703,-0.40039 -0.893991,0 -2.872953,-0.89283 -2.876953,-1.29883 C 69.201605,156.13576 68.659991,156 68,156 c -0.659991,0 -1.199219,-0.15856 -1.199219,-0.35156 0,-0.194 -0.541172,-0.57466 -1.201172,-0.84766 -0.659991,-0.273 -1.199218,-0.66705 -1.199218,-0.87305 0,-0.206 -0.166141,-0.27343 -0.369141,-0.14843 -0.202,0.125 -0.638703,-0.043 -0.970703,-0.375 -0.332,-0.332 -0.887422,-0.60352 -1.232422,-0.60352 -0.346,0 -0.628906,-0.18039 -0.628906,-0.40039 0,-0.22 -0.45286,-0.40039 -1.00586,-0.40039 -0.624991,0 -1.4525,-0.49278 -2.1875,-1.30078 -0.649991,-0.715 -1.187359,-1.07383 -1.193359,-0.79883 -0.007,0.275 -0.192118,0.5 -0.412109,0.5 -0.22,0 -0.355782,-0.225 -0.300782,-0.5 0.055,-0.275 -0.125399,-0.45539 -0.40039,-0.40039 -0.275,0.055 -0.5,-0.0912 -0.5,-0.32422 0,-0.233 -0.178438,-0.31178 -0.398438,-0.17578 -0.22,0.136 -0.40039,0.0724 -0.40039,-0.14258 0,-0.215 0.225,-0.4808 0.5,-0.5918 0.274991,-0.11091 -0.07534,-0.21737 -0.777344,-0.23437 -0.701991,-0.018 -1.387438,-0.21164 -1.523438,-0.43164 -0.324991,-0.527 -0.995524,-0.48414 -2.103515,0.13086 -0.683,0.38 -0.790406,0.61389 -0.441406,0.96289 0.347991,0.348 0.235053,0.4027 -0.460938,0.2207 -0.789991,-0.206 -0.888312,-0.11895 -0.695312,0.62305 0.152991,0.582 0.04306,0.86328 -0.335938,0.86328 -0.31,0 -0.5625,0.35883 -0.5625,0.79883 0,0.44 -0.180391,0.80078 -0.400391,0.80078 -0.219991,0 -0.40039,0.19083 -0.40039,0.42383 0,0.233 0.182297,0.31083 0.404297,0.17383 0.232991,-0.144 0.205514,0.18334 -0.06445,0.77734 -0.256991,0.564 -0.618734,1.02539 -0.802734,1.02539 -0.185,0 -0.335937,0.35883 -0.335937,0.79883 0,0.44 -0.152844,0.80078 -0.339844,0.80078 -0.187,0 -0.362625,1.53797 -0.390625,3.41797 -0.037,2.477 0.0752,3.33976 0.408203,3.13476 0.302,-0.187 0.372031,-0.0599 0.207031,0.3711 -0.138,0.36 6.41e-4,0.90494 0.306641,1.21094 0.379991,0.38 0.425484,0.68779 0.146484,0.96679 -0.277991,0.278 -0.251101,0.50485 0.08789,0.71485 0.341,0.21 0.395828,0.1432 0.173828,-0.2168 -0.204,-0.33 -0.166429,-0.42577 0.101562,-0.25977 0.233,0.144 0.334563,0.60063 0.226563,1.01563 -0.109,0.415 -0.0027,0.87644 0.236328,1.02344 0.239,0.148 0.438406,0.66253 0.441406,1.14453 0.005,0.712 0.07953,0.76534 0.394532,0.27734 0.318991,-0.494 0.389531,-0.5002 0.394531,-0.0332 0.003,0.311 0.124531,0.44578 0.269531,0.30078 0.395,-0.395 1.540297,1.42642 1.404297,2.23242 -0.072,0.423 0.132587,0.69922 0.517578,0.69922 0.351,0 0.758297,0.31422 0.904297,0.69922 0.394,1.039 1.159478,1.70003 1.980469,1.70703 0.616991,0.005 0.636897,0.0665 0.128906,0.39453 -0.468,0.302 -0.356991,0.38758 0.5,0.39258 0.604991,0.003 1.099609,0.18625 1.099609,0.40625 0,0.22 0.188969,0.40039 0.417969,0.40039 0.528,0 2.264804,1.59428 1.757813,1.61328 -0.206,0.008 0.07214,0.26341 0.61914,0.56641 0.547,0.303 1.13279,0.46533 1.300781,0.36133 0.168,-0.103 0.304688,0.0821 0.304688,0.4121 0,0.33 0.208891,0.72777 0.462891,0.88477 0.307991,0.191 0.351859,0.10895 0.130859,-0.24805 -0.181,-0.294 0.286071,-0.0747 1.039062,0.48633 0.752,0.562 1.573181,0.94652 1.826172,0.85352 0.252,-0.092 0.432391,0.15578 0.400391,0.55078 -0.04,0.484 0.266556,0.76537 0.935547,0.85937 0.546991,0.077 1.4755,0.48239 2.0625,0.90039 0.585991,0.418 1.337922,0.75977 1.669922,0.75977 0.332991,0 0.669094,0.18988 0.746094,0.42188 0.077,0.23191 0.408383,0.47506 0.734374,0.53906 1.172991,0.233 1.982617,0.73103 1.765626,1.08203 -0.122,0.197 0.140078,0.35742 0.580078,0.35742 0.439991,0 0.922312,0.1965 1.070312,0.4375 0.149,0.24 0.66354,0.36153 1.144531,0.26953 0.481,-0.092 1.100962,0.0751 1.376953,0.3711 0.277,0.296 0.671907,0.43464 0.878907,0.30664 0.207,-0.128 0.375,0.0476 0.375,0.39062 0,0.357 0.342781,0.625 0.800781,0.625 0.44,0 0.800781,0.20222 0.800781,0.44922 0,0.288 0.436759,0.36108 1.21875,0.20508 0.748,-0.15 1.126516,-0.0915 0.978516,0.14648 -0.132,0.215 0.0228,0.28902 0.341797,0.16602 0.318991,-0.122 0.693031,-0.0375 0.832031,0.1875 0.14,0.226 0.54725,0.29715 0.90625,0.16015 0.394,-0.151 0.553382,-0.0888 0.400391,0.15821 -0.309,0.5 1.397243,1.32617 2.740234,1.32617 0.538991,0 0.980469,0.14145 0.980469,0.31445 0,0.173 0.58579,0.36015 1.300781,0.41406 0.714991,0.053 1.360594,0.27138 1.433594,0.48438 0.074,0.213 0.749009,0.38672 1.5,0.38672 0.751991,0 1.367187,0.18039 1.367187,0.40039 0,0.22 0.539228,0.40039 1.199219,0.40039 0.659991,0 1.199219,0.18039 1.199219,0.40039 0,0.22 0.439571,0.40039 0.976562,0.40039 0.537,0 1.091469,0.18416 1.230469,0.41016 0.14,0.225 0.903321,0.3655 1.695312,0.3125 0.853,-0.058 1.505648,0.10067 1.601558,0.38867 0.09,0.268 0.7783,0.48828 1.5293,0.48828 0.752,0 1.36719,0.18039 1.36719,0.40039 0,0.22 0.19083,0.39844 0.42383,0.39844 0.233,0 0.29562,-0.225 0.14062,-0.5 -0.226,-0.4 -0.17318,-0.4 0.25782,0 0.29691,0.275 1.05264,0.5 1.68164,0.5 0.68691,0 1.04071,0.16601 0.88671,0.41601 -0.162,0.262 0.25863,0.38032 1.14063,0.32032 0.768,-0.051 1.68797,0.14836 2.04297,0.44336 0.356,0.295 0.74805,0.43259 0.87305,0.30859 0.12391,-0.125 0.90156,0.0107 1.72656,0.30273 0.825,0.291 2.18162,0.5293 3.01562,0.5293 0.833,0 1.62667,0.17281 1.76367,0.38281 0.136,0.211 0.84994,0.36385 1.58594,0.33985 0.736,-0.024 1.41572,0.0852 1.51172,0.24023 0.096,0.156 0.46913,0.1702 0.82813,0.0332 0.439,-0.16891 0.55832,-0.0963 0.36132,0.22071 -0.21,0.341 0.22636,0.45334 1.56836,0.40234 1.04,-0.039 1.98753,0.13072 2.14453,0.38672 0.156,0.251 0.90979,0.4333 1.67579,0.4043 0.76691,-0.028 1.78186,0.15615 2.25586,0.41015 0.47391,0.253 1.67501,0.46094 2.66601,0.46094 0.992,0 1.9195,0.18892 2.0625,0.41992 0.151,0.244 1.399,0.3726 3,0.3086 1.508,-0.06 2.88745,0.0521 3.06445,0.24609 0.181,0.198 0.10227,0.22749 -0.17773,0.0664 -0.275,-0.159 -0.5,-0.0897 -0.5,0.15429 0,0.287 1.03039,0.44069 2.90039,0.42969 3.552,-0.019 4.29978,0.0418 4.30078,0.3418 0.001,0.128 1.50861,0.23242 3.34961,0.23242 2.067,0 3.28931,0.15339 3.19531,0.40039 -0.097,0.253 1.62355,0.40039 4.68555,0.40039 2.784,0 4.95347,0.16844 5.10547,0.39844 0.323,0.489 4.88403,0.55939 4.58203,0.0703 -0.119,-0.192 0.12316,-0.16938 0.53516,0.0508 0.412,0.221 1.74489,0.39186 2.96289,0.38086 1.219,-0.011 2.60026,0.18754 3.07226,0.43945 1.151,0.616 7.00986,0.59968 7.63086,-0.0215 0.264,-0.264 0.48047,-0.30869 0.48047,-0.0996 0,0.758 42.79503,0.59003 42.83203,-0.16797 0.017,-0.358 0.11099,-0.45961 0.20899,-0.22461 0.112,0.271 0.89367,0.33578 2.13867,0.17578 1.08,-0.138 2.69584,-0.21396 3.58984,-0.16796 0.894,0.045 1.55289,-0.0386 1.46289,-0.1836 -0.09,-0.145 0.98939,-0.16807 2.40039,-0.0488 1.411,0.118 2.56641,0.0829 2.56641,-0.0801 0,-0.163 0.3001,-0.18218 0.66601,-0.041 0.366,0.14 0.56346,0.0887 0.43946,-0.11328 -0.132,-0.214 1.34434,-0.36719 3.52734,-0.36719 2.134,0 3.82216,-0.17339 3.91016,-0.40039 0.088,-0.226 1.72858,-0.40039 3.76758,-0.40039 1.98691,0 3.52973,-0.13578 3.42773,-0.30078 -0.164,-0.266 4.78375,-0.51741 6.21875,-0.31641 0.307,0.043 0.69814,-0.14587 0.86914,-0.42187 0.205,-0.333 1.1638,-0.47397 2.8418,-0.41797 1.822,0.06 2.36364,-0.0322 1.93164,-0.32422 -0.475,-0.322 -0.36361,-0.40711 0.52539,-0.41211 0.746,-0.004 1.02689,-0.16175 0.83789,-0.46875 -0.195,-0.315 -0.10861,-0.35028 0.27539,-0.11328 0.726,0.45 3.96289,0.53451 3.96289,0.10351 0,-0.17991 0.787,-0.32812 1.75,-0.32812 0.982,0 1.94822,-0.23606 2.19922,-0.53906 0.29,-0.349 1.02508,-0.48491 2.08008,-0.37891 0.934,0.093 1.88275,-0.0433 2.21875,-0.32226 0.323,-0.268 1.24578,-0.4636 2.05078,-0.4336 0.805,0.03 1.57308,-0.11998 1.70508,-0.33398 0.133,-0.214 0.77097,-0.42094 1.41797,-0.46094 0.648,-0.041 1.35812,-0.17202 1.57812,-0.29102 0.547,-0.297 1.426,-0.49178 2.5,-0.55078 0.495,-0.028 0.9013,-0.23775 0.9043,-0.46875 0.003,-0.231 0.18153,-0.15031 0.39453,0.17969 0.258,0.4 0.39053,0.43269 0.39453,0.0996 0.004,-0.304 0.55625,-0.5 1.40625,-0.5 0.77,0 1.40039,-0.18039 1.40039,-0.40039 0,-0.22 0.80883,-0.40039 1.79883,-0.40039 0.99,0 1.80078,-0.17844 1.80078,-0.39844 0,-0.22 0.63039,-0.40039 1.40039,-0.40039 0.77,0 1.39844,-0.18039 1.39844,-0.40039 0,-0.22 0.68548,-0.40039 1.52148,-0.40039 0.836,0 1.68944,-0.16519 1.89844,-0.36719 0.209,-0.201 0.74164,-0.426 1.18164,-0.5 0.44,-0.073 0.90143,-0.27236 1.02734,-0.44336 0.127,-0.17 0.89318,-0.33328 1.70118,-0.36328 0.809,-0.031 1.4707,-0.20562 1.4707,-0.39062 0,-0.184 0.46044,-0.33594 1.02344,-0.33594 0.58,0 0.91734,-0.17144 0.77734,-0.39844 -0.144,-0.233 0.25513,-0.40039 0.95313,-0.40039 0.66,0 1.30931,-0.18039 1.44531,-0.40039 0.136,-0.22 0.868,-0.40039 1.625,-0.40039 0.757,0 1.375,-0.18039 1.375,-0.40039 0,-0.22 0.40539,-0.4013 0.90039,-0.4043 0.746,-0.005 0.79778,-0.0796 0.30078,-0.43164 -0.464,-0.329 -0.33378,-0.38233 0.57422,-0.23633 1.299,0.211 2.32216,-0.0467 2.03516,-0.51172 -0.102,-0.165 0.25973,-0.21432 0.80273,-0.11132 0.69,0.132 0.98828,0.0106 0.98828,-0.40235 0,-0.424 0.2996,-0.53367 1.0586,-0.38867 0.73191,0.14 0.97234,0.0601 0.77734,-0.25586 -0.26,-0.421 0.41689,-0.63582 1.58789,-0.50391 0.234,0.026 0.81497,-0.31671 1.29297,-0.76171 0.477,-0.445 0.96022,-0.80383 1.07422,-0.79883 1.418,0.057 1.59481,-0.0126 1.00781,-0.39258 -0.468,-0.302 -0.357,-0.38953 0.5,-0.39453 0.605,-0.003 1.4681,-0.37231 1.91601,-0.82031 0.448,-0.448 0.98818,-0.70622 1.20118,-0.57422 0.214,0.132 0.4969,-0.0427 0.6289,-0.38672 0.132,-0.344 0.4121,-0.625 0.6211,-0.625 0.21,0 0.25225,0.225 0.0977,0.5 -0.226,0.4 -0.17514,0.4 0.25586,0 0.297,-0.275 0.90838,-0.50286 1.35938,-0.50586 0.676,-0.005 0.7157,-0.0726 0.2207,-0.39258 -0.525,-0.339 -0.52026,-0.38953 0.0391,-0.39453 0.853,-0.008 2.95736,-1.07845 3.56836,-1.81445 0.27,-0.326 0.73611,-0.5918 1.03711,-0.5918 0.302,0 1.06146,-0.53831 1.68946,-1.19531 0.62791,-0.657 1.26129,-1.0776 1.40429,-0.9336 0.144,0.144 0.26172,0.0396 0.26172,-0.23242 0,-0.619 0.99075,-1.63867 1.59375,-1.63867 0.249,0 0.32497,-0.20889 0.16797,-0.46289 -0.157,-0.254 -0.1162,-0.35456 0.0918,-0.22656 0.629,0.388 2.90273,-0.93947 3.17773,-1.85547 0.142,-0.471 1.26886,-1.80861 2.50586,-2.97461 1.647,-1.552 2.1067,-2.20536 1.7207,-2.44336 -0.39,-0.242 -0.30211,-0.38482 0.33789,-0.55273 0.629,-0.164 0.82938,-0.4783 0.73438,-1.1543 -0.087,-0.625 0.0499,-0.8915 0.41992,-0.8125 0.371,0.079 0.48375,-0.14083 0.34375,-0.67383 -0.113,-0.435 0.0275,-1.12525 0.3125,-1.53125 0.316,-0.452 0.52788,-2.05 0.54688,-4.125 0.021,-2.316 -0.0915,-3.19711 -0.35547,-2.78711 -0.283,0.439 -0.38758,0.14611 -0.39258,-1.08789 -0.004,-1.263 -0.14374,-1.63356 -0.55274,-1.47656 -0.388,0.149 -0.51645,-0.0802 -0.43945,-0.78516 0.077,-0.7 -0.0506,-0.93506 -0.43164,-0.78906 -0.394,0.152 -0.49047,-0.0704 -0.35547,-0.81641 0.137,-0.756 0.0399,-0.9695 -0.36914,-0.8125 -0.305,0.117 -0.66097,-0.0671 -0.79297,-0.41015 -0.131,-0.343 -0.0313,-0.62305 0.22266,-0.62305 0.255,0 -0.0545,-0.54017 -0.6875,-1.20117 -0.84,-0.877 -1.23575,-1.06522 -1.46875,-0.69922 -0.254,0.4 -0.31922,0.399 -0.32422,0 -0.004,-0.3365 -0.29888,-0.49558 -0.625,-0.48633 z m -34.23242,4.14258 c -0.0451,0.002 -0.10957,0.007 -0.15235,0.008 -0.18556,0.006 -0.37101,-0.002 -0.55664,0 0.0593,0.0964 0.0975,0.16322 0.15821,0.26172 0.1563,-0.074 0.31412,-0.13162 0.45898,-0.22656 0.0306,-0.0201 0.0608,-0.0241 0.0918,-0.043 z m -56.49024,12.82226 c -0.19339,0.01 -0.38713,0.0148 -0.58007,0.0312 -0.31861,0.0272 -0.6906,0.0896 -1.05664,0.13672 0.67152,-0.0333 1.20199,-0.0824 1.63671,-0.16797 z m -5.93945,0.6875 c -0.26009,0.0255 -0.96374,0.10209 -1.18164,0.12696 0.5203,-0.0375 0.88777,-0.0745 1.18164,-0.12696 z m 94.86914,23.22266 c -0.22212,0.0455 -0.20712,0.14102 0.0117,0.29102 0.485,0.331 0.40761,0.41192 -0.40039,0.41992 -0.625,0.006 -1.35436,0.45712 -1.94336,1.20312 -0.518,0.656 -1.08291,1.106 -1.25391,1 -0.172,-0.106 -0.53273,0.0734 -0.80273,0.39844 -0.27,0.325 -0.64875,0.49209 -0.84375,0.37109 -0.195,-0.121 -0.35547,-0.0469 -0.35547,0.16211 0,0.468 -3.12803,1.75852 -3.58203,1.47852 -0.18,-0.112 -0.42588,0.17281 -0.54688,0.63281 -0.12,0.459 -0.39051,0.72866 -0.60351,0.59766 -0.453,-0.281 -3.4245,0.97364 -3.6875,1.55664 -0.099,0.22 -0.49586,0.37951 -0.88086,0.35351 -0.385,-0.026 -0.69922,0.12966 -0.69922,0.34766 0,0.218 -0.30478,0.14966 -0.67578,-0.15234 -0.59,-0.48 -0.64102,-0.46133 -0.41602,0.13867 0.141,0.378 0.0565,0.81189 -0.1875,0.96289 -0.269,0.166 -0.3312,0.0915 -0.1582,-0.1875 0.477,-0.773 -0.65394,-0.51654 -1.58594,0.35937 -0.481,0.452 -1.3544,0.87355 -1.9414,0.93555 -0.586,0.063 -1.262,0.30888 -1.5,0.54688 -0.239,0.239 -0.68138,0.33865 -0.98438,0.22265 -0.318,-0.122 -0.55078,0.0426 -0.55078,0.39258 0,0.408 -0.26078,0.53748 -0.80078,0.39648 -0.44,-0.11491 -0.79883,-0.0476 -0.79883,0.1504 0,0.198 -0.48703,0.40021 -1.08203,0.44921 -0.596,0.049 -1.26247,0.26833 -1.48047,0.48633 -0.219,0.219 -0.81236,0.39844 -1.31836,0.39844 -0.506,0 -0.91992,0.18039 -0.91992,0.40039 0,0.22 -0.45,0.40039 -1,0.40039 -0.55,0 -1,0.17844 -1,0.39844 0,0.22 -0.19083,0.40039 -0.42383,0.40039 -0.233,0 -0.29562,-0.225 -0.14062,-0.5 0.226,-0.4 0.17514,-0.4 -0.25586,0 -0.297,0.275 -0.93778,0.5 -1.42578,0.5 -0.487,0 -0.94749,0.17281 -1.02149,0.38281 -0.073,0.211 -0.79447,0.42647 -1.60547,0.48047 -0.811,0.053 -1.38534,0.24197 -1.27734,0.41797 0.177,0.286 -0.78149,0.47673 -2.14649,0.42773 -0.27191,-0.01 -0.39639,0.14094 -0.27539,0.33594 0.234,0.379 -0.27651,0.48809 -1.72851,0.37109 -0.495,-0.04 -0.89844,0.12047 -0.89844,0.35547 0,0.236 -0.61519,0.42969 -1.36719,0.42969 -0.751,0 -1.426,0.17372 -1.5,0.38672 -0.073,0.213 -0.7632,0.4247 -1.5332,0.4707 -0.77,0.046 -1.59312,0.22539 -1.82812,0.40039 -0.234,0.174 -0.99822,0.36107 -1.69922,0.41407 -0.7,0.054 -1.27344,0.22204 -1.27344,0.37304 0,0.151 -0.80883,0.24785 -1.79883,0.21485 -1.066,-0.035 -1.80178,0.11604 -1.80078,0.37304 0,0.239 -0.75378,0.46496 -1.67578,0.50196 -0.923,0.036 -1.77839,0.20876 -1.90039,0.38476 -0.123,0.177 -0.85305,0.31278 -1.62305,0.30078 -0.78,-0.012 -1.36817,0.1673 -1.32617,0.4043 0.046,0.26 -0.55769,0.37588 -1.55469,0.29688 -0.906,-0.072 -1.905,0.093 -2.25,0.37304 -0.492,0.398 -0.56026,0.39819 -0.32226,0.004 0.167,-0.278 0.10628,-0.5 -0.13672,-0.5 -0.24,0 -0.52196,0.225 -0.62696,0.5 -0.131,0.34 -0.89267,0.45628 -2.38867,0.36328 -2.016,-0.126 -2.99031,0.37033 -1.69531,0.86133 0.275,0.104 -0.72466,0.15142 -2.22266,0.10742 -1.49791,-0.044 -2.81382,0.0661 -2.92382,0.24414 -0.11,0.178 -1.01009,0.32422 -2,0.32422 -1.098,0 -1.70374,0.15639 -1.55274,0.40039 0.273,0.442 -0.34122,0.53355 -2.94922,0.43555 -0.962,-0.036 -2.40122,0.15483 -3.19922,0.42383 -0.799,0.26891 -2.57812,0.4522 -3.95312,0.4082 -1.796,-0.059 -2.5,0.0608 -2.5,0.42578 0,0.38 -0.86212,0.47395 -3.45703,0.37695 -2.477,-0.092 -3.54749,0.0159 -3.77149,0.37891 -0.216,0.349 -1.50462,0.5133 -4.14062,0.5293 -2.105,0.012 -3.82713,0.1259 -3.82813,0.2539 -0.001,0.294 -0.38142,0.31652 -5.98242,0.35352 -3.163,0.02 -4.67853,0.18148 -4.89453,0.52148 -0.231,0.363 -0.31522,0.33558 -0.32422,-0.10742 -0.01,-0.48 -0.0806,-0.49404 -0.34961,-0.0684 -0.268,0.422 -2.56306,0.52414 -11.16797,0.49414 -7.24191,-0.025 -10.91679,0.10272 -11.09179,0.38672 -0.319,0.517 -8.5918,0.45885 -8.5918,-0.0606 0,-0.194 -4.92909,-0.35156 -11,-0.35156 -7.09691,0 -11,-0.14334 -11,-0.40234 0,-0.25 -1.93625,-0.38261 -5.15625,-0.34961 -2.836,0.028 -5.37558,-0.083 -5.64258,-0.24805 -0.267,-0.165 -2.28342,-0.34062 -4.48242,-0.39062 -2.671,-0.061 -4.09869,-0.25498 -4.30469,-0.58789 -0.206,-0.333 -1.21855,-0.47102 -3.06055,-0.41602 -3.68891,0.111 -4.24065,0.059 -3.97265,-0.375 0.13,-0.21 -0.84835,-0.36342 -2.27735,-0.35742 -3.79391,0.015 -4.36867,-0.0431 -4.13867,-0.41406 0.116,-0.188 -1.34509,-0.36363 -3.24609,-0.39063 -1.902,-0.027 -3.64314,-0.23298 -3.86914,-0.45898 -0.225,-0.225 -0.90286,-0.41016 -1.50586,-0.41016 -0.603,0 -1.1935,-0.15756 -1.3125,-0.35156 -0.12,-0.193 -0.99817,-0.26325 -1.95117,-0.15625 -1.292,0.146 -1.90802,0.0217 -2.41602,-0.48633 -0.506,-0.506 -1.19583,-0.64497 -2.67383,-0.54297 -1.095,0.076 -1.99023,0.0219 -1.99023,-0.11914 0,-0.142 -0.29425,-0.37177 -0.65625,-0.50977 -0.573,-0.22 -0.58647,-0.16288 -0.10547,0.45703 0.518,0.669 0.50103,0.67026 -0.29297,-0.006 -0.573,-0.487 -1.29848,-0.6656 -2.27148,-0.5586 -0.995,0.11 -1.50125,-0.0188 -1.65625,-0.42383 -0.161,-0.421 -0.71351,-0.5424 -1.98242,-0.4414 -0.967,0.077 -1.67427,0.005 -1.57227,-0.16016 0.171,-0.278 -1.4035,-0.48008 -2.5625,-0.33008 -0.275,0.036 -0.5,-0.16912 -0.5,-0.45312 0.001,-0.364 -0.59019,-0.49536 -1.99219,-0.44336 -1.097,0.04 -2.09761,-0.0958 -2.22461,-0.30078 -0.127,-0.206 -0.63395,-0.37305 -1.12695,-0.37305 -0.493,0 -1.13855,-0.225 -1.43555,-0.5 -0.431,-0.4 -0.48186,-0.4 -0.25586,0 0.155,0.275 0.0924,0.5 -0.14062,0.5 -0.233,0 -0.42383,-0.18039 -0.42383,-0.40039 0,-0.22 -0.64083,-0.40039 -1.42383,-0.40039 -0.847,0 -1.322779,-0.16239 -1.175779,-0.40039 0.147,-0.238 -0.330743,-0.39844 -1.177734,-0.39844 -0.782991,0 -1.423828,-0.18039 -1.423828,-0.40039 0,-0.22 -0.640837,-0.40039 -1.423828,-0.40039 -0.783,0 -1.323172,-0.16138 -1.201172,-0.35938 0.123,-0.19791 -0.32129,-0.32334 -0.988281,-0.27734 -0.667,0.046 -1.409438,-0.15145 -1.648438,-0.43945 -0.239,-0.288 -0.952938,-0.52344 -1.585938,-0.52344 -0.632991,0 -1.152343,-0.20127 -1.152343,-0.44727 0,-0.24891 -0.351837,-0.35332 -0.798828,-0.23632 -0.439,0.115 -0.894719,0.0533 -1.011719,-0.13672 -0.118,-0.19 -0.459766,-0.25077 -0.759766,-0.13477 -0.300991,0.115 -0.6675,0.0162 -0.8125,-0.21875 -0.145,-0.235 -0.6225,-0.42578 -1.0625,-0.42578 -0.439991,0 -0.690687,-0.18039 -0.554687,-0.40039 0.204,-0.33 -0.879697,-0.52419 -2.054688,-0.36719 -0.141,0.019 -0.366,-0.14042 -0.5,-0.35742 -0.135,-0.216 -0.694149,-0.45716 -1.24414,-0.53516 -0.55,-0.077 -1.093032,-0.26306 -1.207032,-0.41406 -0.115,-0.151 -0.679868,-0.33706 -1.255859,-0.41406 -0.576991,-0.077 -1.298516,-0.34856 -1.603516,-0.60156 -0.304991,-0.253 -1.089149,-0.53877 -1.74414,-0.63477 -0.654,-0.096 -1.144844,-0.377 -1.089844,-0.625 C 73.55516,198.20435 73.240781,198 72.800781,198 c -1.333982,0 -1.383696,-0.0228 -1.929687,-0.92578 -0.432,-0.716 -0.48225,-0.7327 -0.28125,-0.0957 0.231,0.73591 0.204085,0.7406 -0.503906,0.0996 -0.412,-0.37291 -1.149626,-0.67773 -1.640626,-0.67773 -0.578991,0 -0.791515,-0.16475 -0.603515,-0.46875 0.194,-0.315 0.072,-0.38389 -0.375,-0.21289 -0.367,0.141 -0.666016,0.0632 -0.666016,-0.17383 0,-0.237 -0.265852,-0.32812 -0.589843,-0.20312 -0.325,0.124 -0.742735,-0.045 -0.927735,-0.37696 -0.186,-0.331 -0.710024,-0.63201 -1.166015,-0.66601 -0.456,-0.035 -0.750297,-0.26663 -0.654297,-0.51563 0.103,-0.269 -0.20015,-0.41718 -0.744141,-0.36718 -0.504991,0.047 -1.18954,-0.24825 -1.519531,-0.65625 -0.33,-0.407 -0.958438,-0.80286 -1.398438,-0.88086 -0.995991,-0.176 -3.395437,-1.57352 -3.398437,-1.97852 -0.002,-0.165 -0.283962,-0.30078 -0.626953,-0.30078 -0.343,0 -0.511,-0.18039 -0.375,-0.40039 0.135991,-0.22 -0.13361,-0.39844 -0.59961,-0.39844 -0.465991,0 -0.764109,-0.13578 -0.662109,-0.30078 0.101,-0.165 -0.56829,-0.33019 -1.488281,-0.36719 -1.470991,-0.06 -1.766947,0.0817 -2.460938,1.17969 -0.433991,0.686 -1.068203,1.75781 -1.408203,2.38281 -0.339,0.625 -0.733906,1.01705 -0.878906,0.87305 -0.268,-0.268 -0.811688,1.37659 -0.679688,2.05859 0.209,1.087 -0.02689,1.58366 -0.46289,0.97266 -0.344,-0.481 -0.390469,-0.42036 -0.230469,0.30664 0.109,0.499 -0.02674,1.13416 -0.302735,1.41016 -0.636991,0.637 -0.623406,6.35145 0.01563,6.56445 0.242991,0.081 0.355953,0.59081 0.251953,1.13281 -0.109,0.572 7.74e-4,0.98633 0.259765,0.98633 0.246,0 0.445313,0.43103 0.445313,0.95703 0,0.527 0.289578,1.06713 0.642578,1.20313 0.366,0.14 0.543109,0.50375 0.412109,0.84375 -0.126,0.329 -0.0415,0.5957 0.1875,0.5957 0.587,0 1.572523,1.05342 1.269532,1.35742 -0.292,0.291 1.264609,1.84375 1.849609,1.84375 0.216,0 0.520734,0.20694 0.677734,0.46094 0.188,0.303 0.09361,0.36192 -0.27539,0.16992 -0.309,-0.16 -0.203672,-0.0128 0.236328,0.32617 1.568982,1.208 1.81489,1.49533 1.58789,1.86133 -0.125991,0.205 0.0098,0.27897 0.300782,0.16797 0.290991,-0.112 1.201493,0.43108 2.021484,1.20508 0.820991,0.775 1.851016,1.4082 2.291016,1.4082 0.438991,0 0.798828,0.25727 0.798828,0.57227 0,0.315 0.367406,0.62922 0.816406,0.69922 0.449,0.07 0.765172,0.23142 0.701172,0.35742 -0.146,0.288 0.84515,1.21709 1.994141,1.87109 1.077982,0.613 1.419312,0.63639 1.070312,0.0703 -0.146,-0.236 0.113172,-0.19321 0.576172,0.0957 0.462991,0.289 0.841797,0.68204 0.841797,0.87304 0,0.191 0.277234,0.24033 0.615234,0.11133 0.373,-0.143 0.716094,0.037 0.871094,0.45703 0.344,0.932 0.74348,1.16288 3.314453,1.92188 2.616973,0.773 3.832728,1.29486 5.261719,2.25586 0.583991,0.393 1.439399,0.71484 1.90039,0.71484 0.461,0 0.837891,0.18797 0.837891,0.41797 0,0.229 0.225,0.38756 0.5,0.35156 1.360991,-0.177 2.106991,0.0367 1.5,0.42969 -0.468,0.302 -0.356991,0.38953 0.5,0.39453 0.604991,0.003 1.099609,0.14922 1.099609,0.32422 0,0.175 0.675009,0.36297 1.5,0.41797 0.825,0.054 1.559813,0.27142 1.632813,0.48242 0.074,0.21 0.559125,0.38086 1.078125,0.38086 0.519991,0 1.587009,0.37975 2.375,0.84375 0.786991,0.465 1.787665,0.75267 2.222656,0.63867 0.553,-0.145 0.792875,-0.007 0.796875,0.45508 0.005,0.574 0.05853,0.5825 0.394531,0.0625 0.258,-0.4 0.390532,-0.43269 0.394532,-0.0996 0.003,0.275 0.366649,0.5 0.80664,0.5 0.44,0 0.798828,0.18039 0.798828,0.40039 0,0.22 0.439563,0.40039 0.976563,0.40039 0.536991,0 1.088609,0.17844 1.224609,0.39844 0.136,0.22 0.866056,0.40039 1.623047,0.40039 0.756991,0 1.376953,0.18039 1.376953,0.40039 0,0.22 0.808829,0.40039 1.798829,0.40039 0.99,0 1.80078,0.18039 1.80078,0.40039 0,0.22 0.70917,0.39844 1.57617,0.39844 0.867,0 1.69013,0.1842 1.82813,0.4082 0.138,0.223 0.39908,0.31317 0.58008,0.20117 0.181,-0.112 1.02504,0.0295 1.87304,0.31446 0.849,0.285 1.93983,0.48912 2.42383,0.45312 0.485,-0.036 0.84383,0.13391 0.79883,0.37891 -0.05,0.275 0.67992,0.45184 1.91992,0.46484 1.1,0.011 2.52597,0.27879 3.16797,0.5957 0.887,0.437 1.20708,0.45925 1.33008,0.0898 0.113,-0.337 0.49762,-0.23597 1.26562,0.33203 0.817,0.604 1.53386,0.77239 2.75586,0.65039 0.908,-0.091 1.55641,-0.0122 1.44141,0.17383 -0.115,0.187 0.78219,0.33789 1.99219,0.33789 1.20991,0 2.31126,0.18039 2.44726,0.40039 0.136,0.22 1.31605,0.40039 2.62305,0.40039 1.317,0 2.37695,0.17839 2.37695,0.40039 0,0.229 1.20627,0.39844 2.82227,0.39844 1.553,0 2.7359,0.14249 2.6289,0.3164 -0.108,0.174 1.1841,0.36865 2.8711,0.43165 1.687,0.063 3.25065,0.25378 3.47265,0.42578 0.222,0.172 1.66318,0.35239 3.20118,0.40039 1.53691,0.049 2.887,0.23315 3,0.41015 0.11191,0.177 2.27273,0.35263 4.80273,0.39063 2.53,0.037 4.65942,0.23926 4.73242,0.44726 0.075,0.212 2.40987,0.37891 5.30078,0.37891 3.178,0 5.16797,0.15439 5.16797,0.40039 0,0.22 0.19083,0.39844 0.42383,0.39844 0.233,0 0.29372,-0.20694 0.13672,-0.46094 -0.186,-0.301 -0.10739,-0.35244 0.22461,-0.14844 0.279,0.173 5.48163,0.3971 11.56054,0.4961 6.513,0.106 11.11136,0.3365 11.19336,0.5625 0.081,0.224 2.6087,0.36208 6.09961,0.33008 3.446,-0.031 5.86728,-0.20602 5.73828,-0.41602 -0.203,-0.328 10.87475,-0.62339 19.72266,-0.52539 1.815,0.02 3.29883,-0.10434 3.29883,-0.27734 0,-0.173 2.29656,-0.41416 5.10156,-0.53516 2.805,-0.121 7.43316,-0.32227 10.28516,-0.44727 3.40691,-0.149 4.98361,-0.3527 4.59961,-0.5957 -0.393,-0.248 0.36645,-0.38778 2.31445,-0.42578 3.48,-0.067 3.55359,-0.0751 3.93359,-0.45508 0.165,-0.165 1.33843,-0.30078 2.60743,-0.30078 1.26891,0 2.76517,-0.17467 3.32617,-0.38867 0.56,-0.213 2.09611,-0.41999 3.41211,-0.45899 1.317,-0.04 2.29959,-0.22511 2.18359,-0.41211 -0.253,-0.41 0.20358,-0.46446 2.89258,-0.35546 1.138,0.047 2.17522,-0.11157 2.32422,-0.35157 0.147,-0.239 1.25688,-0.43359 2.46679,-0.43359 1.21,0 2.10147,-0.15947 1.98047,-0.35547 -0.12,-0.195 0.39644,-0.27287 1.14844,-0.17187 0.753,0.102 1.78688,-0.0385 2.29688,-0.31446 0.511,-0.275 1.51355,-0.46301 2.23046,-0.41601 0.716,0.046 1.70718,-0.13439 2.20118,-0.40039 0.493,-0.267 1.48031,-0.44739 2.19531,-0.40039 0.723,0.047 1.30078,-0.10857 1.30078,-0.35157 0,-0.24 0.16709,-0.33403 0.37109,-0.20703 0.205,0.126 0.49458,0.0359 0.64258,-0.20312 0.147,-0.238 0.51917,-0.33675 0.82617,-0.21875 0.308,0.118 0.56341,-0.004 0.56641,-0.27344 0.004,-0.309 0.15039,-0.26772 0.40039,0.11328 0.305,0.464 0.46584,0.48656 0.71484,0.10156 0.178,-0.274 0.8084,-0.53889 1.4004,-0.58789 0.59291,-0.049 1.07812,-0.24078 1.07812,-0.42578 0,-0.185 0.18039,-0.22381 0.40039,-0.0879 0.22,0.136 0.40039,0.0534 0.40039,-0.18164 0,-0.278 0.58116,-0.33411 1.66016,-0.16211 1.206,0.193 1.58295,0.13969 1.37695,-0.19531 -0.197,-0.319 0.20845,-0.46094 1.31445,-0.46094 0.88,0 1.71166,-0.18039 1.84766,-0.40039 0.136,-0.22 0.82144,-0.40511 1.52344,-0.41211 0.702,-0.007 1.61815,-0.27189 2.03515,-0.58789 0.417,-0.316 0.93162,-0.46694 1.14453,-0.33594 0.212,0.131 0.51107,0.0361 0.66407,-0.21094 0.153,-0.24691 0.74917,-0.48715 1.32617,-0.53515 0.576,-0.048 0.96247,-0.22935 0.85547,-0.40235 -0.108,-0.17291 0.44356,-0.3164 1.22656,-0.3164 0.869,0 1.42569,-0.195 1.42969,-0.5 0.004,-0.333 0.13653,-0.29844 0.39453,0.10156 0.329,0.509 0.38953,0.489 0.39453,-0.125 0.003,-0.398 0.17867,-0.61633 0.38867,-0.48633 0.211,0.13 1.01983,-0.0314 1.79883,-0.35742 0.78,-0.326 1.42083,-0.4655 1.42383,-0.3125 0.003,0.154 0.13878,0.097 0.30078,-0.12695 0.426,-0.591 2.598,-1.54669 3.25,-1.42969 0.307,0.054 0.70953,-0.13964 0.89453,-0.43164 0.27,-0.426 0.33875,-0.41449 0.34375,0.0586 0.004,0.393 0.21291,0.29322 0.62891,-0.30078 0.424,-0.606 1.03215,-0.88867 1.91015,-0.88867 0.831,0 1.49619,-0.28578 1.86719,-0.80078 0.317,-0.44 0.97961,-0.79883 1.47461,-0.79883 0.495,0 1.54122,-0.36078 2.32422,-0.80078 0.783,-0.44 1.68495,-0.80078 2.00195,-0.80078 1.085,0 4.14013,-1.72822 4.32813,-2.44922 0.125,-0.479 0.46648,-0.66559 1.02148,-0.55859 0.495,0.095 0.99747,-0.11563 1.23047,-0.51563 0.217,-0.372 0.39925,-0.51817 0.40625,-0.32617 0.007,0.192 0.27942,0.12551 0.60742,-0.14649 0.327,-0.27191 0.49796,-0.65265 0.37696,-0.84765 -0.121,-0.195 0.066,-0.35547 0.41601,-0.35547 0.35,0 0.73166,-0.24683 0.84766,-0.54883 0.127,-0.333 0.68411,-0.50926 1.41211,-0.44726 0.884,0.075 1.14528,-0.0442 0.98828,-0.45118 -0.129,-0.337 0.0566,-0.55459 0.47656,-0.55859 0.59,-0.005 0.60281,-0.0615 0.0879,-0.39453 -0.593,-0.383 -0.13656,-0.61127 0.89844,-0.44727 0.165,0.026 0.31403,-0.26734 0.33203,-0.65234 0.018,-0.398 0.11747,-0.49089 0.23047,-0.21289 0.214,0.528 0.46395,0.38486 2.37695,-1.36914 0.529,-0.485 0.96094,-0.77649 0.96094,-0.64649 0,0.13 0.40062,-0.28305 0.89062,-0.91796 0.489,-0.635 1.12697,-1.33555 1.41797,-1.56055 0.29,-0.224 0.55871,-0.80978 0.59571,-1.30078 0.039,-0.515 0.33036,-0.89258 0.69336,-0.89258 0.386,0 0.65989,-0.39716 0.71289,-1.03516 0.047,-0.57 0.44767,-1.54311 0.88867,-2.16211 0.44,-0.619 0.80078,-1.42311 0.80078,-1.78711 0,-0.364 0.18039,-0.55201 0.40039,-0.41601 0.645,0.398 0.51519,-6.40441 -0.13281,-6.94141 -0.307,-0.255 -0.45838,-0.93451 -0.35938,-1.60351 0.098,-0.668 -0.0431,-1.29175 -0.33008,-1.46875 -0.313,-0.193 -0.40042,-0.146 -0.23242,0.125 0.147,0.238 0.12692,0.52095 -0.0449,0.62695 -0.172,0.106 -0.33528,-0.36011 -0.36328,-1.03711 -0.031,-0.765 -0.40519,-1.521 -0.99219,-2 -0.519,-0.423 -0.6757,-0.6338 -0.3457,-0.4668 0.404,0.205 0.35457,0.0243 -0.15234,-0.55468 -0.415,-0.472 -0.91338,-0.76163 -1.10938,-0.64063 -0.196,0.121 -0.33178,0.0736 -0.30078,-0.10742 0.032,-0.182 0.0149,-0.46586 -0.0391,-0.63086 -0.053,-0.165 -0.12044,-0.52197 -0.14844,-0.79297 -0.03,-0.299 -0.83383,-0.54023 -2.04883,-0.61523 -0.7305,-0.045 -1.18998,-0.0486 -1.41211,-0.004 z M 52.896484,228.44922 c -0.06737,0.0386 -0.0303,0.16231 0.0957,0.38281 0.262991,0.46 0.2231,0.47304 -0.212891,0.0684 -0.721991,-0.67 -0.809096,-0.64164 -2.080078,0.69336 -0.605,0.635 -1.09961,1.27959 -1.09961,1.43359 0,0.153 -0.388328,0.61439 -0.861328,1.02539 -0.473991,0.411 -0.640093,0.74805 -0.371093,0.74805 0.327991,0 0.281319,0.20791 -0.138672,0.62891 -0.574,0.573 -0.69075,0.896 -0.59375,1.625 0.019,0.141 -0.206009,0.40402 -0.5,0.58593 -0.294,0.182 -0.543688,0.83232 -0.554688,1.44532 -0.011,0.613 -0.255969,1.54336 -0.542969,2.06836 -0.656991,1.199 -0.42064,5.96197 0.31836,6.41797 0.281991,0.175 0.520297,0.47587 0.529297,0.67187 0.009,0.195 0.07548,0.53586 0.146484,0.75586 0.072,0.22 0.186821,0.85039 0.257812,1.40039 0.071,0.55 0.350141,0.95539 0.619141,0.90039 0.27,-0.055 0.463726,0.0342 0.427735,0.19922 -0.166,0.771 0.881399,2.46853 1.40039,2.26953 0.308,-0.118 0.664016,0.0547 0.791016,0.38672 0.167,0.435 0.04373,0.53633 -0.447266,0.36133 -0.374,-0.133 -0.186984,0.15653 0.416016,0.64453 0.602991,0.489 1.290344,0.76905 1.527344,0.62305 0.260991,-0.161 0.378734,0.0266 0.302734,0.47461 -0.073,0.427 0.08405,0.69862 0.373047,0.64062 0.274991,-0.055 0.5,0.17 0.5,0.5 0,0.33 0.271571,0.59961 0.601562,0.59961 0.33,0 0.59961,0.19083 0.59961,0.42383 0,0.233 0.14618,0.3317 0.326171,0.2207 0.18,-0.111 0.580681,0.14817 0.888672,0.57617 0.309,0.429 0.791266,0.7793 1.072266,0.7793 0.282,0 0.511719,0.18039 0.511719,0.40039 0,0.22 0.360781,0.40039 0.800781,0.40039 0.444,0 0.800781,0.26661 0.800781,0.59961 0,0.33 0.260134,0.59961 0.578125,0.59961 0.319,0 1.061391,0.44619 1.650391,0.99219 0.588991,0.545 1.227922,0.89634 1.419922,0.77734 0.193,-0.119 0.351562,0.0737 0.351562,0.42969 0,0.356 0.164188,0.54492 0.367188,0.41992 0.202,-0.125 0.608352,0.0146 0.902343,0.30859 0.295,0.295 0.760204,0.4621 1.033204,0.3711 0.272991,-0.091 0.605281,0.11784 0.738281,0.46484 0.133,0.347 0.388359,0.54069 0.568359,0.42969 0.179,-0.111 0.595782,0.0704 0.925782,0.40039 0.453991,0.454 0.648781,0.47756 0.800781,0.10156 0.159,-0.392 0.205469,-0.39281 0.230469,0.004 0.018,0.275 0.31139,0.5 0.65039,0.5 0.339,0 1.00261,0.36078 1.47461,0.80078 0.471991,0.44 1.185899,0.80078 1.58789,0.80078 0.401,0 1.088391,0.17844 1.525391,0.39844 0.436991,0.22 1.152852,0.58078 1.589843,0.80078 0.437,0.22 1.067391,0.40039 1.400391,0.40039 0.333,0 0.603516,0.18039 0.603516,0.40039 0,0.22 0.282,0.39844 0.625,0.39844 0.346991,0 0.50446,0.19355 0.355469,0.43555 -0.169,0.272 0.08378,0.40546 0.675781,0.35546 1.720982,-0.143 2.21989,-0.0269 1.58789,0.37305 -0.366991,0.232 0.01691,0.34041 1.128907,0.31641 1.066991,-0.024 1.816828,0.17401 2.048828,0.54101 0.202,0.318 0.370047,0.42247 0.373047,0.23047 0.003,-0.192 0.247977,-0.14766 0.542968,0.0977 0.295,0.245 0.655782,0.32664 0.800782,0.18164 0.144991,-0.145 0.261718,-0.0529 0.261718,0.20312 0,0.257 0.324712,0.4668 0.720703,0.4668 0.396,0 0.935228,0.21647 1.199219,0.48047 0.373,0.373 0.480469,0.36038 0.480469,-0.0508 0,-0.425 0.117618,-0.4293 0.599609,-0.0293 0.484,0.401 0.603282,0.39003 0.613282,-0.0527 0.008,-0.368 0.146828,-0.31485 0.423828,0.16015 0.227,0.39 0.582062,0.60357 0.789062,0.47657 0.206,-0.128 0.375,-0.0216 0.375,0.23437 0,0.257 0.264891,0.36415 0.587891,0.24024 0.324,-0.124 0.833766,0.0203 1.134766,0.32031 0.675991,0.676 2.288071,0.91426 3.039062,0.44726 0.384,-0.239 0.470382,-0.20467 0.275391,0.11133 -0.195,0.316 0.16468,0.46094 1.138671,0.46094 0.783,0 1.423829,0.18039 1.423829,0.40039 0,0.22 0.630399,0.40039 1.40039,0.40039 0.769999,0 1.398439,0.18039 1.398439,0.40039 0,0.22 0.54117,0.40039 1.20117,0.40039 0.66,0 1.19922,0.14331 1.19922,0.32031 0,0.177 0.74906,0.36788 1.66406,0.42188 0.915,0.054 1.98305,0.26756 2.37305,0.47656 0.391,0.209 1.17133,0.38086 1.73633,0.38086 0.564,0 1.02734,0.18039 1.02734,0.40039 0,0.22 0.9,0.39844 2,0.39844 1.1,0 2,0.18039 2,0.40039 0,0.22 0.97878,0.40039 2.17578,0.40039 1.197,0 2.2641,0.14245 2.3711,0.31445 0.107,0.173 0.70321,0.28791 1.32421,0.25391 0.621,-0.033 1.48774,0.13595 1.92774,0.37695 0.44,0.24 1.50142,0.47072 2.35742,0.51172 0.855,0.041 1.66383,0.22806 1.79883,0.41406 0.134,0.186 0.78531,0.34833 1.44531,0.36133 0.66,0.013 2.09922,0.14969 3.19922,0.30469 1.1,0.155 2.9,0.38572 4,0.51172 1.1,0.126 2.13292,0.43545 2.29492,0.68945 0.2,0.315 0.29669,0.27033 0.30469,-0.13867 0.009,-0.452 0.092,-0.47434 0.33203,-0.0977 0.216,0.342 1.17219,0.46382 2.99219,0.38282 2.059,-0.091 2.67578,0.008 2.67578,0.42968 0,0.418 0.55984,0.51697 2.33984,0.41797 1.49,-0.083 2.56403,0.0549 2.95703,0.38086 0.427,0.355 1.88877,0.49041 4.75977,0.44141 2.422,-0.042 4.62378,0.12352 5.30078,0.39843 0.669,0.271 2.92661,0.44607 5.34961,0.41407 2.604,-0.034 4.29203,0.10704 4.45703,0.37304 0.178,0.288 3.5719,0.41005 10.38281,0.37305 8.368,-0.045 10.18147,0.0456 10.48047,0.51758 0.311,0.491 0.36219,0.48812 0.36719,-0.0117 0.004,-0.366 0.14577,-0.43922 0.38477,-0.19922 0.23,0.23 4.171,0.30069 10,0.17969 6.27991,-0.131 9.6249,-0.0598 9.6289,0.20117 0.003,0.22 0.16724,0.14308 0.36524,-0.16992 0.299,-0.472 2.13086,-0.56163 10.63086,-0.51563 7.91091,0.044 10.22798,-0.0557 10.08398,-0.42968 -0.142,-0.369 1.10587,-0.46535 5.17578,-0.40235 3.339,0.052 5.27395,-0.0618 5.12695,-0.30078 -0.28691,-0.463 0.12281,-0.49678 5.13672,-0.42578 2.16,0.03 3.83752,-0.0896 3.72852,-0.26562 -0.108,-0.176 0.10466,-0.33261 0.47266,-0.34961 4.37691,-0.199 5.50684,-0.32568 5.71484,-0.63868 0.134,-0.202 1.38906,-0.36246 2.78906,-0.35546 1.554,0.007 2.66361,-0.1748 2.84961,-0.4668 0.218,-0.343 0.30936,-0.30986 0.31836,0.11914 0.009,0.463 0.0869,0.48381 0.33789,0.0879 0.205,-0.323 1.37225,-0.54561 3.15625,-0.59961 1.557,-0.047 2.74753,-0.22072 2.64453,-0.38672 -0.183,-0.295 1.90471,-0.50572 3.84571,-0.38672 0.541,0.033 1.10967,-0.14453 1.26367,-0.39453 0.154,-0.249 1.11481,-0.45312 2.13281,-0.45312 1.113,0 1.64398,-0.13113 1.33398,-0.32813 -0.54,-0.342 -0.44171,-0.3609 2.48829,-0.5039 0.77291,-0.038 1.59321,-0.18513 1.82421,-0.32813 0.23,-0.142 1.44232,-0.30056 2.69532,-0.35156 1.252,-0.05 2.27734,-0.24183 2.27734,-0.42383 0,-0.183 0.80883,-0.33203 1.79883,-0.33203 0.99,0 1.80078,-0.17844 1.80078,-0.39844 0,-0.22 0.50314,-0.40039 1.11914,-0.40039 0.616,0 1.29291,-0.17181 1.50391,-0.38281 0.211,-0.211 1.13001,-0.436 2.04101,-0.5 0.912,-0.064 1.57561,-0.25297 1.47461,-0.41797 -0.167,-0.27 0.81272,-0.41425 2.76172,-0.40625 0.385,0.002 0.69922,-0.1547 0.69922,-0.3457 0,-0.191 0.63039,-0.34766 1.40039,-0.34766 0.77,0 1.40039,-0.18039 1.40039,-0.40039 0,-0.22 0.70917,-0.40039 1.57617,-0.40039 0.867,0 1.67302,-0.1557 1.79102,-0.3457 0.118,-0.191 0.64578,-0.26311 1.17578,-0.16211 0.529,0.102 1.08347,-0.012 1.23047,-0.25 0.166,-0.269 0.0315,-0.34332 -0.35352,-0.19532 -0.342,0.131 -0.62109,0.0513 -0.62109,-0.17773 0,-0.229 0.45953,-0.33147 1.01953,-0.23047 0.588,0.107 1.26546,-0.0662 1.60937,-0.41016 0.327,-0.327 0.8596,-0.49118 1.1836,-0.36718 0.338,0.13 0.59075,-0.006 0.59375,-0.31836 0.005,-0.425 0.0869,-0.41437 0.37891,0.0469 0.32291,0.512 0.40423,0.50691 0.61523,-0.041 0.155,-0.406 0.57183,-0.56617 1.17383,-0.45117 0.513,0.098 1.07227,-0.0453 1.24218,-0.32032 0.212,-0.344 0.14616,-0.39878 -0.21484,-0.17578 -0.353,0.218 -0.42751,0.1677 -0.22851,-0.1543 0.162,-0.263 0.64145,-0.37032 1.06445,-0.23632 0.477,0.152 0.84933,0.0279 0.98633,-0.32813 0.157,-0.411 0.69352,-0.5243 1.89843,-0.4043 1.244,0.124 1.52313,0.058 1.07813,-0.25 -0.627,-0.435 -0.32092,-0.57545 0.95508,-0.43945 0.415,0.045 0.88311,-0.125 1.03711,-0.375 0.155,-0.25 0.67329,-0.48353 1.15429,-0.51953 0.55,-0.041 0.79797,-0.26456 0.66797,-0.60156 -0.112,-0.294 -0.0512,-0.43922 0.13477,-0.32422 0.36,0.223 2.44226,-0.61733 2.44726,-0.98633 0.002,-0.12 0.67605,-0.26336 1.49805,-0.31836 0.822,-0.056 1.64131,-0.36164 1.82031,-0.68164 0.178,-0.32 0.56543,-0.58203 0.85743,-0.58203 0.29191,0 0.75334,-0.26961 1.02734,-0.59961 0.274,-0.33 0.81517,-0.59961 1.20117,-0.59961 0.386,0 0.91582,-0.25822 1.17773,-0.57422 0.262,-0.316 1.0054,-0.69003 1.6504,-0.83203 0.64391,-0.142 1.17473,-0.46856 1.17773,-0.72656 0.004,-0.27 0.17053,-0.21319 0.39453,0.13281 0.229,0.355 0.38858,0.40695 0.39258,0.12695 0.003,-0.26 0.37994,-0.59132 0.83594,-0.73632 0.515,-0.164 0.74447,-0.48466 0.60547,-0.84766 -0.124,-0.321 -0.0623,-0.48533 0.13671,-0.36133 0.2,0.123 0.62822,-0.0384 0.94922,-0.35937 0.322,-0.322 0.70933,-0.45964 0.86133,-0.30664 0.153,0.152 0.45297,-0.0369 0.66797,-0.41993 0.214,-0.383 0.66019,-0.69531 0.99219,-0.69531 0.333,0 0.49342,-0.18039 0.35742,-0.40039 -0.136,-0.22 0.0843,-0.40039 0.48828,-0.40039 0.405,0 0.98788,-0.3503 1.29688,-0.7793 0.308,-0.428 0.69537,-0.69475 0.85937,-0.59375 0.164,0.102 0.41464,-0.18095 0.55664,-0.62695 0.142,-0.446 0.3935,-0.72609 0.5625,-0.62109 0.558,0.344 2.10138,-1.03507 1.85938,-1.66407 -0.158,-0.412 -0.0474,-0.5319 0.35156,-0.3789 0.36,0.138 0.6838,-0.0889 0.8418,-0.58789 0.141,-0.445 0.35275,-0.71366 0.46875,-0.59766 0.381,0.381 1.35637,-0.91571 1.23437,-1.64062 -0.066,-0.39 0.0926,-0.66806 0.35156,-0.61915 0.259,0.05 0.70138,-0.43326 0.98438,-1.07226 0.282,-0.639 0.68176,-1.05764 0.88476,-0.93164 0.208,0.129 0.2876,-0.3183 0.1836,-1.0293 -0.101,-0.691 -0.0251,-1.25781 0.16992,-1.25781 0.195,0 0.25005,-0.16709 0.12305,-0.37109 -0.126,-0.205 -0.0481,-0.4841 0.17187,-0.6211 0.227,-0.14 0.35964,-1.61167 0.30664,-3.38867 -0.052,-1.727 -0.22953,-3.05608 -0.39453,-2.95508 -0.165,0.101 -0.30078,-0.36606 -0.30078,-1.03906 0,-0.673 -0.18039,-1.22461 -0.40039,-1.22461 -0.22,0 -0.39844,-0.30283 -0.39844,-0.67383 0,-0.371 -0.40539,-1.12101 -0.90039,-1.66601 -0.495,-0.544 -0.66309,-0.8516 -0.37109,-0.6836 0.439,0.255 0.439,0.14977 0,-0.61523 -0.73,-1.27 -1.92855,-2.59272 -1.93555,-2.13672 -0.003,0.206 -0.23272,-0.075 -0.51172,-0.625 -0.343,-0.678 -0.84641,-1.00558 -1.56641,-1.01758 -0.58391,-0.01 -0.98081,0.11149 -0.88281,0.27149 0.099,0.16 -0.004,0.40496 -0.22656,0.54296 -0.224,0.138 -0.40625,0.0772 -0.40625,-0.13476 0,-0.212 -0.37498,-0.28797 -0.83398,-0.16797 -0.634,0.166 -0.70679,0.29769 -0.30079,0.55469 0.388,0.246 0.28877,0.35548 -0.36523,0.39648 -1.743,0.109 -1.9007,0.18038 -1.8457,0.85938 0.03,0.378 -0.0896,0.59828 -0.26758,0.48828 -0.177,-0.11 -0.60708,0.0836 -0.95508,0.43164 -0.347,0.348 -0.63086,0.49322 -0.63086,0.32422 0,-0.17 -0.20222,-0.10638 -0.44922,0.14062 -0.247,0.247 -0.7274,0.34289 -1.0664,0.21289 -0.405,-0.156 -0.51813,-0.0765 -0.32813,0.23047 0.174,0.281 0.04,0.4668 -0.33398,0.4668 -0.343,0 -0.62305,0.19083 -0.62305,0.42383 0,0.233 -0.18039,0.31373 -0.40039,0.17773 -0.22,-0.136 -0.40039,-0.0733 -0.40039,0.13867 0,0.212 -0.35883,0.29078 -0.79883,0.17578 -0.44,-0.115 -0.80078,-0.0229 -0.80078,0.20508 0,0.228 -0.9,0.82136 -2,1.31836 -1.1,0.497 -2,1.01249 -2,1.14649 0,0.134 -0.38828,0.27454 -0.86328,0.31054 -0.475,0.036 -0.99335,0.2733 -1.15235,0.5293 -0.209,0.339 -0.3459,0.31808 -0.5039,-0.0801 -0.154,-0.387 -0.22605,-0.40008 -0.24805,-0.0449 -0.018,0.275 -0.35119,0.5 -0.74219,0.5 -0.391,0 -1.01948,0.36078 -1.39648,0.80078 -0.377,0.44 -1.10138,0.79883 -1.60938,0.79883 -0.508,0 -1.09754,0.17372 -1.31054,0.38672 -0.212,0.212 -0.96769,0.43133 -1.67969,0.48633 -0.711,0.054 -1.29297,0.23911 -1.29297,0.41211 0,0.173 -0.36078,0.31445 -0.80078,0.31445 -0.44,0 -0.80078,0.18039 -0.80078,0.40039 0,0.22 -0.35883,0.40039 -0.79883,0.40039 -0.44,0 -0.80078,0.17567 -0.80078,0.38867 0,0.213 -0.85539,0.34683 -1.90039,0.29883 -1.436,-0.067 -1.86925,0.0469 -1.78125,0.46289 0.08,0.376 -0.14317,0.48289 -0.70117,0.33789 -0.579,-0.152 -0.81827,-0.0198 -0.82227,0.44922 -0.005,0.578 -0.0616,0.5855 -0.43164,0.0625 -0.287,-0.407 -0.48528,-0.45358 -0.61328,-0.14258 -0.103,0.251 -0.51883,0.37163 -0.92383,0.26563 -0.405,-0.106 -0.85699,0.003 -1.0039,0.24218 -0.148,0.239 -0.61793,0.43555 -1.04493,0.43555 -0.427,0 -0.77734,0.19083 -0.77734,0.42383 0,0.233 -0.18039,0.31178 -0.40039,0.17578 -0.22,-0.136 -0.4013,0.0786 -0.4043,0.47656 -0.004,0.489 -0.1065,0.56524 -0.3125,0.24024 -0.436,-0.684 -2.08089,-0.47342 -2.08789,0.26758 -0.005,0.498 -0.0716,0.51094 -0.34961,0.0723 -0.256,-0.403 -0.41976,-0.42094 -0.63476,-0.0723 -0.16,0.258 -0.53689,0.37476 -0.83789,0.25976 -0.301,-0.116 -1.04816,0.0492 -1.66016,0.36719 -0.611,0.318 -1.44933,0.47084 -1.86133,0.33984 -0.49,-0.155 -0.65556,-0.0839 -0.47656,0.20508 0.267,0.433 -0.70083,0.62694 -2.29883,0.46094 -0.398,-0.042 -1.01795,0.16212 -1.37695,0.45312 -0.555,0.45 -0.59983,0.44061 -0.29883,-0.0703 0.288,-0.489 0.24467,-0.513 -0.23633,-0.125 -0.324,0.262 -1.09394,0.56769 -1.71094,0.67969 -0.617,0.112 -1.33189,0.36364 -1.58789,0.55664 -0.256,0.193 -1.04867,0.29361 -1.76367,0.22461 -0.715,-0.069 -1.30078,0.0525 -1.30078,0.26953 0,0.217 -0.70917,0.39453 -1.57617,0.39453 -0.867,0 -1.68822,0.18039 -1.82422,0.40039 -0.136,0.22 -1.12522,0.39844 -2.19922,0.39844 -1.074,0 -2.06517,0.18039 -2.20117,0.40039 -0.136,0.22 -1.12154,0.40039 -2.18945,0.40039 -1.069,0 -2.00218,0.16705 -2.07618,0.37305 -0.073,0.206 -1.1847,0.431 -2.4707,0.5 -1.286,0.069 -2.42339,0.26273 -2.52539,0.42773 -0.102,0.165 -1.08359,0.29883 -2.18359,0.29883 -1.494,0 -1.92518,0.127 -1.70118,0.5 0.175,0.291 -0.0141,0.25031 -0.45312,-0.0996 -0.439,-0.35 -0.62813,-0.39069 -0.45313,-0.0996 0.225,0.374 -0.216,0.5 -1.75,0.5 -1.12691,0 -2.37162,0.17181 -2.76562,0.38281 -0.393,0.211 -2.18166,0.41513 -3.97266,0.45313 -1.792,0.038 -3.25781,0.22501 -3.25781,0.41601 0,0.191 -1.53039,0.34766 -3.40039,0.34766 -2,0 -3.40039,0.16539 -3.40039,0.40039 0,0.232 -1.30614,0.40039 -3.11914,0.40039 -1.716,0 -3.29481,0.17372 -3.50781,0.38672 -0.212,0.212 -3.12943,0.40759 -6.48243,0.43359 -3.35191,0.027 -5.99976,0.20168 -5.88476,0.38868 0.216,0.349 -11.47051,0.71668 -29.48633,0.92968 -5.72391,0.067 -10.18445,-0.0336 -10.06445,-0.22656 0.117,-0.19 -2.90771,-0.3315 -6.72071,-0.3125 -10.69282,0.051 -11.2024,0.0343 -10.9414,-0.38867 0.152,-0.246 -2.0018,-0.38967 -5.8418,-0.38867 -3.656,0.002 -6.24905,-0.16116 -6.49805,-0.41016 -0.227,-0.227 -1.72603,-0.41211 -3.33203,-0.41211 -2.06591,0 -2.92178,-0.146 -2.92578,-0.5 -0.004,-0.333 -0.13653,-0.30031 -0.39453,0.0996 -0.258,0.4 -0.39053,0.43269 -0.39453,0.0996 -0.004,-0.361 -0.96069,-0.5 -3.42969,-0.5 -2.18,0 -3.33278,-0.14539 -3.17578,-0.40039 0.158,-0.255 -1.00517,-0.40039 -3.20117,-0.40039 -1.896,0 -3.35233,-0.15293 -3.23633,-0.33984 0.115,-0.187 -1.08982,-0.37588 -2.67773,-0.42188 -1.587,-0.045 -2.94458,-0.25098 -3.01758,-0.45898 -0.074,-0.208 -1.01861,-0.37891 -2.09961,-0.37891 -1.082,0 -1.96875,-0.18039 -1.96875,-0.40039 0,-0.222 -1.06544,-0.39844 -2.39844,-0.39844 -1.444,0 -2.40039,-0.17264 -2.40039,-0.43164 0,-0.263 -0.77691,-0.38726 -2.00391,-0.32226 -1.15691,0.061 -2.20351,-0.0941 -2.47851,-0.36915 -0.262,-0.262 -1.24083,-0.47851 -2.17383,-0.47851 -0.933,0 -1.81212,-0.18606 -1.95312,-0.41406 -0.141,-0.228 -0.94602,-0.37227 -1.79102,-0.32227 -0.844,0.05 -1.77341,-0.0924 -2.06641,-0.31445 -0.293,-0.222 -1.05536,-0.43665 -1.69336,-0.47656 -0.63691,-0.04 -1.35661,-0.22135 -1.59961,-0.40235 -0.24191,-0.181 -0.80023,-0.35758 -1.24023,-0.39258 -1.26,-0.102 -1.95977,-0.27318 -2.50977,-0.61718 -0.27991,-0.175 -1.18,-0.26999 -2,-0.20899 -0.98091,0.072 -1.45853,-0.0513 -1.39453,-0.36133 0.063,-0.303 -0.32975,-0.42298 -1.09375,-0.33398 -0.675964,0.079 -1.389481,-0.0982 -1.646481,-0.4082 -0.249991,-0.301 -0.656297,-0.54402 -0.904297,-0.54102 -0.247991,0.003 -0.181562,0.18153 0.148438,0.39453 0.33,0.213 0.415453,0.38958 0.189453,0.39258 -0.226,0.003 -0.788047,-0.25808 -1.248047,-0.58008 -0.460991,-0.322 -0.949899,-0.47103 -1.08789,-0.33203 -0.139,0.139 -0.253907,0.0184 -0.253907,-0.26758 0,-0.371 -0.403939,-0.45211 -1.419921,-0.28711 -1.057991,0.172 -1.482259,0.0731 -1.65625,-0.38086 -0.136,-0.355 -0.539853,-0.52897 -0.964844,-0.41797 -0.418,0.109 -0.694523,-0.008 -0.644532,-0.26953 0.052,-0.278 -0.426899,-0.43443 -1.21289,-0.39843 -0.713991,0.032 -1.197172,-0.10379 -1.076172,-0.30079 0.222,-0.358 -0.588603,-0.5169 -1.933594,-0.3789 -0.389991,0.04 -0.659609,-0.15464 -0.599609,-0.43164 0.07,-0.324 -0.392025,-0.52174 -1.291016,-0.55274 -2.092982,-0.071 -4.4225,-0.63853 -4.1875,-1.01953 0.114,-0.184 -0.146125,-0.26659 -0.578125,-0.18359 -0.430991,0.083 -0.996821,-0.10492 -1.257812,-0.41992 -0.261,-0.315 -0.892353,-0.57227 -1.402344,-0.57227 -0.509991,0 -1.039781,-0.18039 -1.175781,-0.40039 -0.136,-0.22 -0.58029,-0.40039 -0.988281,-0.40039 -0.409,0 -0.834313,-0.225 -0.945313,-0.5 -0.14,-0.347 -0.212375,-0.31884 -0.234375,0.0898 -0.022,0.406 -0.225297,0.31122 -0.654297,-0.30078 -0.361,-0.516 -1.042047,-0.88867 -1.623047,-0.88867 -0.550991,0 -0.91364,-0.14145 -0.80664,-0.31445 0.107,-0.173 -0.153181,-0.34863 -0.576172,-0.39063 -1.730991,-0.171 -1.970703,-0.24351 -1.970703,-0.60351 0,-0.207 -0.265844,-0.27539 -0.589844,-0.15039 -0.325,0.124 -0.730391,-0.0212 -0.900391,-0.32422 -0.171,-0.303 -0.580156,-0.61255 -0.910156,-0.68555 -0.33,-0.072 -0.91579,-0.47458 -1.300781,-0.89258 C 64.314251,234.21823 64,234.09152 64,234.35352 c 0,0.263 -0.40154,0.10353 -0.894531,-0.35547 -0.592,-0.551 -0.947735,-0.67047 -1.052735,-0.35547 -0.098,0.292 -0.463406,0.10358 -0.941406,-0.48242 -0.429991,-0.528 -0.64546,-0.70458 -0.480469,-0.39258 0.193,0.365 -0.07495,0.29478 -0.751953,-0.19922 -0.578991,-0.422 -1.060406,-1.01255 -1.066406,-1.31055 -0.009,-0.387 -0.33029,-0.47106 -1.113281,-0.28906 -0.717,0.166 -0.910641,0.12858 -0.556641,-0.10742 0.657991,-0.439 0.137272,-0.83127 -1.261719,-0.94727 -0.544991,-0.045 -0.913359,-0.28325 -0.818359,-0.53125 0.095,-0.247 -0.0607,-0.45775 -0.345703,-0.46875 -0.284,-0.01 -0.862212,-0.16098 -1.283203,-0.33398 -0.2975,-0.123 -0.469735,-0.16949 -0.53711,-0.13086 z m -0.916015,40.09961 c -0.24425,10e-4 -0.38086,0.096 -0.38086,0.29297 0,0.217 -0.311406,0.33939 -0.691406,0.27539 -0.379991,-0.065 -0.710375,0.0632 -0.734375,0.2832 -0.095,0.88 -0.677625,1.78322 -1.015625,1.57422 -0.197,-0.122 -0.357422,0.0698 -0.357422,0.42578 0,0.357 -0.192734,0.52881 -0.427734,0.38281 -0.234,-0.145 -0.378359,-0.0197 -0.318359,0.27735 0.059,0.297 -0.23811,1.16945 -0.66211,1.93945 -0.897991,1.632 -1.160694,4.423 -0.470703,5 0.636991,0.533 0.61189,2.71591 -0.03711,3.12891 -0.738,0.471 -0.489132,3.47718 0.380859,4.61718 0.398,0.521 0.625859,1.10679 0.505859,1.30079 -0.12,0.19391 -0.04026,0.35351 0.177735,0.35351 0.397991,0 1.078687,1.53661 0.929687,2.09961 -0.043,0.165 0.0557,0.27991 0.220703,0.25391 1.034991,-0.164 1.493382,0.0623 0.900391,0.44531 -0.507991,0.328 -0.488085,0.38953 0.128906,0.39453 0.809991,0.007 1.871094,0.9098 1.871094,1.5918 0,0.662 2.757688,3.28834 3.179688,3.02734 0.200991,-0.124 0.495305,-0.0148 0.654296,0.24219 0.181,0.293 0.116125,0.36159 -0.171875,0.18359 -0.253991,-0.157 -0.46289,-0.0829 -0.46289,0.16406 0,0.246 0.405399,0.39127 0.90039,0.32227 0.555,-0.077 0.862782,0.066 0.800782,0.375 -0.055,0.275 0.180437,0.5 0.523437,0.5 0.37,0 0.507891,0.18789 0.337891,0.46289 -0.195,0.315 -0.02013,0.39214 0.546875,0.24414 0.614991,-0.161 0.773413,-0.0648 0.607422,0.36719 -0.136,0.354 -0.0059,0.55381 0.330078,0.50781 0.930991,-0.13 1.556812,0.002 1.507812,0.31836 -0.14,0.884 0.129712,1.29883 0.845703,1.29883 0.44,0 0.800782,0.18039 0.800782,0.40039 0,0.22 0.583828,0.40325 1.298828,0.40625 0.985991,0.005 1.156163,0.10053 0.701172,0.39453 -0.483,0.312 -0.418773,0.38953 0.324218,0.39453 0.595,0.004 0.820719,0.1688 0.636719,0.4668 -0.181,0.292 -0.108687,0.35401 0.195313,0.16601 0.262991,-0.163 0.774727,-0.0557 1.136718,0.23829 0.459,0.371 0.570273,0.38274 0.363282,0.0391 -0.202,-0.337 -0.09969,-0.42077 0.320312,-0.25977 0.34,0.131 0.518476,0.40066 0.396485,0.59766 -0.122,0.197 0.05934,0.35742 0.402343,0.35742 0.343,0 0.625,0.15952 0.625,0.35352 0,0.393 1.433853,0.94517 2.464844,0.95117 0.433,0.002 0.584632,0.21823 0.431641,0.61523 -0.157,0.409 -0.07405,0.51255 0.251953,0.31055 0.266991,-0.165 0.739781,-0.0881 1.050781,0.16992 0.311,0.258 0.781922,0.33488 1.044922,0.17188 0.304,-0.188 0.374359,-0.12599 0.193359,0.16601 -0.254991,0.413 0.223509,0.64081 1.0625,0.50781 0.165,-0.026 0.298828,0.13352 0.298828,0.35352 0,0.22 0.282009,0.40039 0.625,0.40039 0.343,0 0.512898,-0.17753 0.378907,-0.39453 -0.318,-0.514 1.034743,-0.01 1.677734,0.625 0.264,0.261 0.368422,0.5847 0.232422,0.7207 -0.136,0.137 0.513368,0.24805 1.443359,0.24805 0.929991,0 1.604,0.13764 1.5,0.30664 -0.104,0.168 0.245353,0.51267 0.777344,0.76367 0.728991,0.344 0.898453,0.34271 0.689453,-0.008 -0.153,-0.255 0.02553,-0.21773 0.394531,0.082 0.37,0.299 0.963313,0.43192 1.320313,0.29492 0.466991,-0.179 0.58496,-0.0785 0.417969,0.35547 -0.174,0.454 0.05764,0.60547 0.93164,0.60547 0.64,0 1.27611,0.18039 1.41211,0.40039 0.135991,0.22 0.787274,0.40039 1.447265,0.40039 0.66,0 1.100516,0.16042 0.978516,0.35742 -0.122,0.197 0.451399,0.45713 1.27539,0.57813 2.989982,0.437 4.097516,0.76398 4.103516,1.20898 0.003,0.25 0.18154,0.18547 0.394531,-0.14453 0.303,-0.468 0.389532,-0.48161 0.394532,-0.0547 0.004,0.354 0.296078,0.47103 0.830078,0.33203 0.519991,-0.13591 0.911649,0.007 1.05664,0.38672 0.188,0.49 0.293219,0.50204 0.574219,0.0684 0.219,-0.34 0.45354,-0.38781 0.644531,-0.13281 0.165,0.22 0.659602,0.46111 1.099611,0.53711 0.44,0.075 0.86059,0.3 0.93359,0.5 0.074,0.199 0.83822,0.36328 1.69922,0.36328 0.862,0 1.56836,0.18606 1.56836,0.41406 0,0.227 0.4927,0.34563 1.0957,0.26563 0.602,-0.081 1.33396,0.0937 1.62696,0.38672 0.293,0.293 1.24047,0.5332 2.10547,0.5332 0.86391,0 1.57226,0.18039 1.57226,0.40039 0,0.22 0.80883,0.39844 1.79883,0.39844 0.99,0 1.80078,0.14336 1.80078,0.31836 0,0.175 0.66547,0.36297 1.48047,0.41797 0.814,0.055 1.67511,0.26198 1.91211,0.45898 0.237,0.197 1.37153,0.40013 2.51953,0.45313 1.149,0.052 2.08789,0.20865 2.08789,0.34765 0,0.138 0.88861,0.23103 1.97461,0.20703 1.097,-0.025 1.875,0.11636 1.75,0.31836 -0.127,0.205 0.147,0.24779 0.625,0.0957 0.471,-0.15 0.84961,-0.0959 0.84961,0.12109 0,0.215 0.82789,0.37828 1.83789,0.36328 1.01,-0.015 1.967,0.1805 2.125,0.4375 0.184,0.298 1.17732,0.4218 2.74023,0.3418 1.348,-0.07 2.37039,-7e-4 2.27539,0.1543 -0.096,0.15491 0.10532,0.38853 0.44532,0.51953 0.42,0.161 0.52231,0.0772 0.32031,-0.25977 -0.23,-0.382 -0.1657,-0.3873 0.2793,-0.0293 0.32,0.257 1.60095,0.42591 2.87695,0.37891 1.756,-0.064 2.30078,0.0485 2.30078,0.48047 0,0.448 0.57783,0.5342 2.79883,0.4082 1.54,-0.087 2.80078,-0.0291 2.80078,0.12891 0,0.268 1.42048,0.37388 12.90039,0.96679 2.365,0.122 4.29883,0.39166 4.29883,0.59766 0,0.219 2.97678,0.375 7.17578,0.375 4.353,0 7.27383,0.15544 7.42383,0.39844 0.159,0.258 7.19687,0.40039 19.80078,0.40039 12.60391,0 19.64178,-0.14239 19.80078,-0.40039 0.15,-0.243 3.07083,-0.39844 7.42383,-0.39844 4.51691,0 7.17578,-0.14839 7.17578,-0.40039 0,-0.242 1.72219,-0.40039 4.36719,-0.40039 2.401,0 4.426,-0.17186 4.5,-0.38086 0.073,-0.209 1.8882,-0.41022 4.0332,-0.44922 2.145,-0.039 3.89844,-0.20895 3.89844,-0.37695 0,-0.167 1.47058,-0.2107 3.26758,-0.0957 2.49691,0.159 3.37017,0.0782 3.70117,-0.34375 0.288,-0.368 1.291,-0.55274 3,-0.55274 1.428,0 2.62708,-0.18497 2.70508,-0.41797 0.082,-0.246 1.03803,-0.36034 2.33203,-0.27734 1.652,0.105 2.19531,0.006 2.19531,-0.4043 0,-0.421 0.64433,-0.51144 2.86133,-0.39844 1.977,0.101 2.95501,-0.006 3.16601,-0.34765 0.168,-0.272 1.02721,-0.53403 1.90821,-0.58203 0.881,-0.048 1.84081,-0.23602 2.13281,-0.41602 0.293,-0.181 1.03439,-0.27594 1.65039,-0.21094 0.616,0.065 1.37645,-0.0935 1.68945,-0.35351 0.313,-0.259 1.24908,-0.47266 2.08008,-0.47266 0.831,0.001 1.60571,-0.15094 1.72071,-0.33594 0.11491,-0.185 1.14882,-0.37864 2.29882,-0.43164 1.15,-0.052 2.0918,-0.24382 2.0918,-0.42382 0,-0.181 0.55161,-0.32813 1.22461,-0.32813 0.704,0 1.11951,-0.16753 0.97851,-0.39453 -0.13991,-0.227 0.019,-0.2942 0.375,-0.1582 0.342,0.131 0.6211,0.0712 0.6211,-0.13477 0,-0.205 0.54117,-0.29418 1.20117,-0.19727 0.72,0.105 1.19922,-0.003 1.19922,-0.27148 0,-0.251 0.68336,-0.44336 1.56836,-0.44336 0.874,0 1.63751,-0.21628 1.72851,-0.48828 0.097,-0.291 0.75468,-0.44572 1.63868,-0.38672 0.942,0.064 1.55554,-0.0945 1.68554,-0.43555 0.119,-0.31 0.70458,-0.50012 1.39258,-0.45312 0.653,0.045 1.28911,-0.0793 1.41211,-0.27734 0.122,-0.198 0.64034,-0.35938 1.15234,-0.35938 0.512,0 1.42348,-0.25636 2.02539,-0.56836 0.603,-0.313 1.37294,-0.46203 1.71094,-0.33203 0.404,0.155 0.51813,0.0746 0.32813,-0.23242 -0.2,-0.324 0.14976,-0.4668 1.13476,-0.4668 0.783,0 1.42383,-0.18039 1.42383,-0.40039 0,-0.22 0.58383,-0.40325 1.29883,-0.40625 0.986,-0.005 1.15617,-0.10053 0.70117,-0.39453 -0.623,-0.402 -0.31194,-0.54397 0.91406,-0.41797 0.842,0.087 3.08594,-0.8433 3.08594,-1.2793 0,-0.166 0.6598,-0.30273 1.4668,-0.30273 0.806,0 1.34617,-0.11867 1.20117,-0.26367 -0.433,-0.433 1.21178,-1.35603 1.92578,-1.08203 0.924,0.355 2.79428,-0.67316 2.11328,-1.16016 -0.344,-0.246 -0.21642,-0.30002 0.39258,-0.16602 0.495,0.108 0.90039,0.0434 0.90039,-0.14257 0,-0.187 0.35883,-0.27055 0.79883,-0.18555 0.495,0.095 0.80078,-0.0612 0.80078,-0.41016 0,-0.338 0.24061,-0.47098 0.59961,-0.33398 0.33,0.127 0.59961,0.0111 0.59961,-0.25586 0,-0.267 0.25827,-0.38758 0.57227,-0.26758 0.31391,0.121 0.78582,-0.0385 1.04882,-0.35547 0.263,-0.317 0.72821,-0.57617 1.03321,-0.57617 0.954,0 4.22788,-1.70266 3.79297,-1.97266 -0.244,-0.151 -0.0768,-0.46748 0.41015,-0.77148 0.454,-0.284 0.70655,-0.32226 0.56055,-0.0859 -0.146,0.237 -0.0748,0.42969 0.1582,0.42969 0.233,0 0.42383,-0.18039 0.42383,-0.40039 0,-0.22 0.37122,-0.40039 0.82422,-0.40039 0.453,0 0.71217,-0.17844 0.57617,-0.39844 -0.136,-0.22 -0.0391,-0.40039 0.21289,-0.40039 0.253,0 0.81691,-0.40539 1.25391,-0.90039 0.437,-0.495 0.68101,-0.67539 0.54101,-0.40039 -0.14,0.275 -0.065,0.5 0.16797,0.5 0.233,0 0.42383,-0.15089 0.42383,-0.33789 0,-0.724 1.53809,-2.0625 2.37109,-2.0625 0.482,0 0.76491,-0.17844 0.62891,-0.39844 -0.136,-0.22 0.0786,-0.40325 0.47656,-0.40625 0.457,-0.004 0.55558,-0.11578 0.26758,-0.30078 -0.333,-0.215 -0.31461,-0.42525 0.0703,-0.78125 0.414,-0.385 0.56861,-0.385 0.72461,0 0.109,0.269 0.21152,0.16367 0.22852,-0.23633 0.018,-0.398 0.21359,-0.61256 0.43359,-0.47656 0.22,0.136 0.39844,-0.12789 0.39844,-0.58789 0,-0.46 0.31617,-0.95275 0.70117,-1.09375 0.385,-0.142 0.84353,-0.49511 1.01953,-0.78711 0.176,-0.291 0.59183,-0.53125 0.92383,-0.53125 0.333,0 0.49147,-0.18039 0.35547,-0.40039 -0.136,-0.22 0.0786,-0.41364 0.47656,-0.43164 0.4,-0.017 0.50533,-0.11952 0.23633,-0.22852 -0.516,-0.209 -0.39979,-0.41864 1.20312,-2.18164 0.393,-0.433 0.61991,-0.93995 0.50391,-1.12695 -0.116,-0.187 0.0559,-0.56008 0.38086,-0.83008 0.325,-0.27 0.50539,-0.63078 0.40039,-0.80078 -0.105,-0.17 0.0773,-0.53082 0.4043,-0.80273 0.74,-0.614 0.81715,-3.59766 0.0937,-3.59766 -0.364,0 -0.4836,-0.80144 -0.4336,-2.89844 0.059,-2.469 -0.0608,-3.04323 -0.79882,-3.86523 -0.486,-0.541 -0.60263,-0.83484 -0.26563,-0.66993 0.371,0.182 0.33485,0.0766 -0.0937,-0.27539 -0.381,-0.313 -0.57659,-0.68607 -0.43359,-0.83007 0.143,-0.143 0.0509,-0.25977 -0.20508,-0.25977 -0.257,0 -0.44788,-0.13578 -0.42188,-0.30078 0.155,-0.982 -0.13509,-1.75919 -0.74609,-1.99219 -0.385,-0.147 -1.05052,-0.59323 -1.47852,-0.99023 -0.79191,-0.736 -2.15145,-0.63002 -2.68945,0.20898 -0.237,0.369 -0.64646,0.48614 -2.60937,0.74414 -0.263,0.035 -0.44339,0.22864 -0.40039,0.43164 0.115,0.544 -1.82946,1.926 -2.81446,2 -0.468,0.035 -0.77659,0.18885 -0.68359,0.33985 0.246,0.397 -1.01649,0.81004 -1.52149,0.49804 -0.251,-0.155 -0.30862,-0.0747 -0.14062,0.19727 0.187,0.303 -0.0673,0.46289 -0.73828,0.46289 -0.651,0 -1.02344,0.22138 -1.02344,0.60938 0,0.35791 -0.49717,0.71056 -1.20117,0.85156 -0.66,0.132 -1.19922,0.3864 -1.19922,0.5664 0,0.18 -0.34558,0.25874 -0.76758,0.17774 -0.423,-0.081 -0.86733,0.10601 -0.98633,0.41601 -0.121,0.314 -0.48903,0.46013 -0.83203,0.32813 -0.413,-0.158 -0.62448,0.01 -0.64648,0.50781 -0.022,0.518 -0.097,0.57264 -0.25196,0.18164 -0.16191,-0.41 -0.3649,-0.30161 -0.7539,0.40039 -0.484,0.873 -0.53555,0.88716 -0.56055,0.16016 -0.025,-0.747 -0.0607,-0.75347 -0.55273,-0.10547 -0.29,0.381 -0.62133,0.59937 -0.73633,0.48437 -0.294,-0.29391 -2.3125,0.67338 -2.3125,1.10938 0,0.197 -0.18039,0.24928 -0.40039,0.11328 -0.22,-0.136 -0.39844,-0.0819 -0.39844,0.1211 0,0.20191 -0.42912,0.28554 -0.95312,0.18554 -0.524,-0.1 -1.07561,0.0139 -1.22461,0.25391 -0.148,0.241 -0.71953,0.43945 -1.26953,0.43945 -0.565,0 -0.89391,0.17244 -0.75391,0.39844 0.262,0.424 -0.17383,0.52873 -1.79883,0.42773 -0.724,-0.045 -0.85003,0.0387 -0.45703,0.30469 0.717,0.486 0.19175,0.69616 -1.65625,0.66016 -1.041,-0.021 -1.45227,0.12193 -1.32227,0.46093 0.123,0.321 -0.1062,0.43608 -0.6582,0.33008 -0.466,-0.09 -1.10973,0.0514 -1.42773,0.31641 -0.319,0.264 -1.09652,0.42833 -1.72852,0.36133 -0.633,-0.066 -1.15039,0.0716 -1.15039,0.30859 0,0.236 -0.55161,0.43164 -1.22461,0.43164 -0.713,0 -1.12056,0.16544 -0.97656,0.39844 0.211,0.341 -1.48203,0.60178 -1.95703,0.30078 -0.087,-0.055 -0.50283,0.2108 -0.92383,0.5918 -0.424,0.384 -1.15739,0.61648 -1.65039,0.52148 -0.489,-0.094 -0.79569,-0.019 -0.67969,0.16797 0.116,0.188 -0.6425,0.43478 -1.6875,0.55078 -2.879,0.318 -4.5,0.72028 -4.5,1.11328 0,0.195 -0.64373,0.35547 -1.42773,0.35547 -0.785,0 -1.74482,0.16895 -2.13282,0.37695 -0.389,0.208 -1.53578,0.42161 -2.55078,0.47461 -1.015,0.052 -1.75453,0.24188 -1.64453,0.42188 0.111,0.179 -0.4377,0.32617 -1.2207,0.32617 -0.869,0 -1.42569,0.195 -1.42969,0.5 -0.004,0.333 -0.13653,0.30031 -0.39453,-0.0996 -0.258,-0.4 -0.39053,-0.43456 -0.39453,-0.10156 -0.004,0.325 -0.63469,0.5 -1.80469,0.5 -0.99,0 -1.80078,0.14903 -1.80078,0.33203 0,0.182 -1.02443,0.37383 -2.27734,0.42383 -1.253,0.051 -2.54419,0.24087 -2.86719,0.42187 -0.324,0.181 -1.27624,0.238 -2.11524,0.125 -1.09191,-0.146 -1.58814,-0.0437 -1.74414,0.36133 -0.151,0.395 -0.85064,0.5552 -2.30664,0.5332 -2.25691,-0.035 -3.17778,0.13693 -2.92578,0.54493 0.088,0.142 -0.71706,0.24832 -1.78906,0.23632 -1.214,-0.014 -2.02258,0.16747 -2.14258,0.48047 -0.141,0.369 -0.98969,0.44602 -3.17969,0.29102 -1.99291,-0.141 -3.29701,-0.0458 -3.91601,0.28516 -0.568,0.30391 -2.22476,0.46496 -4.26367,0.41796 -2.207,-0.052 -3.24808,0.062 -3.08008,0.33399 0.283,0.458 0.0222,0.50408 -2.5918,0.45508 -2.262,-0.043 -4.478,0.30973 -4.25,0.67773 0.095,0.154 -2.35722,0.23564 -5.44922,0.18164 -3.83391,-0.068 -5.79959,0.0501 -6.18359,0.36914 -0.389,0.323 -2.60713,0.43887 -7.20313,0.37696 -4.63891,-0.063 -6.72387,0.0452 -6.92187,0.36523 -0.204,0.33 -4.60098,0.45798 -15.83789,0.45898 C 182.0013,298.87409 182.695,298.89339 183,298.40039 183.16104,298.13983 180.81109,298 176.24609,298 172.01118,298 169.15,297.84161 169,297.59961 c -0.136,-0.22 -0.42648,-0.40039 -0.64648,-0.40039 -0.22,0 -0.26469,0.225 -0.0996,0.5 0.235,0.392 0.17293,0.39831 -0.28907,0.0254 -0.386,-0.312 -2.20353,-0.46727 -5.26953,-0.44727 -3.07891,0.021 -4.87786,-0.13131 -5.25586,-0.44531 -0.379,-0.314 -1.68122,-0.42331 -3.82422,-0.32031 -2.98891,0.145 -4.34718,-0.1403 -3.11718,-0.6543 0.276,-0.115 -1.06357,-0.18901 -2.97657,-0.16601 -2.27091,0.028 -3.68893,-0.13289 -4.08593,-0.46289 -0.413,-0.342 -1.43673,-0.43969 -3.18164,-0.30469 -1.649,0.127 -2.75227,0.0313 -3.07227,-0.26367 -0.38,-0.351 -0.43175,-0.34145 -0.21875,0.0351 0.188,0.333 0.0742,0.41681 -0.3418,0.25781 C 136.27908,294.82225 136,294.58383 136,294.42383 c 0,-0.16 -0.99017,-0.26538 -2.20117,-0.23438 -1.21,0.032 -2.00463,-0.062 -1.76563,-0.20898 0.688,-0.425 -0.37811,-0.63431 -2.91211,-0.57031 -1.44791,0.037 -2.24921,-0.10096 -2.19921,-0.37696 0.045,-0.249 -0.60249,-0.44493 -1.52149,-0.46093 -0.88,-0.016 -1.96039,-0.14702 -2.40039,-0.29102 -0.44,-0.144 -1.82894,-0.29498 -3.08594,-0.33398 -1.292,-0.04 -2.18468,-0.23041 -2.05468,-0.44141 0.13191,-0.214 -0.48059,-0.32095 -1.4375,-0.25195 -0.917,0.066 -1.79232,-0.0602 -1.94532,-0.28125 -0.152,-0.221 -0.99695,-0.45454 -1.87695,-0.51954 -0.88,-0.065 -1.77147,-0.28432 -1.98047,-0.48632 -0.209,-0.202 -1.06244,-0.36719 -1.89844,-0.36719 -0.836,0 -1.52148,-0.18039 -1.52148,-0.40039 0,-0.22 -0.73005,-0.39844 -1.62305,-0.39844 -1.192,0 -1.54226,-0.133 -1.32226,-0.5 0.175,-0.291 -0.0141,-0.25031 -0.45313,0.0996 -0.439,0.35 -0.62812,0.39069 -0.45312,0.0996 0.223,-0.371 -0.17588,-0.5 -1.54688,-0.5 -1.093,0 -1.74942,-0.15967 -1.60742,-0.38867 0.14,-0.228 -0.3639,-0.36599 -1.212891,-0.33399 -0.798991,0.03 -1.570797,-0.11807 -1.716797,-0.33007 -0.145,-0.212 -0.710813,-0.41522 -1.257813,-0.44922 -0.546991,-0.035 -1.056812,-0.25047 -1.132812,-0.48047 -0.077,-0.23 -0.844087,-0.41797 -1.705078,-0.41797 -0.886991,0 -1.56836,-0.19427 -1.56836,-0.44727 0,-0.249 -0.351828,-0.35332 -0.798828,-0.23632 C 90.28072,285.05246 90,284.9275 90,284.5625 90,284.1875 89.539038,284 88.623047,284 87.866056,284 87.136,283.81961 87,283.59961 c -0.136,-0.22 -0.675219,-0.40039 -1.199219,-0.40039 -0.523991,0 -1.075609,-0.1965 -1.224609,-0.4375 -0.149,-0.242 -0.789837,-0.36253 -1.423828,-0.26953 C 82.353353,282.61019 82,282.49147 82,282.10547 c 0,-0.387 -0.39679,-0.51864 -1.300781,-0.43164 -0.934991,0.091 -1.266594,-0.0279 -1.183594,-0.42188 0.084,-0.399 -0.218196,-0.49723 -1.117187,-0.36523 -0.678,0.099 -1.342563,0.002 -1.476563,-0.21484 -0.147,-0.238 -0.03766,-0.26703 0.277344,-0.0723 0.345991,0.214 0.427281,0.16828 0.238281,-0.13672 C 77.2805,280.20913 76.73846,280 76.230469,280 c -0.507,0 -1.380462,-0.36078 -1.939453,-0.80078 -1.245991,-0.98 -1.781054,-1.04019 -1.039063,-0.11719 0.302,0.375 -0.126181,0.17474 -0.951172,-0.44726 -0.824991,-0.621 -1.5,-0.99604 -1.5,-0.83204 0,0.163 -0.242109,0.0946 -0.537109,-0.15039 -0.295,-0.245 -0.65579,-0.32664 -0.800781,-0.18164 -0.145,0.145 -0.263672,0.0405 -0.263672,-0.23047 0,-0.312 -0.293837,-0.40023 -0.798828,-0.24023 -0.531,0.169 -0.800782,0.0729 -0.800782,-0.28711 0,-0.298 -0.402578,-0.57237 -0.892578,-0.60937 -0.490991,-0.037 -1.09575,-0.34555 -1.34375,-0.68555 -0.249,-0.34 -0.731219,-0.61719 -1.074219,-0.61719 -0.341991,0 -0.713218,-0.225 -0.824218,-0.5 -0.161,-0.4 -0.207422,-0.4 -0.232422,0 -0.018,0.275 -0.22404,0.5 -0.457031,0.5 -0.233,0 -0.311773,-0.18039 -0.175782,-0.40039 0.136,-0.22 -0.032,-0.40039 -0.375,-0.40039 -0.342991,0 -0.625,-0.18039 -0.625,-0.40039 0,-0.22 -0.133828,-0.35669 -0.298828,-0.30469 -0.488991,0.155 -2.90039,-0.96175 -2.90039,-1.34375 0,-0.193 -0.196509,-0.35156 -0.4375,-0.35156 -0.241,0 -1.004322,-0.40539 -1.695313,-0.90039 -1.855482,-1.32975 -3.554368,-2.15391 -4.287109,-2.15039 z" />
    <path
       id="path1"
       d="m 344.76953,149.24609 c -0.094,0.026 -0.51641,0.13514 -0.94141,0.24414 -0.80998,0.206 -1.82812,1.0573 -1.82812,1.5293 0,0.153 0.24211,0.077 0.53711,-0.16797 0.295,-0.245 0.60922,-0.37883 0.69922,-0.29883 0.09,0.08 0.50959,-0.19346 0.93359,-0.60546 0.423,-0.411 0.69261,-0.72618 0.59961,-0.70118 z m -286.544921,1.1543 c -0.126998,0 -0.0074,0.35883 0.267579,0.79883 0.468998,0.751 1.107421,1.08126 1.107421,0.57226 0,-0.298 -1.075,-1.37109 -1.375,-1.37109 z m -10.386718,2 c -0.08,0 -0.440782,0.45 -0.800782,1 -0.360998,0.55 -0.500545,1 -0.310547,1 0.189,0 0.550782,-0.45 0.800782,-1 0.250998,-0.55 0.390547,-1 0.310547,-1 z m 283.353519,3.62109 c -0.20388,0.0371 -0.39708,0.21821 -0.51758,0.53321 -0.149,0.388 0.0148,0.49351 0.55078,0.35351 0.421,-0.11 0.66687,-0.35773 0.54687,-0.55273 -0.163,-0.2635 -0.3762,-0.37111 -0.58007,-0.33399 z m -5.22071,2.63282 c -0.094,-0.085 -0.57531,0.0299 -1.07031,0.25586 -0.851,0.389 -1.24861,1.10417 -0.59961,1.07617 0.446,-0.019 1.86792,-1.15303 1.66992,-1.33203 z m -279.078122,5.74609 c -0.243,0 -0.416719,0.32942 -0.386719,0.73242 0.03,0.404 0.28536,0.73438 0.56836,0.73438 0.347998,0 0.388045,-0.15271 0.123047,-0.47071 -0.214,-0.259 -0.271952,-0.58937 -0.126954,-0.73437 0.145,-0.145 0.06527,-0.26172 -0.177734,-0.26172 z m 250.292972,3.23438 c -0.024,-0.008 -0.16977,0.0923 -0.44727,0.30078 -0.372,0.28 -0.72083,0.33409 -0.79883,0.12109 -0.076,-0.207 -0.37225,-0.12636 -0.65625,0.18164 -0.43,0.468 -0.37836,0.54055 0.30664,0.43555 0.451,-0.068 1.04246,-0.37469 1.31446,-0.67969 0.2075,-0.233 0.30525,-0.351 0.28125,-0.35937 z m -248.681644,0.79492 c -0.03787,-0.005 -0.06126,0.0776 -0.07227,0.24414 -0.018,0.26 0.546908,0.88372 1.253906,1.38672 l 1.283203,0.91406 -0.783203,-1.04492 c -0.432,-0.576 -0.904783,-0.97377 -1.050781,-0.88477 -0.146,0.088 -0.35775,-0.0667 -0.46875,-0.34375 -0.0715,-0.1765 -0.124235,-0.26673 -0.16211,-0.27148 z m 300.857424,2.7832 c -0.241,-0.007 -0.70906,0.3025 -1.03906,0.6875 -1.072,1.248 -1.34061,2.42044 -0.34961,1.52344 0.445,-0.402 0.71937,-0.87574 0.60937,-1.05274 -0.109,-0.177 0.11977,-0.50737 0.50977,-0.73437 0.389,-0.227 0.51053,-0.41683 0.26953,-0.42383 z m -227.56055,0.38672 c -0.33,0 -0.60156,0.18039 -0.60156,0.40039 0,0.22 0.27156,0.40039 0.60156,0.40039 0.33,0 0.59961,-0.18039 0.59961,-0.40039 0,-0.22 -0.26961,-0.40039 -0.59961,-0.40039 z M 50.900391,172 c -0.546,0 -0.525953,0.0924 0.123047,0.56641 0.837998,0.613 1.216968,0.54732 0.792968,-0.13868 C 51.671406,172.19273 51.259389,172 50.900391,172 Z m 94.749999,3.27344 -2.25,0.0742 2.1875,0.15039 c 1.203,0.082 2.46378,0.363 2.80078,0.625 0.536,0.417 0.5435,0.39034 0.0625,-0.22266 -0.422,-0.538 -1.07178,-0.68395 -2.80078,-0.62695 z m 108.69922,0 c -1.729,-0.057 -2.37878,0.089 -2.80078,0.62695 -0.481,0.613 -0.4735,0.63966 0.0625,0.22266 0.337,-0.262 1.59778,-0.543 2.80078,-0.625 l 2.1875,-0.15039 z m -198.269532,0.7539 C 56.026453,176.05653 56,176.12277 56,176.22852 c 0,0.423 1.137486,1.37109 1.646484,1.37109 0.287,0 0.135483,-0.34283 -0.353515,-0.79883 -0.648,-0.60375 -1.052016,-0.861 -1.212891,-0.77344 z m 287.818362,0.002 c -0.19266,-0.0877 -0.62958,0.14978 -1.03906,0.61328 -0.729,0.824 -0.25952,1.21459 0.52148,0.43359 0.34,-0.34 0.61914,-0.72265 0.61914,-0.84765 0,-0.105 -0.0373,-0.16997 -0.10156,-0.19922 z m -284.166018,2.52929 c -0.08863,-0.0476 -0.178266,-0.008 -0.259766,0.12305 -0.298998,0.484 0.663688,1.44864 1.054688,1.05664 0.14,-0.139 0.367859,0.0423 0.505859,0.4043 0.139,0.361 0.542438,0.6582 0.898438,0.6582 0.715998,0 -0.559407,-1.08805 -1.316407,-1.12305 -0.211998,-0.01 -0.495859,-0.33565 -0.630859,-0.72265 -0.076,-0.216 -0.163328,-0.34886 -0.251953,-0.39649 z m 278.980468,1.6211 c -0.101,-0.101 -0.51016,0.17714 -0.91016,0.61914 -0.399,0.441 -0.59554,0.80078 -0.43554,0.80078 0.421,0 1.5617,-1.20392 1.3457,-1.41992 z M 80.712891,189.2168 c -0.18975,0.003 -0.15503,0.19848 0.230468,0.58398 0.33,0.33 0.836955,0.59294 1.126953,0.58594 0.332,-0.008 0.240905,-0.23061 -0.246093,-0.59961 -0.5075,-0.3835 -0.92158,-0.57306 -1.111328,-0.57031 z m 262.568359,0.46875 c -0.05,0.0345 -0.082,0.12004 -0.082,0.24804 0,0.257 -0.28005,0.4668 -0.62305,0.4668 -0.35,0 -0.50356,0.1915 -0.35156,0.4375 0.184,0.299 0.46944,0.23955 0.89844,-0.18945 0.345,-0.346 0.50551,-0.75425 0.35351,-0.90625 -0.076,-0.076 -0.14531,-0.0911 -0.19531,-0.0566 z m -285.935547,0.74804 c -0.08763,0.034 0.150485,0.27652 0.708985,0.72852 0.517998,0.42 1.090437,0.67159 1.273437,0.55859 0.182,-0.113 -0.152141,-0.45667 -0.744141,-0.76367 -0.737998,-0.383 -1.150656,-0.55744 -1.238281,-0.52344 z m 282.839847,1.62696 c -0.12563,-0.043 -0.59525,0.0735 -1.34375,0.37304 -0.527,0.211 -0.85738,0.48247 -0.73438,0.60547 0.122,0.122 0.73242,-0.0536 1.35742,-0.39258 0.628,-0.3405 0.84633,-0.54293 0.72071,-0.58593 z m -279.244144,0.19336 c -0.150718,0.009 -0.284844,0.0773 -0.371094,0.22656 -0.163998,0.285 -0.152608,0.38661 0.02539,0.22461 0.179,-0.161 0.561563,0.0194 0.851563,0.40039 0.288998,0.382 0.532062,0.49214 0.539062,0.24414 0.01725,-0.5955 -0.592767,-1.12163 -1.044922,-1.0957 z m 225.640624,6.67968 c -0.339,0 -0.70926,0.14999 -0.82226,0.33399 -0.114,0.183 0.16418,0.33203 0.61718,0.33203 0.453,0 0.82227,-0.14903 0.82227,-0.33203 0,-0.184 -0.27719,-0.33399 -0.61719,-0.33399 z m -200.181639,3.86719 c -0.747,0 -0.853469,0.10552 -0.480469,0.47852 0.373,0.373 0.587939,0.373 0.960937,0 0.373,-0.373 0.26653,-0.47852 -0.480468,-0.47852 z m 165.199219,2.0918 c -0.77,0 -1.08422,0.0826 -0.69922,0.18359 0.385,0.1 1.01539,0.1 1.40039,0 0.385,-0.101 0.0688,-0.18359 -0.70117,-0.18359 z M 149,204.91406 c -1.1,0.003 -1.50253,0.0818 -0.89453,0.17383 0.609,0.092 1.509,0.0892 2,-0.006 0.492,-0.095 -0.005,-0.17097 -1.10547,-0.16797 z m 97.53711,0.043 c -0.10345,0.003 -0.2015,0.0411 -0.28125,0.12109 -0.451,0.45 -0.27525,0.92188 0.34375,0.92188 0.33,0 0.59961,-0.16995 0.59961,-0.37695 0,-0.37875 -0.35175,-0.67582 -0.66211,-0.66602 z M 156,205.70898 c -0.99,0 -1.39539,0.0788 -0.90039,0.17383 0.495,0.096 1.30578,0.096 1.80078,0 0.495,-0.095 0.0896,-0.17383 -0.90039,-0.17383 z m 88,0 c -0.99,0 -1.39539,0.0788 -0.90039,0.17383 0.495,0.096 1.30578,0.096 1.80078,0 0.495,-0.095 0.0896,-0.17383 -0.90039,-0.17383 z m -81.4668,0.0293 c -0.11287,-0.003 -0.21092,0.0622 -0.29492,0.19922 -0.139,0.223 -0.0564,0.52683 0.18164,0.67383 0.615,0.381 1.01205,-0.1403 0.49805,-0.6543 -0.1435,-0.1435 -0.27189,-0.21537 -0.38477,-0.21875 z m 190.92774,0.0332 c -0.0399,-0.1605 -0.32064,0.0593 -0.80664,0.80079 -0.36,0.55 -0.65235,1.23067 -0.65235,1.51367 10e-4,0.283 0.36932,-0.0901 0.82032,-0.83008 0.4765,-0.7815 0.67854,-1.32388 0.63867,-1.48438 z m -120.19922,0.58008 c -0.391,0.0234 -0.589,0.0829 -0.5,0.17188 0.179,0.177 1.29347,0.26436 2.48047,0.19336 l 2.1582,-0.12696 -2.48242,-0.19531 c -0.682,-0.0535 -1.26525,-0.0663 -1.65625,-0.043 z m -67.86133,0.16211 c -1.1,0.003 -1.50253,0.0818 -0.89453,0.17383 0.609,0.092 1.509,0.0892 2,-0.006 0.492,-0.095 -0.005,-0.17097 -1.10547,-0.16797 z m 26,0.81641 c -1.54,-0.002 -2.21975,0.0692 -1.50977,0.1582 0.71,0.088 1.97079,0.0908 2.80079,0.004 0.83,-0.087 0.24898,-0.16011 -1.29102,-0.16211 z m 17.19922,0 c -1.54,-0.002 -2.21781,0.0692 -1.50781,0.1582 0.71,0.088 1.96884,0.0908 2.79882,0.004 0.83,-0.087 0.24899,-0.16011 -1.29101,-0.16211 z m -100.19922,1.5625 c -0.77,0 -1.08617,0.0826 -0.70117,0.18359 0.385,0.1 1.01539,0.1 1.40039,0 0.385,-0.101 0.0708,-0.18359 -0.69922,-0.18359 z m 183.19922,0 c -0.77,0 -1.08422,0.0826 -0.69922,0.18359 0.385,0.1 1.01539,0.1 1.40039,0 0.385,-0.101 0.0688,-0.18359 -0.70117,-0.18359 z m -179.52344,0.76758 -1.07617,0.0605 1.10742,0.16602 c 0.667,0.101 0.99989,0.33956 0.83789,0.60156 -0.162,0.262 -0.0828,0.32049 0.19922,0.14649 0.744,-0.46 0.10864,-1.04061 -1.06836,-0.97461 z m 14.52344,3.21289 1.80078,0.31836 c 0.99,0.174 1.92608,0.2015 2.08008,0.0625 0.154,-0.14 -0.65678,-0.28141 -1.80078,-0.31641 z M 52.310547,214 c -0.205,0 0.162408,0.45 0.816406,1 0.653998,0.55 1.307172,1 1.451172,1 0.145,0 -0.222408,-0.45 -0.816406,-1 -0.593,-0.55 -1.246172,-1 -1.451172,-1 z M 159,216.92383 c -1.32,0.002 -1.81275,0.077 -1.09375,0.16601 0.719,0.089 1.79939,0.0872 2.40039,-0.004 0.601,-0.091 0.0134,-0.16411 -1.30664,-0.16211 z m 82,0 c -1.32,0.002 -1.81275,0.077 -1.09375,0.16601 0.719,0.089 1.79939,0.0872 2.40039,-0.004 0.601,-0.091 0.0134,-0.16411 -1.30664,-0.16211 z m 99.59766,2.02148 c -0.31475,0.046 -0.65658,0.23249 -0.76758,0.52149 -0.113,0.293 -0.51177,0.5332 -0.88477,0.5332 -0.374,0 -0.56101,0.11867 -0.41601,0.26367 0.145,0.145 0.0406,0.54653 -0.23242,0.89453 -0.274,0.348 0.10198,0.13911 0.83398,-0.46289 0.732,-0.603 1.49622,-1.0957 1.69922,-1.0957 0.203,0 0.36914,-0.14903 0.36914,-0.33203 0,-0.273 -0.28681,-0.36827 -0.60156,-0.32227 z m -280.720707,0.6836 c -0.844998,0.027 -0.847172,0.0401 -0.07617,0.37109 1.100998,0.473 1.491219,0.473 1.199219,0 -0.136,-0.22 -0.641047,-0.38609 -1.123047,-0.37109 z m 286.968747,8.8789 c -0.465,0.035 -0.8457,0.31696 -0.8457,0.62696 0,0.475 0.11022,0.47838 0.69922,0.0273 0.385,-0.295 0.7657,-0.57695 0.8457,-0.62695 0.08,-0.051 -0.23422,-0.0623 -0.69922,-0.0273 z m -232.04492,10.75196 c -0.42,0.024 -0.39038,0.0888 0.0996,0.21679 0.385,0.1 0.69922,0.34874 0.69922,0.55274 0,0.204 0.30378,0.37109 0.67578,0.37109 0.59,0 0.57838,-0.0759 -0.0996,-0.58789 -0.427,-0.323 -1.045,-0.57073 -1.375,-0.55273 z m 202.49024,2.76367 c -0.203,0 -0.50263,0.12645 -0.89063,0.37695 -0.485,0.314 -0.42917,0.38953 0.29883,0.39453 0.495,0.003 0.90039,-0.17453 0.90039,-0.39453 0,-0.2505 -0.10559,-0.37695 -0.30859,-0.37695 z M 225,246.93164 c -1.54,-0.002 -2.21975,0.0692 -1.50977,0.1582 0.71,0.088 1.97079,0.089 2.80079,0.002 0.82998,-0.087 0.24898,-0.15816 -1.29102,-0.16016 z m -49.80078,0.002 c -1.65,0 -2.325,0.0722 -1.5,0.15821 0.825,0.087 2.175,0.087 3,0 0.825,-0.086 0.15,-0.15821 -1.5,-0.15821 z m 19.40039,12.01172 c -2.2,10e-4 -3.04872,0.0694 -1.88672,0.15039 1.163,0.081 2.963,0.0811 4,-0.002 1.038,-0.082 0.0867,-0.14944 -2.11328,-0.14844 z m 10.80078,0 c -2.2,10e-4 -3.04872,0.0694 -1.88672,0.15039 1.163,0.081 2.963,0.0811 4,-0.002 1.038,-0.082 0.0867,-0.14944 -2.11328,-0.14844 z M 335.5,262.82422 c -0.055,0.014 -0.48698,0.18305 -0.95898,0.37305 -0.963,0.389 -1.61585,1.20312 -0.96485,1.20312 0.233,0 0.42383,-0.18039 0.42383,-0.40039 0,-0.22 0.36078,-0.40039 0.80078,-0.40039 0.44,0 0.79883,-0.18039 0.79883,-0.40039 0,-0.22 -0.0446,-0.389 -0.0996,-0.375 z m 13.25391,5.57617 c -0.279,0 -0.10252,0.37484 0.39648,0.83984 0.496,0.462 1.00105,0.74113 1.12305,0.61915 0.304,-0.304 -0.89853,-1.45899 -1.51953,-1.45899 z m -293.023441,1.57422 c -0.08216,0.0134 -0.13086,0.0719 -0.13086,0.17969 0,0.085 0.49461,0.47234 1.09961,0.86132 l 1.101562,0.70899 -0.763672,-0.86328 c -0.505498,-0.57225 -1.060172,-0.92703 -1.30664,-0.88672 z M 343.92383,270 c -0.11,0 -0.52583,0.36078 -0.92383,0.80078 -0.398,0.44 -0.96572,0.79883 -1.26172,0.79883 -0.296,0 -0.53906,0.18606 -0.53906,0.41406 0,0.271 0.24408,0.28412 0.70508,0.0371 0.736,-0.393 2.36753,-2.05078 2.01953,-2.05078 z m -26.54492,0.5332 c -0.299,0 -0.63605,0.23921 -0.74805,0.53321 -0.113,0.293 0.0398,0.5332 0.33984,0.5332 0.299,0 0.63605,-0.2402 0.74805,-0.5332 0.113,-0.294 -0.0398,-0.53321 -0.33984,-0.53321 z m -235.085941,0.13672 c -0.0905,0.0573 -0.09453,0.1805 -0.01953,0.375 0.116998,0.305 0.462531,0.55469 0.769531,0.55469 0.830998,0 0.673107,-0.6762 -0.212891,-0.9082 -0.27,-0.0705 -0.446609,-0.0787 -0.537109,-0.0215 z m 7.048828,1.86133 c -0.077,-0.0523 -0.125406,-0.0276 -0.128906,0.0879 -0.014,0.49 0.802578,1.38086 1.267578,1.38086 0.176,0 0.320312,-0.19083 0.320312,-0.42383 0,-0.233 -0.169,-0.3194 -0.375,-0.1914 -0.207,0.127 -0.562062,-0.0866 -0.789062,-0.47657 -0.1135,-0.1945 -0.217922,-0.3247 -0.294922,-0.37695 z m 246.833983,2.32813 c -0.24587,0.007 -0.79725,0.13481 -1.65625,0.38281 -1.38,0.399 -2.05156,1.02539 -1.10156,1.02539 0.32,0 0.58203,-0.14999 0.58203,-0.33399 0,-0.183 0.31422,-0.33684 0.69922,-0.33984 0.385,-0.003 0.97078,-0.18153 1.30078,-0.39453 0.3625,-0.234 0.42166,-0.34684 0.17578,-0.33984 z M 65.546875,275.2207 c -0.24825,-0.0453 -0.346734,0.058 -0.177734,0.33203 0.12,0.193 0.626,0.45408 1.125,0.58008 0.873998,0.22 0.877904,0.20649 0.128906,-0.35351 -0.43,-0.321 -0.827922,-0.51335 -1.076172,-0.5586 z m 67.187505,7.49414 c -0.66275,-0.0414 -1.38502,-0.002 -1.625,0.15039 -0.305,0.193 0.1714,0.32413 1.1914,0.32813 0.935,0.003 1.69922,-0.0634 1.69922,-0.14844 0,-0.167 -0.60289,-0.2887 -1.26562,-0.33008 z m -86.322271,3.32422 c -0.027,0.49 1.226688,2.69578 1.804688,3.17578 0.499998,0.415 0.559609,0.3868 0.349609,-0.1582 -0.138,-0.362 -0.423812,-0.65625 -0.632812,-0.65625 -0.21,0 -0.282156,-0.16042 -0.160156,-0.35742 0.121998,-0.197 -0.130502,-0.78278 -0.5625,-1.30078 -0.431,-0.518 -0.790829,-0.83513 -0.798829,-0.70313 z m 163.488281,1.25 c -0.055,0.049 -4.33,0.18855 -9.5,0.31055 L 191,287.82227 l 9.5,0.0879 c 6.12598,0.057 9.5,-0.0525 9.5,-0.31055 0,-0.22 -0.0446,-0.35955 -0.0996,-0.31055 z M 352.41406,288 c -0.212,0 -0.59742,0.40539 -0.85742,0.90039 -0.47,0.895 -0.46923,0.89472 0.38477,0.13672 0.953,-0.847 1.04065,-1.03711 0.47265,-1.03711 z m -301.935544,3.62891 c -0.05127,0.032 -0.07813,0.098 -0.07813,0.19921 0,0.424 1.235797,1.46829 1.466797,1.23829 0.124998,-0.126 -0.04963,-0.50666 -0.390626,-0.84766 -0.476248,-0.47625 -0.844251,-0.68594 -0.998046,-0.58984 z M 263.63281,294 c -0.238,0 -0.43359,0.16709 -0.43359,0.37109 0,0.204 -0.31422,0.46222 -0.69922,0.57422 -0.421,0.122 -0.31347,0.17291 0.26953,0.12891 0.935,-0.071 1.74228,-1.07422 0.86328,-1.07422 z m -112.76758,1.83398 c -0.145,0.0179 -0.31456,0.0792 -0.47656,0.18164 -0.323,0.204 -0.49867,0.38821 -0.38867,0.40821 1.75,0.313 2.13578,0.32922 1.80078,0.0723 -0.22,-0.168 -0.49628,-0.42712 -0.61328,-0.57812 -0.058,-0.075 -0.17727,-0.10185 -0.32227,-0.084 z m -91.109371,3.55079 c -0.09663,0.0242 -0.15625,0.0862 -0.15625,0.17968 0,0.186 0.240205,0.53725 0.533203,0.78125 0.403,0.334 0.535157,0.30024 0.535157,-0.13476 0,-0.317 -0.241157,-0.66925 -0.535157,-0.78125 -0.146498,-0.0565 -0.280328,-0.0692 -0.376953,-0.0449 z m 7.251953,4.04492 c -0.089,0.0445 -0.130515,0.13989 -0.103515,0.27539 0.22,1.1 1.896484,2.0687 1.896484,1.0957 0,-0.22 -0.282,-0.40039 -0.625,-0.40039 -0.342998,0 -0.524343,-0.16042 -0.402343,-0.35742 0.121998,-0.197 -0.0451,-0.46289 -0.371094,-0.58789 -0.169,-0.0645 -0.305532,-0.0699 -0.394532,-0.0254 z m 9.697266,4.43945 c -0.0985,0.0485 -0.119098,0.15255 -0.05859,0.31055 0.103,0.268 0.451485,0.48828 0.771485,0.48828 0.844998,0 0.714498,-0.53939 -0.1875,-0.77539 -0.2495,-0.065 -0.426891,-0.0719 -0.525391,-0.0234 z" />
  </g>
</svg>
