<?xml version="1.0" encoding="UTF-8" standalone="no"?>
<svg
   id="svg"
   version="1.1"
   width="400"
   height="400"
   viewBox="0, 0, 400,400"
   sodipodi:docname="filament-color-mask-2.svg"
   inkscape:version="1.3 (0e150ed6c4, 2023-07-21)"
   xmlns:inkscape="http://www.inkscape.org/namespaces/inkscape"
   xmlns:sodipodi="http://sodipodi.sourceforge.net/DTD/sodipodi-0.dtd"
   xmlns="http://www.w3.org/2000/svg"
   xmlns:svg="http://www.w3.org/2000/svg">
  <defs
     id="defs1" />
  <sodipodi:namedview
     id="namedview1"
     pagecolor="#505050"
     bordercolor="#eeeeee"
     borderopacity="1"
     inkscape:showpageshadow="0"
     inkscape:pageopacity="0"
     inkscape:pagecheckerboard="0"
     inkscape:deskcolor="#505050"
     inkscape:zoom="2.9325"
     inkscape:cx="200"
     inkscape:cy="200.34101"
     inkscape:window-width="2560"
     inkscape:window-height="1369"
     inkscape:window-x="1912"
     inkscape:window-y="-8"
     inkscape:window-maximized="1"
     inkscape:current-layer="svg" />
  <g
     id="svgg"
     inkscape:label="svgg">
    <path
       id="path0"
       d="m 52.896484,228.44922 c -0.06737,0.0386 -0.0303,0.16231 0.0957,0.38281 0.262982,0.46 0.223091,0.47268 -0.212891,0.0684 -0.721982,-0.67 -0.809114,-0.64164 -2.080078,0.69336 -0.605,0.635 -1.09961,1.27959 -1.09961,1.43359 0,0.153 -0.388328,0.61439 -0.861328,1.02539 -0.473982,0.411 -0.640093,0.74805 -0.371093,0.74805 0.327982,0 0.28131,0.20791 -0.138672,0.62891 -0.574,0.573 -0.69075,0.896 -0.59375,1.625 0.019,0.141 -0.206018,0.40411 -0.5,0.58593 -0.294,0.182 -0.543688,0.83232 -0.554688,1.44532 -0.011,0.613 -0.255969,1.54336 -0.542969,2.06836 -0.656982,1.199 -0.42064,5.96197 0.31836,6.41797 0.281982,0.175 0.520297,0.47587 0.529297,0.67187 0.009,0.195 0.07548,0.53586 0.146484,0.75586 0.072,0.22 0.18683,0.85039 0.257812,1.40039 0.071,0.55 0.350141,0.95539 0.619141,0.90039 0.27,-0.055 0.463717,0.0342 0.427735,0.19922 -0.166,0.771 0.881408,2.46853 1.40039,2.26953 0.308,-0.118 0.664016,0.0547 0.791016,0.38672 0.167,0.435 0.04373,0.53633 -0.447266,0.36133 -0.374,-0.133 -0.186984,0.15653 0.416016,0.64453 0.602982,0.489 1.290344,0.76905 1.527344,0.62305 0.260982,-0.161 0.378734,0.0266 0.302734,0.47461 -0.073,0.427 0.08405,0.69862 0.373047,0.64062 0.274982,-0.055 0.5,0.17 0.5,0.5 0,0.33 0.27158,0.59961 0.601562,0.59961 0.33,0 0.59961,0.19083 0.59961,0.42383 0,0.233 0.146189,0.3317 0.326171,0.2207 0.18,-0.111 0.58069,0.14817 0.888672,0.57617 0.309,0.429 0.791266,0.7793 1.072266,0.7793 0.282,0 0.511719,0.18039 0.511719,0.40039 0,0.22 0.360781,0.40039 0.800781,0.40039 0.444,0 0.800781,0.26661 0.800781,0.59961 0,0.33 0.260143,0.59961 0.578125,0.59961 0.319,0 1.061391,0.44619 1.650391,0.99219 0.588982,0.545 1.227922,0.89634 1.419922,0.77734 0.193,-0.119 0.351562,0.0737 0.351562,0.42969 0,0.356 0.164188,0.54492 0.367188,0.41992 0.202,-0.125 0.608361,0.0146 0.902343,0.30859 0.295,0.295 0.760204,0.4621 1.033204,0.3711 0.272982,-0.091 0.605281,0.11784 0.738281,0.46484 0.133,0.347 0.388359,0.54069 0.568359,0.42969 0.179,-0.111 0.595782,0.0704 0.925782,0.40039 0.453982,0.454 0.648781,0.47756 0.800781,0.10156 0.159,-0.392 0.205469,-0.39362 0.230469,0.004 0.018,0.275 0.31139,0.5 0.65039,0.5 0.339,0 1.00261,0.36078 1.47461,0.80078 0.471982,0.44 1.185908,0.80078 1.58789,0.80078 0.401,0 1.088391,0.17844 1.525391,0.39844 0.436982,0.22 1.152861,0.58078 1.589843,0.80078 0.437,0.22 1.067391,0.40039 1.400391,0.40039 0.333,0 0.603516,0.18039 0.603516,0.40039 0,0.22 0.282,0.39844 0.625,0.39844 0.346982,0 0.504451,0.19355 0.355469,0.43555 -0.169,0.272 0.08378,0.40546 0.675781,0.35546 1.720964,-0.143 2.21989,-0.0269 1.58789,0.37305 -0.366982,0.232 0.01691,0.34041 1.128907,0.31641 1.066982,-0.024 1.816828,0.17401 2.048828,0.54101 0.202,0.318 0.370047,0.42247 0.373047,0.23047 0.003,-0.192 0.247986,-0.14802 0.542968,0.0977 0.295,0.245 0.655782,0.32664 0.800782,0.18164 0.144982,-0.145 0.261718,-0.0529 0.261718,0.20312 0,0.257 0.324721,0.4668 0.720703,0.4668 0.396,0 0.935237,0.21647 1.199219,0.48047 0.373,0.373 0.480469,0.36056 0.480469,-0.0508 0,-0.425 0.117627,-0.4293 0.599609,-0.0293 0.484,0.401 0.603282,0.38976 0.613282,-0.0527 0.008,-0.368 0.146828,-0.31485 0.423828,0.16015 0.227,0.39 0.582062,0.60357 0.789062,0.47657 0.206,-0.128 0.375,-0.0216 0.375,0.23437 0,0.257 0.264891,0.36406 0.587891,0.24024 0.324,-0.124 0.833766,0.0203 1.134766,0.32031 0.675982,0.676 2.28808,0.91426 3.039062,0.44726 0.384,-0.239 0.470373,-0.20467 0.275391,0.11133 -0.195,0.316 0.164689,0.46094 1.138671,0.46094 0.783,0 1.423829,0.18039 1.423829,0.40039 0,0.22 0.630408,0.40039 1.40039,0.40039 0.769999,0 1.398439,0.18039 1.398439,0.40039 0,0.22 0.54117,0.40039 1.20117,0.40039 0.66,0 1.19922,0.14331 1.19922,0.32031 0,0.177 0.74906,0.36788 1.66406,0.42188 0.915,0.054 1.98305,0.26756 2.37305,0.47656 0.391,0.209 1.17133,0.38086 1.73633,0.38086 0.564,0 1.02734,0.18039 1.02734,0.40039 0,0.22 0.9,0.39844 2,0.39844 1.1,0 2,0.18039 2,0.40039 0,0.22 0.97878,0.40039 2.17578,0.40039 1.197,0 2.2641,0.14245 2.3711,0.31445 0.107,0.173 0.70321,0.28791 1.32421,0.25391 0.621,-0.033 1.48774,0.13595 1.92774,0.37695 0.44,0.24 1.50142,0.47072 2.35742,0.51172 0.855,0.041 1.66383,0.22806 1.79883,0.41406 0.134,0.186 0.78531,0.34833 1.44531,0.36133 0.66,0.013 2.09922,0.14969 3.19922,0.30469 1.1,0.155 2.9,0.38572 4,0.51172 1.1,0.126 2.13292,0.43545 2.29492,0.68945 0.2,0.315 0.29669,0.27033 0.30469,-0.13867 0.009,-0.452 0.092,-0.47398 0.33203,-0.0977 0.216,0.342 1.17219,0.46382 2.99219,0.38282 2.059,-0.091 2.67578,0.008 2.67578,0.42968 0,0.418 0.55984,0.51697 2.33984,0.41797 1.49,-0.083 2.56403,0.0549 2.95703,0.38086 0.427,0.355 1.88877,0.49041 4.75977,0.44141 2.422,-0.042 4.62378,0.12361 5.30078,0.39843 0.669,0.271 2.92661,0.44607 5.34961,0.41407 2.604,-0.034 4.29203,0.10704 4.45703,0.37304 0.178,0.288 3.57199,0.41005 10.38281,0.37305 8.368,-0.045 10.18147,0.0456 10.48047,0.51758 0.311,0.491 0.36219,0.48794 0.36719,-0.0117 0.004,-0.366 0.14577,-0.43922 0.38477,-0.19922 0.23,0.23 4.171,0.30069 10,0.17969 6.27982,-0.131 9.6249,-0.0598 9.6289,0.20117 0.003,0.22 0.16724,0.14308 0.36524,-0.16992 0.299,-0.472 2.13086,-0.56163 10.63086,-0.51563 7.91082,0.044 10.22798,-0.0557 10.08398,-0.42968 -0.142,-0.369 1.10596,-0.46535 5.17578,-0.40235 3.339,0.052 5.27395,-0.0618 5.12695,-0.30078 -0.28682,-0.463 0.1229,-0.49678 5.13672,-0.42578 2.16,0.03 3.83752,-0.0896 3.72852,-0.26562 -0.108,-0.176 0.10466,-0.33261 0.47266,-0.34961 4.37682,-0.199 5.50684,-0.32568 5.71484,-0.63868 0.134,-0.202 1.38906,-0.36246 2.78906,-0.35546 1.554,0.007 2.66361,-0.1748 2.84961,-0.4668 0.218,-0.343 0.30936,-0.30986 0.31836,0.11914 0.009,0.463 0.0869,0.48372 0.33789,0.0879 0.205,-0.323 1.37225,-0.54561 3.15625,-0.59961 1.557,-0.047 2.74753,-0.22072 2.64453,-0.38672 -0.183,-0.295 1.90471,-0.50572 3.84571,-0.38672 0.541,0.033 1.10967,-0.14453 1.26367,-0.39453 0.154,-0.249 1.11481,-0.45312 2.13281,-0.45312 1.113,0 1.64398,-0.13113 1.33398,-0.32813 -0.54,-0.342 -0.44171,-0.3609 2.48829,-0.5039 0.77282,-0.038 1.59321,-0.18513 1.82421,-0.32813 0.23,-0.142 1.44232,-0.30056 2.69532,-0.35156 1.252,-0.05 2.27734,-0.24183 2.27734,-0.42383 0,-0.183 0.80883,-0.33203 1.79883,-0.33203 0.99,0 1.80078,-0.17844 1.80078,-0.39844 0,-0.22 0.50314,-0.40039 1.11914,-0.40039 0.616,0 1.29291,-0.17181 1.50391,-0.38281 0.211,-0.211 1.13001,-0.436 2.04101,-0.5 0.912,-0.064 1.57561,-0.25297 1.47461,-0.41797 -0.167,-0.27 0.81272,-0.41425 2.76172,-0.40625 0.385,0.002 0.69922,-0.1547 0.69922,-0.3457 0,-0.191 0.63039,-0.34766 1.40039,-0.34766 0.77,0 1.40039,-0.18039 1.40039,-0.40039 0,-0.22 0.70917,-0.40039 1.57617,-0.40039 0.867,0 1.67302,-0.1557 1.79102,-0.3457 0.118,-0.191 0.64578,-0.26311 1.17578,-0.16211 0.529,0.102 1.08347,-0.012 1.23047,-0.25 0.166,-0.269 0.0315,-0.34332 -0.35352,-0.19532 -0.342,0.131 -0.62109,0.0513 -0.62109,-0.17773 0,-0.229 0.45953,-0.33147 1.01953,-0.23047 0.588,0.107 1.26555,-0.0662 1.60937,-0.41016 0.327,-0.327 0.8596,-0.49118 1.1836,-0.36718 0.338,0.13 0.59075,-0.006 0.59375,-0.31836 0.005,-0.425 0.0869,-0.41464 0.37891,0.0469 0.32282,0.512 0.40423,0.50682 0.61523,-0.041 0.155,-0.406 0.57183,-0.56617 1.17383,-0.45117 0.513,0.098 1.07236,-0.0453 1.24218,-0.32032 0.212,-0.344 0.14616,-0.39878 -0.21484,-0.17578 -0.353,0.218 -0.42751,0.1677 -0.22851,-0.1543 0.162,-0.263 0.64145,-0.37032 1.06445,-0.23632 0.477,0.152 0.84933,0.0279 0.98633,-0.32813 0.157,-0.411 0.69361,-0.5243 1.89843,-0.4043 1.244,0.124 1.52313,0.058 1.07813,-0.25 -0.627,-0.435 -0.32092,-0.57545 0.95508,-0.43945 0.415,0.045 0.88311,-0.125 1.03711,-0.375 0.155,-0.25 0.67329,-0.48353 1.15429,-0.51953 0.55,-0.041 0.79797,-0.26456 0.66797,-0.60156 -0.112,-0.294 -0.0512,-0.43922 0.13477,-0.32422 0.36,0.223 2.44226,-0.61733 2.44726,-0.98633 0.002,-0.12 0.67605,-0.26336 1.49805,-0.31836 0.822,-0.056 1.64131,-0.36164 1.82031,-0.68164 0.178,-0.32 0.56543,-0.58203 0.85743,-0.58203 0.29182,0 0.75334,-0.26961 1.02734,-0.59961 0.274,-0.33 0.81517,-0.59961 1.20117,-0.59961 0.386,0 0.91591,-0.25822 1.17773,-0.57422 0.262,-0.316 1.0054,-0.69003 1.6504,-0.83203 0.64382,-0.142 1.17473,-0.46856 1.17773,-0.72656 0.004,-0.27 0.17053,-0.21319 0.39453,0.13281 0.229,0.355 0.38858,0.40695 0.39258,0.12695 0.003,-0.26 0.37994,-0.59132 0.83594,-0.73632 0.515,-0.164 0.74447,-0.48466 0.60547,-0.84766 -0.124,-0.321 -0.0623,-0.48533 0.13671,-0.36133 0.2,0.123 0.62822,-0.0384 0.94922,-0.35937 0.322,-0.322 0.70933,-0.45964 0.86133,-0.30664 0.153,0.152 0.45297,-0.0369 0.66797,-0.41993 0.214,-0.383 0.66019,-0.69531 0.99219,-0.69531 0.333,0 0.49342,-0.18039 0.35742,-0.40039 -0.136,-0.22 0.0843,-0.40039 0.48828,-0.40039 0.405,0 0.98788,-0.3503 1.29688,-0.7793 0.308,-0.428 0.69537,-0.69475 0.85937,-0.59375 0.164,0.102 0.41464,-0.18095 0.55664,-0.62695 0.142,-0.446 0.3935,-0.72609 0.5625,-0.62109 0.558,0.344 2.10138,-1.03507 1.85938,-1.66407 -0.158,-0.412 -0.0474,-0.5319 0.35156,-0.3789 0.36,0.138 0.6838,-0.0889 0.8418,-0.58789 0.141,-0.445 0.35275,-0.71366 0.46875,-0.59766 0.381,0.381 1.35637,-0.9158 1.23437,-1.64062 -0.066,-0.39 0.0926,-0.66797 0.35156,-0.61915 0.259,0.05 0.70138,-0.43326 0.98438,-1.07226 0.282,-0.639 0.68176,-1.05764 0.88476,-0.93164 0.208,0.129 0.2876,-0.3183 0.1836,-1.0293 -0.101,-0.691 -0.0251,-1.25781 0.16992,-1.25781 0.195,0 0.25005,-0.16709 0.12305,-0.37109 -0.126,-0.205 -0.0481,-0.4841 0.17187,-0.6211 0.227,-0.14 0.35964,-1.61167 0.30664,-3.38867 -0.052,-1.727 -0.22953,-3.05608 -0.39453,-2.95508 -0.165,0.101 -0.30078,-0.36606 -0.30078,-1.03906 0,-0.673 -0.18039,-1.22461 -0.40039,-1.22461 -0.22,0 -0.39844,-0.30283 -0.39844,-0.67383 0,-0.371 -0.40539,-1.12101 -0.90039,-1.66601 -0.495,-0.544 -0.66309,-0.8516 -0.37109,-0.6836 0.439,0.255 0.439,0.14977 0,-0.61523 -0.73,-1.27 -1.92855,-2.59272 -1.93555,-2.13672 -0.003,0.206 -0.23272,-0.075 -0.51172,-0.625 -0.343,-0.678 -0.84641,-1.00558 -1.56641,-1.01758 -0.58382,-0.01 -0.98081,0.11149 -0.88281,0.27149 0.099,0.16 -0.004,0.40496 -0.22656,0.54296 -0.224,0.138 -0.40625,0.0772 -0.40625,-0.13476 0,-0.212 -0.37498,-0.28797 -0.83398,-0.16797 -0.634,0.166 -0.70679,0.29769 -0.30079,0.55469 0.388,0.246 0.28877,0.35548 -0.36523,0.39648 -1.743,0.109 -1.9007,0.18038 -1.8457,0.85938 0.03,0.378 -0.0896,0.59828 -0.26758,0.48828 -0.177,-0.11 -0.60708,0.0836 -0.95508,0.43164 -0.347,0.348 -0.63086,0.49322 -0.63086,0.32422 0,-0.17 -0.20222,-0.10638 -0.44922,0.14062 -0.247,0.247 -0.7274,0.34289 -1.0664,0.21289 -0.405,-0.156 -0.51813,-0.0765 -0.32813,0.23047 0.174,0.281 0.04,0.4668 -0.33398,0.4668 -0.343,0 -0.62305,0.19083 -0.62305,0.42383 0,0.233 -0.18039,0.31373 -0.40039,0.17773 -0.22,-0.136 -0.40039,-0.0733 -0.40039,0.13867 0,0.212 -0.35883,0.29078 -0.79883,0.17578 -0.44,-0.115 -0.80078,-0.0229 -0.80078,0.20508 0,0.228 -0.9,0.82136 -2,1.31836 -1.1,0.497 -2,1.01249 -2,1.14649 0,0.134 -0.38828,0.27454 -0.86328,0.31054 -0.475,0.036 -0.99335,0.2733 -1.15235,0.5293 -0.209,0.339 -0.3459,0.31826 -0.5039,-0.0801 -0.154,-0.387 -0.22605,-0.40026 -0.24805,-0.0449 -0.018,0.275 -0.35119,0.5 -0.74219,0.5 -0.391,0 -1.01948,0.36078 -1.39648,0.80078 -0.377,0.44 -1.10138,0.79883 -1.60938,0.79883 -0.508,0 -1.09754,0.17372 -1.31054,0.38672 -0.212,0.212 -0.96769,0.43133 -1.67969,0.48633 -0.711,0.054 -1.29297,0.23911 -1.29297,0.41211 0,0.173 -0.36078,0.31445 -0.80078,0.31445 -0.44,0 -0.80078,0.18039 -0.80078,0.40039 0,0.22 -0.35883,0.40039 -0.79883,0.40039 -0.44,0 -0.80078,0.17567 -0.80078,0.38867 0,0.213 -0.85539,0.34683 -1.90039,0.29883 -1.436,-0.067 -1.86925,0.0469 -1.78125,0.46289 0.08,0.376 -0.14317,0.48289 -0.70117,0.33789 -0.579,-0.152 -0.81827,-0.0198 -0.82227,0.44922 -0.005,0.578 -0.0616,0.5855 -0.43164,0.0625 -0.287,-0.407 -0.48528,-0.45358 -0.61328,-0.14258 -0.103,0.251 -0.51883,0.37163 -0.92383,0.26563 -0.405,-0.106 -0.85708,0.003 -1.0039,0.24218 -0.148,0.239 -0.61793,0.43555 -1.04493,0.43555 -0.427,0 -0.77734,0.19083 -0.77734,0.42383 0,0.233 -0.18039,0.31178 -0.40039,0.17578 -0.22,-0.136 -0.4013,0.0786 -0.4043,0.47656 -0.004,0.489 -0.1065,0.56524 -0.3125,0.24024 -0.436,-0.684 -2.08089,-0.47342 -2.08789,0.26758 -0.005,0.498 -0.0716,0.51058 -0.34961,0.0723 -0.256,-0.403 -0.41976,-0.42058 -0.63476,-0.0723 -0.16,0.258 -0.53689,0.37476 -0.83789,0.25976 -0.301,-0.116 -1.04816,0.0492 -1.66016,0.36719 -0.611,0.318 -1.44933,0.47084 -1.86133,0.33984 -0.49,-0.155 -0.65556,-0.0839 -0.47656,0.20508 0.267,0.433 -0.70083,0.62694 -2.29883,0.46094 -0.398,-0.042 -1.01795,0.16212 -1.37695,0.45312 -0.555,0.45 -0.59983,0.44052 -0.29883,-0.0703 0.288,-0.489 0.24467,-0.513 -0.23633,-0.125 -0.324,0.262 -1.09394,0.56769 -1.71094,0.67969 -0.617,0.112 -1.33189,0.36364 -1.58789,0.55664 -0.256,0.193 -1.04867,0.29361 -1.76367,0.22461 -0.715,-0.069 -1.30078,0.0525 -1.30078,0.26953 0,0.217 -0.70917,0.39453 -1.57617,0.39453 -0.867,0 -1.68822,0.18039 -1.82422,0.40039 -0.136,0.22 -1.12522,0.39844 -2.19922,0.39844 -1.074,0 -2.06517,0.18039 -2.20117,0.40039 -0.136,0.22 -1.12163,0.40039 -2.18945,0.40039 -1.069,0 -2.00218,0.16705 -2.07618,0.37305 -0.073,0.206 -1.1847,0.431 -2.4707,0.5 -1.286,0.069 -2.42339,0.26273 -2.52539,0.42773 -0.102,0.165 -1.08359,0.29883 -2.18359,0.29883 -1.494,0 -1.92518,0.127 -1.70118,0.5 0.175,0.291 -0.0141,0.25022 -0.45312,-0.0996 -0.439,-0.35 -0.62813,-0.39078 -0.45313,-0.0996 0.225,0.374 -0.216,0.5 -1.75,0.5 -1.12682,0 -2.37162,0.17181 -2.76562,0.38281 -0.393,0.211 -2.18166,0.41513 -3.97266,0.45313 -1.792,0.038 -3.25781,0.22501 -3.25781,0.41601 0,0.191 -1.53039,0.34766 -3.40039,0.34766 -2,0 -3.40039,0.16539 -3.40039,0.40039 0,0.232 -1.30614,0.40039 -3.11914,0.40039 -1.716,0 -3.29481,0.17372 -3.50781,0.38672 -0.212,0.212 -3.12943,0.40759 -6.48243,0.43359 -3.35182,0.027 -5.99976,0.20168 -5.88476,0.38868 0.216,0.349 -11.47069,0.71668 -29.48633,0.92968 -5.72382,0.067 -10.18445,-0.0336 -10.06445,-0.22656 0.117,-0.19 -2.90771,-0.3315 -6.72071,-0.3125 -10.69264,0.051 -11.2024,0.0343 -10.9414,-0.38867 0.152,-0.246 -2.0018,-0.38967 -5.8418,-0.38867 -3.656,0.002 -6.24905,-0.16116 -6.49805,-0.41016 -0.227,-0.227 -1.72603,-0.41211 -3.33203,-0.41211 -2.06582,0 -2.92178,-0.146 -2.92578,-0.5 -0.004,-0.333 -0.13653,-0.30022 -0.39453,0.0996 -0.258,0.4 -0.39053,0.43278 -0.39453,0.0996 -0.004,-0.361 -0.96069,-0.5 -3.42969,-0.5 -2.18,0 -3.33278,-0.14539 -3.17578,-0.40039 0.158,-0.255 -1.00517,-0.40039 -3.20117,-0.40039 -1.896,0 -3.35233,-0.15302 -3.23633,-0.33984 0.115,-0.187 -1.08991,-0.37588 -2.67773,-0.42188 -1.587,-0.045 -2.94458,-0.25098 -3.01758,-0.45898 -0.074,-0.208 -1.01861,-0.37891 -2.09961,-0.37891 -1.082,0 -1.96875,-0.18039 -1.96875,-0.40039 0,-0.222 -1.06544,-0.39844 -2.39844,-0.39844 -1.444,0 -2.40039,-0.17264 -2.40039,-0.43164 0,-0.263 -0.77691,-0.38726 -2.00391,-0.32226 -1.15682,0.061 -2.20351,-0.0941 -2.47851,-0.36915 -0.262,-0.262 -1.24083,-0.47851 -2.17383,-0.47851 -0.933,0 -1.81212,-0.18606 -1.95312,-0.41406 -0.141,-0.228 -0.94602,-0.37227 -1.79102,-0.32227 -0.844,0.05 -1.77341,-0.0924 -2.06641,-0.31445 -0.293,-0.222 -1.05536,-0.43674 -1.69336,-0.47656 -0.63682,-0.04 -1.35661,-0.22135 -1.59961,-0.40235 -0.24182,-0.181 -0.80023,-0.35758 -1.24023,-0.39258 -1.26,-0.102 -1.95977,-0.27318 -2.50977,-0.61718 -0.27982,-0.175 -1.18,-0.26999 -2,-0.20899 -0.98082,0.072 -1.45853,-0.0513 -1.39453,-0.36133 0.063,-0.303 -0.32975,-0.42298 -1.09375,-0.33398 -0.675928,0.079 -1.389481,-0.0982 -1.646481,-0.4082 -0.249982,-0.301 -0.656297,-0.54402 -0.904297,-0.54102 -0.247982,0.003 -0.181562,0.18153 0.148438,0.39453 0.33,0.213 0.415453,0.38958 0.189453,0.39258 -0.226,0.003 -0.788047,-0.25808 -1.248047,-0.58008 -0.460982,-0.322 -0.949908,-0.47103 -1.08789,-0.33203 -0.139,0.139 -0.253907,0.0184 -0.253907,-0.26758 0,-0.371 -0.403957,-0.45211 -1.419921,-0.28711 -1.057982,0.172 -1.482268,0.0731 -1.65625,-0.38086 -0.136,-0.355 -0.539862,-0.52897 -0.964844,-0.41797 -0.418,0.109 -0.694514,-0.008 -0.644532,-0.26953 0.052,-0.278 -0.426908,-0.43443 -1.21289,-0.39843 -0.713982,0.032 -1.197172,-0.10379 -1.076172,-0.30079 0.222,-0.358 -0.588612,-0.5169 -1.933594,-0.3789 -0.389982,0.04 -0.659609,-0.15464 -0.599609,-0.43164 0.07,-0.324 -0.392034,-0.52174 -1.291016,-0.55274 -2.092964,-0.071 -4.4225,-0.63853 -4.1875,-1.01953 0.114,-0.184 -0.146125,-0.26659 -0.578125,-0.18359 -0.430982,0.083 -0.99683,-0.10492 -1.257812,-0.41992 -0.261,-0.315 -0.892362,-0.57227 -1.402344,-0.57227 -0.509982,0 -1.039781,-0.18039 -1.175781,-0.40039 -0.136,-0.22 -0.580299,-0.40039 -0.988281,-0.40039 -0.409,0 -0.834313,-0.225 -0.945313,-0.5 -0.14,-0.347 -0.212375,-0.31848 -0.234375,0.0898 -0.022,0.406 -0.225297,0.31122 -0.654297,-0.30078 -0.361,-0.516 -1.042047,-0.88867 -1.623047,-0.88867 -0.550982,0 -0.91364,-0.14145 -0.80664,-0.31445 0.107,-0.173 -0.15319,-0.34863 -0.576172,-0.39063 -1.730982,-0.171 -1.970703,-0.24351 -1.970703,-0.60351 0,-0.207 -0.265844,-0.27539 -0.589844,-0.15039 -0.325,0.124 -0.730391,-0.0212 -0.900391,-0.32422 -0.171,-0.303 -0.580156,-0.61255 -0.910156,-0.68555 -0.33,-0.072 -0.915799,-0.47458 -1.300781,-0.89258 C 64.314287,234.21661 64,234.09152 64,234.35352 c 0,0.263 -0.401549,0.10353 -0.894531,-0.35547 -0.592,-0.551 -0.947735,-0.67047 -1.052735,-0.35547 -0.098,0.292 -0.463406,0.10358 -0.941406,-0.48242 -0.429982,-0.528 -0.645451,-0.70458 -0.480469,-0.39258 0.193,0.365 -0.07495,0.29478 -0.751953,-0.19922 -0.578982,-0.422 -1.060406,-1.01255 -1.066406,-1.31055 -0.009,-0.387 -0.330299,-0.47106 -1.113281,-0.28906 -0.717,0.166 -0.910641,0.12858 -0.556641,-0.10742 0.657982,-0.439 0.137263,-0.83127 -1.261719,-0.94727 -0.544982,-0.045 -0.913359,-0.28325 -0.818359,-0.53125 0.095,-0.247 -0.0607,-0.45775 -0.345703,-0.46875 -0.284,-0.01 -0.862221,-0.16098 -1.283203,-0.33398 -0.2975,-0.123 -0.469735,-0.16949 -0.53711,-0.13086 z m 104.226566,8.8164 c 0.70584,0.16564 1.41709,0.30729 2.12695,0.45508 v -0.27734 c -0.70903,-0.0587 -1.41775,-0.12024 -2.12695,-0.17774 z M 51.980469,268.54883 c -0.24425,10e-4 -0.38086,0.096 -0.38086,0.29297 0,0.217 -0.311406,0.33939 -0.691406,0.27539 -0.379982,-0.065 -0.710375,0.0632 -0.734375,0.2832 -0.095,0.88 -0.677625,1.78322 -1.015625,1.57422 -0.197,-0.122 -0.357422,0.0698 -0.357422,0.42578 0,0.357 -0.192734,0.52881 -0.427734,0.38281 -0.234,-0.145 -0.378359,-0.0197 -0.318359,0.27735 0.059,0.297 -0.23811,1.16945 -0.66211,1.93945 -0.897982,1.632 -1.160685,4.423 -0.470703,5 0.636982,0.533 0.61189,2.71591 -0.03711,3.12891 -0.738,0.471 -0.489123,3.47718 0.380859,4.61718 0.398,0.521 0.625859,1.10679 0.505859,1.30079 -0.12,0.19382 -0.04026,0.35351 0.177735,0.35351 0.397982,0 1.078687,1.53661 0.929687,2.09961 -0.043,0.165 0.0557,0.27991 0.220703,0.25391 1.034982,-0.164 1.493373,0.0623 0.900391,0.44531 -0.507982,0.328 -0.488076,0.38953 0.128906,0.39453 0.809982,0.007 1.871094,0.9098 1.871094,1.5918 0,0.662 2.757688,3.28834 3.179688,3.02734 0.200982,-0.124 0.495314,-0.0148 0.654296,0.24219 0.181,0.293 0.116125,0.36159 -0.171875,0.18359 -0.253982,-0.157 -0.46289,-0.0829 -0.46289,0.16406 0,0.246 0.405408,0.39127 0.90039,0.32227 0.555,-0.077 0.862782,0.066 0.800782,0.375 -0.055,0.275 0.180437,0.5 0.523437,0.5 0.37,0 0.507891,0.18789 0.337891,0.46289 -0.195,0.315 -0.02013,0.39214 0.546875,0.24414 0.614982,-0.161 0.773404,-0.0648 0.607422,0.36719 -0.136,0.354 -0.0059,0.55381 0.330078,0.50781 0.930982,-0.13 1.556812,0.002 1.507812,0.31836 -0.14,0.884 0.129721,1.29883 0.845703,1.29883 0.44,0 0.800782,0.18039 0.800782,0.40039 0,0.22 0.583828,0.40325 1.298828,0.40625 0.985982,0.005 1.156154,0.10053 0.701172,0.39453 -0.483,0.312 -0.418764,0.38953 0.324218,0.39453 0.595,0.004 0.820719,0.1688 0.636719,0.4668 -0.181,0.292 -0.108687,0.35401 0.195313,0.16601 0.262982,-0.163 0.774736,-0.0557 1.136718,0.23829 0.459,0.371 0.570264,0.38238 0.363282,0.0391 -0.202,-0.337 -0.09969,-0.42077 0.320312,-0.25977 0.34,0.131 0.518467,0.40066 0.396485,0.59766 -0.122,0.197 0.05934,0.35742 0.402343,0.35742 0.343,0 0.625,0.15952 0.625,0.35352 0,0.393 1.433862,0.94517 2.464844,0.95117 0.433,0.002 0.584623,0.21823 0.431641,0.61523 -0.157,0.409 -0.07405,0.51255 0.251953,0.31055 0.266982,-0.165 0.739781,-0.0881 1.050781,0.16992 0.311,0.258 0.781922,0.33488 1.044922,0.17188 0.304,-0.188 0.374359,-0.12599 0.193359,0.16601 -0.254982,0.413 0.223518,0.64081 1.0625,0.50781 0.165,-0.026 0.298828,0.13352 0.298828,0.35352 0,0.22 0.282018,0.40039 0.625,0.40039 0.343,0 0.512889,-0.17753 0.378907,-0.39453 -0.318,-0.514 1.034752,-0.01 1.677734,0.625 0.264,0.261 0.368422,0.5847 0.232422,0.7207 -0.136,0.137 0.513377,0.24805 1.443359,0.24805 0.929982,0 1.604,0.13764 1.5,0.30664 -0.104,0.168 0.245362,0.51267 0.777344,0.76367 0.728982,0.344 0.898453,0.34442 0.689453,-0.008 -0.153,-0.255 0.02553,-0.21746 0.394531,0.082 0.37,0.299 0.963313,0.43192 1.320313,0.29492 0.466982,-0.179 0.584951,-0.0785 0.417969,0.35547 -0.174,0.454 0.05764,0.60547 0.93164,0.60547 0.64,0 1.27611,0.18039 1.41211,0.40039 0.135982,0.22 0.787283,0.40039 1.447265,0.40039 0.66,0 1.100516,0.16042 0.978516,0.35742 -0.122,0.197 0.451408,0.45713 1.27539,0.57813 2.989964,0.437 4.097516,0.76398 4.103516,1.20898 0.003,0.25 0.181549,0.18547 0.394531,-0.14453 0.303,-0.468 0.389532,-0.48152 0.394532,-0.0547 0.004,0.354 0.296078,0.47103 0.830078,0.33203 0.519982,-0.13582 0.911658,0.007 1.05664,0.38672 0.188,0.49 0.293219,0.50168 0.574219,0.0684 0.219,-0.34 0.453549,-0.38781 0.644531,-0.13281 0.165,0.22 0.659593,0.46111 1.099611,0.53711 0.44,0.075 0.86059,0.3 0.93359,0.5 0.074,0.199 0.83822,0.36328 1.69922,0.36328 0.862,0 1.56836,0.18606 1.56836,0.41406 0,0.227 0.4927,0.34563 1.0957,0.26563 0.602,-0.081 1.33396,0.0937 1.62696,0.38672 0.293,0.293 1.24047,0.5332 2.10547,0.5332 0.86382,0 1.57226,0.18039 1.57226,0.40039 0,0.22 0.80883,0.39844 1.79883,0.39844 0.99,0 1.80078,0.14336 1.80078,0.31836 0,0.175 0.66547,0.36297 1.48047,0.41797 0.814,0.055 1.67511,0.26198 1.91211,0.45898 0.237,0.197 1.37153,0.40013 2.51953,0.45313 1.149,0.052 2.08789,0.20865 2.08789,0.34765 0,0.138 0.88861,0.23103 1.97461,0.20703 1.097,-0.025 1.875,0.11636 1.75,0.31836 -0.127,0.205 0.147,0.24788 0.625,0.0957 0.471,-0.15 0.84961,-0.0959 0.84961,0.12109 0,0.215 0.82789,0.37828 1.83789,0.36328 1.01,-0.015 1.967,0.1805 2.125,0.4375 0.184,0.298 1.17741,0.4218 2.74023,0.3418 1.348,-0.07 2.37039,-7e-4 2.27539,0.1543 -0.096,0.15482 0.10532,0.38853 0.44532,0.51953 0.42,0.161 0.52231,0.0772 0.32031,-0.25977 -0.23,-0.382 -0.1657,-0.3873 0.2793,-0.0293 0.32,0.257 1.60095,0.42591 2.87695,0.37891 1.756,-0.064 2.30078,0.0485 2.30078,0.48047 0,0.448 0.57783,0.5342 2.79883,0.4082 1.54,-0.087 2.80078,-0.0291 2.80078,0.12891 0,0.268 1.42057,0.37397 12.90039,0.96679 2.365,0.122 4.29883,0.39166 4.29883,0.59766 0,0.219 2.97678,0.375 7.17578,0.375 4.353,0 7.27383,0.15544 7.42383,0.39844 0.159,0.258 7.19696,0.40039 19.80078,0.40039 12.60382,0 19.64178,-0.14239 19.80078,-0.40039 0.15,-0.243 3.07083,-0.39844 7.42383,-0.39844 4.51682,0 7.17578,-0.14839 7.17578,-0.40039 0,-0.242 1.72219,-0.40039 4.36719,-0.40039 2.401,0 4.426,-0.17186 4.5,-0.38086 0.073,-0.209 1.8882,-0.41022 4.0332,-0.44922 2.145,-0.039 3.89844,-0.20895 3.89844,-0.37695 0,-0.167 1.47058,-0.2107 3.26758,-0.0957 2.49682,0.159 3.37017,0.0782 3.70117,-0.34375 0.288,-0.368 1.291,-0.55274 3,-0.55274 1.428,0 2.62708,-0.18497 2.70508,-0.41797 0.082,-0.246 1.03803,-0.36034 2.33203,-0.27734 1.652,0.105 2.19531,0.006 2.19531,-0.4043 0,-0.421 0.64433,-0.51144 2.86133,-0.39844 1.977,0.101 2.95501,-0.006 3.16601,-0.34765 0.168,-0.272 1.02721,-0.53403 1.90821,-0.58203 0.881,-0.048 1.84081,-0.23602 2.13281,-0.41602 0.293,-0.181 1.03439,-0.27594 1.65039,-0.21094 0.616,0.065 1.37645,-0.0935 1.68945,-0.35351 0.313,-0.259 1.24908,-0.47266 2.08008,-0.47266 0.831,0.001 1.60571,-0.15094 1.72071,-0.33594 0.11482,-0.185 1.14882,-0.37864 2.29882,-0.43164 1.15,-0.052 2.0918,-0.24382 2.0918,-0.42382 0,-0.181 0.55161,-0.32813 1.22461,-0.32813 0.704,0 1.11951,-0.16753 0.97851,-0.39453 -0.13982,-0.227 0.019,-0.2942 0.375,-0.1582 0.342,0.131 0.6211,0.0712 0.6211,-0.13477 0,-0.205 0.54117,-0.29409 1.20117,-0.19727 0.72,0.105 1.19922,-0.003 1.19922,-0.27148 0,-0.251 0.68336,-0.44336 1.56836,-0.44336 0.874,0 1.63751,-0.21628 1.72851,-0.48828 0.097,-0.291 0.75468,-0.44572 1.63868,-0.38672 0.942,0.064 1.55554,-0.0945 1.68554,-0.43555 0.119,-0.31 0.70458,-0.50012 1.39258,-0.45312 0.653,0.045 1.28911,-0.0793 1.41211,-0.27734 0.122,-0.198 0.64034,-0.35938 1.15234,-0.35938 0.512,0 1.42357,-0.25636 2.02539,-0.56836 0.603,-0.313 1.37294,-0.46203 1.71094,-0.33203 0.404,0.155 0.51813,0.0746 0.32813,-0.23242 -0.2,-0.324 0.14976,-0.4668 1.13476,-0.4668 0.783,0 1.42383,-0.18039 1.42383,-0.40039 0,-0.22 0.58383,-0.40325 1.29883,-0.40625 0.986,-0.005 1.15617,-0.10053 0.70117,-0.39453 -0.623,-0.402 -0.31194,-0.54397 0.91406,-0.41797 0.842,0.087 3.08594,-0.8433 3.08594,-1.2793 0,-0.166 0.6598,-0.30273 1.4668,-0.30273 0.806,0 1.34617,-0.11867 1.20117,-0.26367 -0.433,-0.433 1.21178,-1.35603 1.92578,-1.08203 0.924,0.355 2.79428,-0.67316 2.11328,-1.16016 -0.344,-0.246 -0.21642,-0.30002 0.39258,-0.16602 0.495,0.108 0.90039,0.0434 0.90039,-0.14257 0,-0.187 0.35883,-0.27055 0.79883,-0.18555 0.495,0.095 0.80078,-0.0612 0.80078,-0.41016 0,-0.338 0.24061,-0.47098 0.59961,-0.33398 0.33,0.127 0.59961,0.0111 0.59961,-0.25586 0,-0.267 0.25827,-0.38758 0.57227,-0.26758 0.31382,0.121 0.78582,-0.0385 1.04882,-0.35547 0.263,-0.317 0.72821,-0.57617 1.03321,-0.57617 0.954,0 4.22779,-1.70266 3.79297,-1.97266 -0.244,-0.151 -0.0768,-0.46748 0.41015,-0.77148 0.454,-0.284 0.70655,-0.32262 0.56055,-0.0859 -0.146,0.237 -0.0748,0.42969 0.1582,0.42969 0.233,0 0.42383,-0.18039 0.42383,-0.40039 0,-0.22 0.37122,-0.40039 0.82422,-0.40039 0.453,0 0.71217,-0.17844 0.57617,-0.39844 -0.136,-0.22 -0.0391,-0.40039 0.21289,-0.40039 0.253,0 0.81691,-0.40539 1.25391,-0.90039 0.437,-0.495 0.68101,-0.67539 0.54101,-0.40039 -0.14,0.275 -0.065,0.5 0.16797,0.5 0.233,0 0.42383,-0.15089 0.42383,-0.33789 0,-0.724 1.53809,-2.0625 2.37109,-2.0625 0.482,0 0.76491,-0.17844 0.62891,-0.39844 -0.136,-0.22 0.0786,-0.40325 0.47656,-0.40625 0.457,-0.004 0.55558,-0.11578 0.26758,-0.30078 -0.333,-0.215 -0.31452,-0.42525 0.0703,-0.78125 0.414,-0.385 0.56861,-0.385 0.72461,0 0.109,0.269 0.21152,0.16367 0.22852,-0.23633 0.018,-0.398 0.21359,-0.61256 0.43359,-0.47656 0.22,0.136 0.39844,-0.12789 0.39844,-0.58789 0,-0.46 0.31617,-0.95275 0.70117,-1.09375 0.385,-0.142 0.84353,-0.49511 1.01953,-0.78711 0.176,-0.291 0.59183,-0.53125 0.92383,-0.53125 0.333,0 0.49147,-0.18039 0.35547,-0.40039 -0.136,-0.22 0.0786,-0.41364 0.47656,-0.43164 0.4,-0.017 0.50533,-0.11952 0.23633,-0.22852 -0.516,-0.209 -0.3997,-0.41864 1.20312,-2.18164 0.393,-0.433 0.61991,-0.93995 0.50391,-1.12695 -0.116,-0.187 0.0559,-0.56008 0.38086,-0.83008 0.325,-0.27 0.50539,-0.63078 0.40039,-0.80078 -0.105,-0.17 0.0773,-0.53091 0.4043,-0.80273 0.74,-0.614 0.8176,-3.59766 0.0937,-3.59766 -0.364,0 -0.4836,-0.80144 -0.4336,-2.89844 0.059,-2.469 -0.0608,-3.04323 -0.79882,-3.86523 -0.486,-0.541 -0.60263,-0.83475 -0.26563,-0.66993 0.371,0.182 0.3344,0.0766 -0.0937,-0.27539 -0.381,-0.313 -0.57659,-0.68607 -0.43359,-0.83007 0.143,-0.143 0.0509,-0.25977 -0.20508,-0.25977 -0.257,0 -0.44788,-0.13578 -0.42188,-0.30078 0.155,-0.982 -0.13509,-1.75919 -0.74609,-1.99219 -0.385,-0.147 -1.05052,-0.59323 -1.47852,-0.99023 -0.79182,-0.736 -2.15145,-0.63002 -2.68945,0.20898 -0.237,0.369 -0.64655,0.48614 -2.60937,0.74414 -0.263,0.035 -0.44339,0.22864 -0.40039,0.43164 0.115,0.544 -1.82946,1.926 -2.81446,2 -0.468,0.035 -0.77659,0.18885 -0.68359,0.33985 0.246,0.397 -1.01649,0.81004 -1.52149,0.49804 -0.251,-0.155 -0.30862,-0.0747 -0.14062,0.19727 0.187,0.303 -0.0673,0.46289 -0.73828,0.46289 -0.651,0 -1.02344,0.22138 -1.02344,0.60938 0,0.35782 -0.49717,0.71056 -1.20117,0.85156 -0.66,0.132 -1.19922,0.3864 -1.19922,0.5664 0,0.18 -0.34558,0.25874 -0.76758,0.17774 -0.423,-0.081 -0.86733,0.10601 -0.98633,0.41601 -0.121,0.314 -0.48903,0.46013 -0.83203,0.32813 -0.413,-0.158 -0.62448,0.01 -0.64648,0.50781 -0.022,0.518 -0.097,0.57264 -0.25196,0.18164 -0.16182,-0.41 -0.3649,-0.30161 -0.7539,0.40039 -0.484,0.873 -0.53555,0.88716 -0.56055,0.16016 -0.025,-0.747 -0.0607,-0.75347 -0.55273,-0.10547 -0.29,0.381 -0.62133,0.59937 -0.73633,0.48437 -0.294,-0.29382 -2.3125,0.67338 -2.3125,1.10938 0,0.197 -0.18039,0.24928 -0.40039,0.11328 -0.22,-0.136 -0.39844,-0.0819 -0.39844,0.1211 0,0.20182 -0.42912,0.28554 -0.95312,0.18554 -0.524,-0.1 -1.07561,0.0139 -1.22461,0.25391 -0.148,0.241 -0.71953,0.43945 -1.26953,0.43945 -0.565,0 -0.89391,0.17244 -0.75391,0.39844 0.262,0.424 -0.17383,0.52873 -1.79883,0.42773 -0.724,-0.045 -0.85003,0.0387 -0.45703,0.30469 0.717,0.486 0.19175,0.69616 -1.65625,0.66016 -1.041,-0.021 -1.45227,0.12193 -1.32227,0.46093 0.123,0.321 -0.1062,0.43608 -0.6582,0.33008 -0.466,-0.09 -1.10973,0.0514 -1.42773,0.31641 -0.319,0.264 -1.09652,0.42833 -1.72852,0.36133 -0.633,-0.066 -1.15039,0.0716 -1.15039,0.30859 0,0.236 -0.55161,0.43164 -1.22461,0.43164 -0.713,0 -1.12056,0.16544 -0.97656,0.39844 0.211,0.341 -1.48203,0.60178 -1.95703,0.30078 -0.087,-0.055 -0.50283,0.2108 -0.92383,0.5918 -0.424,0.384 -1.15739,0.61648 -1.65039,0.52148 -0.489,-0.094 -0.79569,-0.019 -0.67969,0.16797 0.116,0.188 -0.6425,0.43478 -1.6875,0.55078 -2.879,0.318 -4.5,0.72028 -4.5,1.11328 0,0.195 -0.64373,0.35547 -1.42773,0.35547 -0.785,0 -1.74482,0.16895 -2.13282,0.37695 -0.389,0.208 -1.53578,0.42161 -2.55078,0.47461 -1.015,0.052 -1.75453,0.24188 -1.64453,0.42188 0.111,0.179 -0.4377,0.32617 -1.2207,0.32617 -0.869,0 -1.42569,0.195 -1.42969,0.5 -0.004,0.333 -0.13653,0.30022 -0.39453,-0.0996 -0.258,-0.4 -0.39053,-0.43456 -0.39453,-0.10156 -0.004,0.325 -0.63469,0.5 -1.80469,0.5 -0.99,0 -1.80078,0.14903 -1.80078,0.33203 0,0.182 -1.02452,0.37383 -2.27734,0.42383 -1.253,0.051 -2.54419,0.24087 -2.86719,0.42187 -0.324,0.181 -1.27624,0.238 -2.11524,0.125 -1.09182,-0.146 -1.58814,-0.0437 -1.74414,0.36133 -0.151,0.395 -0.85064,0.5552 -2.30664,0.5332 -2.25682,-0.035 -3.17778,0.13693 -2.92578,0.54493 0.088,0.142 -0.71706,0.24832 -1.78906,0.23632 -1.214,-0.014 -2.02258,0.16747 -2.14258,0.48047 -0.141,0.369 -0.98969,0.44602 -3.17969,0.29102 -1.99282,-0.141 -3.29701,-0.0458 -3.91601,0.28516 -0.568,0.30382 -2.22485,0.46496 -4.26367,0.41796 -2.207,-0.052 -3.24808,0.062 -3.08008,0.33399 0.283,0.458 0.0222,0.50408 -2.5918,0.45508 -2.262,-0.043 -4.478,0.30973 -4.25,0.67773 0.095,0.154 -2.35722,0.23564 -5.44922,0.18164 -3.83382,-0.068 -5.79959,0.0501 -6.18359,0.36914 -0.389,0.323 -2.60713,0.43878 -7.20313,0.37696 -4.63882,-0.063 -6.72387,0.0452 -6.92187,0.36523 -0.204,0.33 -4.60107,0.45798 -15.83789,0.45898 C 182.00153,298.8742 182.695,298.89339 183,298.40039 183.16108,298.14027 180.81109,298 176.24609,298 172.01127,298 169.15,297.84161 169,297.59961 c -0.136,-0.22 -0.42648,-0.40039 -0.64648,-0.40039 -0.22,0 -0.26478,0.225 -0.0996,0.5 0.235,0.392 0.17293,0.39822 -0.28907,0.0254 -0.386,-0.312 -2.20353,-0.46727 -5.26953,-0.44727 -3.07882,0.021 -4.87786,-0.13131 -5.25586,-0.44531 -0.379,-0.314 -1.68122,-0.42331 -3.82422,-0.32031 -2.98882,0.145 -4.34718,-0.1403 -3.11718,-0.6543 0.276,-0.115 -1.06357,-0.18901 -2.97657,-0.16601 -2.27082,0.028 -3.68893,-0.13289 -4.08593,-0.46289 -0.413,-0.342 -1.43682,-0.43969 -3.18164,-0.30469 -1.649,0.127 -2.75227,0.0313 -3.07227,-0.26367 -0.38,-0.351 -0.43175,-0.341 -0.21875,0.0351 0.188,0.333 0.0742,0.41681 -0.3418,0.25781 C 136.27899,294.8227 136,294.58383 136,294.42383 c 0,-0.16 -0.99017,-0.26538 -2.20117,-0.23438 -1.21,0.032 -2.00463,-0.062 -1.76563,-0.20898 0.688,-0.425 -0.37811,-0.63431 -2.91211,-0.57031 -1.44782,0.037 -2.24921,-0.10096 -2.19921,-0.37696 0.045,-0.249 -0.60249,-0.44493 -1.52149,-0.46093 -0.88,-0.016 -1.96039,-0.14702 -2.40039,-0.29102 -0.44,-0.144 -1.82894,-0.29498 -3.08594,-0.33398 -1.292,-0.04 -2.18468,-0.23041 -2.05468,-0.44141 0.13182,-0.214 -0.48068,-0.32095 -1.4375,-0.25195 -0.917,0.066 -1.79232,-0.0602 -1.94532,-0.28125 -0.152,-0.221 -0.99695,-0.45454 -1.87695,-0.51954 -0.88,-0.065 -1.77147,-0.28432 -1.98047,-0.48632 -0.209,-0.202 -1.06244,-0.36719 -1.89844,-0.36719 -0.836,0 -1.52148,-0.18039 -1.52148,-0.40039 0,-0.22 -0.73005,-0.39844 -1.62305,-0.39844 -1.192,0 -1.54226,-0.133 -1.32226,-0.5 0.175,-0.291 -0.0141,-0.25022 -0.45313,0.0996 -0.439,0.35 -0.62812,0.39078 -0.45312,0.0996 0.223,-0.371 -0.17588,-0.5 -1.54688,-0.5 -1.093,0 -1.74942,-0.15967 -1.60742,-0.38867 0.14,-0.228 -0.363909,-0.36599 -1.212891,-0.33399 -0.798982,0.03 -1.570797,-0.11807 -1.716797,-0.33007 -0.145,-0.212 -0.710813,-0.41522 -1.257813,-0.44922 -0.546982,-0.035 -1.056812,-0.25047 -1.132812,-0.48047 -0.077,-0.23 -0.844096,-0.41797 -1.705078,-0.41797 -0.886982,0 -1.56836,-0.19427 -1.56836,-0.44727 0,-0.249 -0.351828,-0.35332 -0.798828,-0.23632 C 90.280729,285.05264 90,284.9275 90,284.5625 90,284.1875 89.539029,284 88.623047,284 87.866065,284 87.136,283.81961 87,283.59961 c -0.136,-0.22 -0.675219,-0.40039 -1.199219,-0.40039 -0.523982,0 -1.075609,-0.1965 -1.224609,-0.4375 -0.149,-0.242 -0.789846,-0.36253 -1.423828,-0.26953 C 82.353362,282.61019 82,282.49147 82,282.10547 c 0,-0.387 -0.396799,-0.51864 -1.300781,-0.43164 -0.934982,0.091 -1.266594,-0.0279 -1.183594,-0.42188 0.084,-0.399 -0.218205,-0.49723 -1.117187,-0.36523 -0.678,0.099 -1.342563,0.002 -1.476563,-0.21484 -0.147,-0.238 -0.03766,-0.26676 0.277344,-0.0723 0.345982,0.214 0.427281,0.16828 0.238281,-0.13672 C 77.2805,280.2094 76.738451,280 76.230469,280 c -0.507,0 -1.380471,-0.36078 -1.939453,-0.80078 -1.245982,-0.98 -1.781045,-1.04019 -1.039063,-0.11719 0.302,0.375 -0.12619,0.17474 -0.951172,-0.44726 -0.824982,-0.621 -1.5,-0.99604 -1.5,-0.83204 0,0.163 -0.242109,0.0946 -0.537109,-0.15039 -0.295,-0.245 -0.655799,-0.32664 -0.800781,-0.18164 -0.145,0.145 -0.263672,0.0405 -0.263672,-0.23047 0,-0.312 -0.293846,-0.40023 -0.798828,-0.24023 -0.531,0.169 -0.800782,0.0729 -0.800782,-0.28711 0,-0.298 -0.402578,-0.57237 -0.892578,-0.60937 -0.490982,-0.037 -1.09575,-0.34555 -1.34375,-0.68555 -0.249,-0.34 -0.731219,-0.61719 -1.074219,-0.61719 -0.341982,0 -0.713218,-0.225 -0.824218,-0.5 -0.161,-0.4 -0.207422,-0.4 -0.232422,0 -0.018,0.275 -0.224049,0.5 -0.457031,0.5 -0.233,0 -0.311764,-0.18039 -0.175782,-0.40039 0.136,-0.22 -0.032,-0.40039 -0.375,-0.40039 -0.342982,0 -0.625,-0.18039 -0.625,-0.40039 0,-0.22 -0.133828,-0.35669 -0.298828,-0.30469 -0.488982,0.155 -2.90039,-0.96175 -2.90039,-1.34375 0,-0.193 -0.196518,-0.35156 -0.4375,-0.35156 -0.241,0 -1.004331,-0.40539 -1.695313,-0.90039 -1.855464,-1.32975 -3.554377,-2.15391 -4.287109,-2.15039 z" />
    <path
       id="path1"
       d="m 346.8457,228.50781 c -0.465,0.035 -0.8457,0.31696 -0.8457,0.62696 0,0.475 0.11022,0.47854 0.69922,0.0273 0.385,-0.295 0.7657,-0.57695 0.8457,-0.62695 0.08,-0.051 -0.23422,-0.0623 -0.69922,-0.0273 z m -29.55468,13.51563 c -0.203,0 -0.50263,0.12645 -0.89063,0.37695 -0.485,0.314 -0.42917,0.38953 0.29883,0.39453 0.495,0.003 0.90039,-0.17453 0.90039,-0.39453 0,-0.2505 -0.10559,-0.37695 -0.30859,-0.37695 z m -122.69141,16.92187 c -2.2,10e-4 -3.04872,0.0694 -1.88672,0.15039 1.163,0.081 2.963,0.0811 4,-0.002 1.038,-0.082 0.0867,-0.14944 -2.11328,-0.14844 z m 10.80078,0 c -2.2,10e-4 -3.04872,0.0694 -1.88672,0.15039 1.163,0.081 2.963,0.0811 4,-0.002 1.038,-0.082 0.0867,-0.14944 -2.11328,-0.14844 z M 335.5,262.82422 c -0.055,0.014 -0.48698,0.18305 -0.95898,0.37305 -0.963,0.389 -1.61585,1.20312 -0.96485,1.20312 0.233,0 0.42383,-0.18039 0.42383,-0.40039 0,-0.22 0.36078,-0.40039 0.80078,-0.40039 0.44,0 0.79883,-0.18039 0.79883,-0.40039 0,-0.22 -0.0446,-0.389 -0.0996,-0.375 z m 13.25391,5.57617 c -0.279,0 -0.10252,0.37484 0.39648,0.83984 0.496,0.462 1.00105,0.74109 1.12305,0.61915 0.304,-0.304 -0.89853,-1.45899 -1.51953,-1.45899 z m -293.023441,1.57422 c -0.08216,0.0134 -0.13086,0.0719 -0.13086,0.17969 0,0.085 0.49461,0.47238 1.09961,0.86132 l 1.101562,0.70899 -0.763672,-0.86328 c -0.505494,-0.57225 -1.060172,-0.92703 -1.30664,-0.88672 z M 343.92383,270 c -0.11,0 -0.52583,0.36078 -0.92383,0.80078 -0.398,0.44 -0.96572,0.79883 -1.26172,0.79883 -0.296,0 -0.53906,0.18606 -0.53906,0.41406 0,0.271 0.24408,0.28416 0.70508,0.0371 0.736,-0.393 2.36753,-2.05078 2.01953,-2.05078 z m -26.54492,0.5332 c -0.299,0 -0.63605,0.23921 -0.74805,0.53321 -0.113,0.293 0.0398,0.5332 0.33984,0.5332 0.299,0 0.63605,-0.2402 0.74805,-0.5332 0.113,-0.294 -0.0398,-0.53321 -0.33984,-0.53321 z m -235.085941,0.13672 c -0.0905,0.0573 -0.09453,0.1805 -0.01953,0.375 0.116994,0.305 0.462531,0.55469 0.769531,0.55469 0.830994,0 0.673103,-0.6762 -0.212891,-0.9082 -0.27,-0.0705 -0.446609,-0.0787 -0.537109,-0.0215 z m 7.048828,1.86133 c -0.077,-0.0523 -0.125406,-0.0276 -0.128906,0.0879 -0.014,0.49 0.802578,1.38086 1.267578,1.38086 0.176,0 0.320312,-0.19083 0.320312,-0.42383 0,-0.233 -0.169,-0.3194 -0.375,-0.1914 -0.207,0.127 -0.562062,-0.0866 -0.789062,-0.47657 -0.1135,-0.1945 -0.217922,-0.3247 -0.294922,-0.37695 z m 246.833983,2.32813 c -0.24587,0.007 -0.79725,0.13481 -1.65625,0.38281 -1.38,0.399 -2.05156,1.02539 -1.10156,1.02539 0.32,0 0.58203,-0.14999 0.58203,-0.33399 0,-0.183 0.31422,-0.33684 0.69922,-0.33984 0.385,-0.003 0.97078,-0.18153 1.30078,-0.39453 0.3625,-0.234 0.42166,-0.34684 0.17578,-0.33984 z M 65.546875,275.2207 c -0.24825,-0.0453 -0.346734,0.058 -0.177734,0.33203 0.12,0.193 0.626,0.45408 1.125,0.58008 0.873994,0.22 0.8779,0.20649 0.128906,-0.35351 -0.43,-0.321 -0.827922,-0.51335 -1.076172,-0.5586 z m 67.187505,7.49414 c -0.66275,-0.0414 -1.38506,-0.002 -1.625,0.15039 -0.305,0.193 0.1714,0.32413 1.1914,0.32813 0.935,0.003 1.69922,-0.0634 1.69922,-0.14844 0,-0.167 -0.60293,-0.2887 -1.26562,-0.33008 z m -86.322271,3.32422 c -0.027,0.49 1.226688,2.69578 1.804688,3.17578 0.499994,0.415 0.559609,0.3868 0.349609,-0.1582 -0.138,-0.362 -0.423812,-0.65625 -0.632812,-0.65625 -0.21,0 -0.282156,-0.16042 -0.160156,-0.35742 0.121994,-0.197 -0.130506,-0.78278 -0.5625,-1.30078 -0.431,-0.518 -0.790829,-0.83513 -0.798829,-0.70313 z m 163.488281,1.25 c -0.055,0.049 -4.33,0.18855 -9.5,0.31055 L 191,287.82227 l 9.5,0.0879 c 6.12594,0.057 9.5,-0.0525 9.5,-0.31055 0,-0.22 -0.0446,-0.35955 -0.0996,-0.31055 z M 352.41406,288 c -0.212,0 -0.59742,0.40539 -0.85742,0.90039 -0.47,0.895 -0.46923,0.89472 0.38477,0.13672 0.953,-0.847 1.04065,-1.03711 0.47265,-1.03711 z m -301.935544,3.62891 c -0.05127,0.032 -0.07813,0.098 -0.07813,0.19921 0,0.424 1.235797,1.46829 1.466797,1.23829 0.124994,-0.126 -0.04963,-0.50666 -0.390626,-0.84766 -0.476244,-0.47625 -0.844255,-0.68594 -0.998046,-0.58984 z M 263.63281,294 c -0.238,0 -0.43359,0.16709 -0.43359,0.37109 0,0.204 -0.31422,0.46222 -0.69922,0.57422 -0.421,0.122 -0.31347,0.17291 0.26953,0.12891 0.935,-0.071 1.74228,-1.07422 0.86328,-1.07422 z m -112.76758,1.83398 c -0.145,0.0179 -0.31456,0.0792 -0.47656,0.18164 -0.323,0.204 -0.49867,0.38821 -0.38867,0.40821 1.75,0.313 2.13578,0.32906 1.80078,0.0723 -0.22,-0.168 -0.49628,-0.42712 -0.61328,-0.57812 -0.058,-0.075 -0.17727,-0.10181 -0.32227,-0.084 z m -91.109371,3.55079 c -0.09663,0.0242 -0.15625,0.0862 -0.15625,0.17968 0,0.186 0.240209,0.53725 0.533203,0.78125 0.403,0.334 0.535157,0.30024 0.535157,-0.13476 0,-0.317 -0.241157,-0.66925 -0.535157,-0.78125 -0.146494,-0.0565 -0.280328,-0.0692 -0.376953,-0.0449 z m 7.251953,4.04492 c -0.089,0.0445 -0.130515,0.13989 -0.103515,0.27539 0.22,1.1 1.896484,2.0687 1.896484,1.0957 0,-0.22 -0.282,-0.40039 -0.625,-0.40039 -0.342994,0 -0.524343,-0.16042 -0.402343,-0.35742 0.121994,-0.197 -0.0451,-0.46289 -0.371094,-0.58789 -0.169,-0.0645 -0.305532,-0.0699 -0.394532,-0.0254 z m 9.697266,4.43945 c -0.0985,0.0485 -0.119114,0.15255 -0.05859,0.31055 0.103,0.268 0.451485,0.48828 0.771485,0.48828 0.844994,0 0.714494,-0.53939 -0.1875,-0.77539 -0.2495,-0.065 -0.426891,-0.0719 -0.525391,-0.0234 z" />
  </g>
</svg>
